#N canvas 431 128 504 535 10;
#X obj 225 317 osc~;
#X obj 186 118 bng 15 250 50 0 empty empty empty 0 -6 0 8 -262144 -1
-1;
#X obj 224 346 *~;
#X obj 227 257 line;
#X floatatom 227 155 5 0 0 0 - - -;
#X floatatom 271 156 5 0 0 0 - - -;
#X floatatom 325 155 5 0 0 0 - - -;
#X obj 226 292 t f f;
#X obj 257 317 <;
#X msg 227 233 \$2 \$3;
#X text 229 94 frequency;
#X text 275 137 high;
#X text 234 137 low;
#X text 315 97 duration;
#X obj 227 116 inlet;
#X obj 269 115 inlet;
#X obj 325 114 inlet;
#X obj 223 379 outlet~;
#X obj 226 209 pack f f f;
#X obj 227 179 t f f;
#X text 155 97 bubble!;
#X connect 0 0 2 0;
#X connect 1 0 4 0;
#X connect 2 0 17 0;
#X connect 3 0 7 0;
#X connect 4 0 19 0;
#X connect 5 0 18 1;
#X connect 5 0 8 1;
#X connect 6 0 18 2;
#X connect 7 0 0 0;
#X connect 7 1 8 0;
#X connect 8 0 2 1;
#X connect 9 0 3 0;
#X connect 14 0 4 0;
#X connect 15 0 5 0;
#X connect 16 0 6 0;
#X connect 18 0 9 0;
#X connect 19 0 18 0;
#X connect 19 1 3 0;
