#N canvas 392 22 706 648 10;
#X obj 323 591 dac~;
#X obj 176 191 random 5;
#X obj 177 219 + 1;
#X obj 220 255 gate 6;
#X obj 499 332 unpack f f f;
#X obj 411 331 unpack f f f;
#X obj 322 310 unpack f f f;
#X obj 244 329 unpack f f f;
#X obj 156 325 unpack f f f;
#X obj 64 326 unpack f f f;
#X obj 318 231 pack f f f;
#X obj 81 52 tgl 15 0 empty empty empty 0 -6 0 8 -262144 -1 -1 0 1
;
#X obj 199 410 *~ 0.1;
#X obj 260 408 *~ 0.2;
#X obj 330 408 *~ 0.3;
#X obj 402 409 *~ 0.4;
#X obj 411 430 *~ 0.1;
#X obj 338 429 *~ 0.2;
#X obj 250 429 *~ 0.3;
#X obj 188 437 *~ 0.4;
#X obj 493 426 *~ 0.5;
#X obj 137 434 *~ 0.5;
#X obj 77 176 gate;
#X obj 76 132 random 10;
#X obj 77 151 >= 8;
#X obj 80 105 t b b;
#X obj 81 80 metro 50;
#X obj 494 190 + 200;
#X obj 309 192 + 50;
#X obj 321 106 t b b b b;
#X obj 496 136 bng 15 250 50 0 empty empty empty 0 -6 0 8 -262144 -1
-1;
#X obj 390 138 bng 15 250 50 0 empty empty empty 0 -6 0 8 -262144 -1
-1;
#X obj 310 140 bng 15 250 50 0 empty empty empty 0 -6 0 8 -262144 -1
-1;
#X obj 216 169 bng 15 250 50 0 empty empty empty 0 -6 0 8 -262144 -1
-1;
#X obj 81 366 basicbubble;
#X obj 165 367 basicbubble;
#X obj 249 367 basicbubble;
#X obj 331 368 basicbubble;
#X obj 416 368 basicbubble;
#X obj 499 368 basicbubble;
#X obj 307 160 random 100;
#X obj 308 55 bng 15 250 50 0 empty empty empty 0 -6 0 8 -262144 -1
-1;
#X text 109 51 play some bubbles;
#X text 331 55 play one bubble;
#X obj 493 162 random 200;
#X obj 389 191 + 500;
#X obj 389 161 random 500;
#X obj 209 516 s~ left;
#X obj 448 518 s~ right;
#X obj 281 565 r~ left;
#X obj 374 567 r~ right;
#N canvas 377 144 596 347 scopes 1;
#X obj 106 86 r~ left;
#X obj 106 117 tabwrite~ leftsignal;
#N canvas 0 22 450 300 graph3 0;
#X array leftsignal 200 float 2;
#X coords 0 1 199 -1 200 140 1;
#X restore 101 181 graph;
#X obj 331 84 r~ right;
#X obj 331 112 tabwrite~ rightsignal;
#X obj 244 44 metro 100;
#X obj 246 10 tgl 15 0 empty empty empty 0 -6 0 8 -262144 -1 -1 0 1
;
#N canvas 0 22 450 300 graph4 0;
#X array rightsignal 200 float 2;
#X coords 0 1 199 -1 200 140 1;
#X restore 328 174 graph;
#X obj 291 11 bng 15 250 50 0 empty empty empty 0 -6 0 8 -262144 -1
-1;
#X connect 0 0 1 0;
#X connect 3 0 4 0;
#X connect 5 0 4 0;
#X connect 5 0 1 0;
#X connect 6 0 5 0;
#X connect 8 0 1 0;
#X connect 8 0 4 0;
#X restore -6 257 pd scopes;
#X connect 1 0 2 0;
#X connect 2 0 3 0;
#X connect 3 0 9 0;
#X connect 3 1 8 0;
#X connect 3 2 7 0;
#X connect 3 3 6 0;
#X connect 3 4 5 0;
#X connect 3 5 4 0;
#X connect 4 0 39 0;
#X connect 4 1 39 1;
#X connect 4 2 39 2;
#X connect 5 0 38 0;
#X connect 5 1 38 1;
#X connect 5 2 38 2;
#X connect 6 0 37 0;
#X connect 6 1 37 1;
#X connect 6 2 37 2;
#X connect 7 0 36 0;
#X connect 7 1 36 1;
#X connect 7 2 36 2;
#X connect 8 0 35 0;
#X connect 8 1 35 1;
#X connect 8 2 35 2;
#X connect 9 0 34 0;
#X connect 9 1 34 1;
#X connect 9 2 34 2;
#X connect 10 0 3 1;
#X connect 11 0 26 0;
#X connect 12 0 48 0;
#X connect 13 0 48 0;
#X connect 14 0 48 0;
#X connect 15 0 48 0;
#X connect 16 0 47 0;
#X connect 17 0 47 0;
#X connect 18 0 47 0;
#X connect 19 0 47 0;
#X connect 20 0 48 0;
#X connect 21 0 47 0;
#X connect 22 0 29 0;
#X connect 23 0 24 0;
#X connect 24 0 22 0;
#X connect 25 0 22 1;
#X connect 25 1 23 0;
#X connect 26 0 25 0;
#X connect 27 0 10 2;
#X connect 28 0 10 0;
#X connect 29 0 32 0;
#X connect 29 1 31 0;
#X connect 29 2 30 0;
#X connect 29 3 33 0;
#X connect 30 0 44 0;
#X connect 31 0 46 0;
#X connect 32 0 40 0;
#X connect 33 0 1 0;
#X connect 34 0 21 0;
#X connect 35 0 12 0;
#X connect 35 0 19 0;
#X connect 36 0 13 0;
#X connect 36 0 18 0;
#X connect 37 0 14 0;
#X connect 37 0 17 0;
#X connect 38 0 15 0;
#X connect 38 0 16 0;
#X connect 39 0 20 0;
#X connect 40 0 28 0;
#X connect 41 0 29 0;
#X connect 44 0 27 0;
#X connect 45 0 10 1;
#X connect 46 0 45 0;
#X connect 49 0 0 0;
#X connect 50 0 0 1;
