#N canvas 486 22 468 392 10;
#X obj 564 409 unpack s f;
#X obj 565 442 bng 15 250 50 0 empty empty empty 0 -6 0 8 -262144 -1
-1;
#X floatatom 630 440 5 0 0 0 - - -;
#X obj 633 530 osc~;
#X obj 644 594 dac~;
#X obj 642 498 + 440;
#X obj 632 467 * 100;
#X obj 564 409 unpack s f;
#X obj 565 442 bng 15 250 50 0 empty empty empty 0 -6 0 8 -262144 -1
-1;
#X floatatom 630 440 5 0 0 0 - - -;
#X obj 633 530 osc~;
#X obj 644 594 dac~;
#X obj 642 498 + 440;
#X obj 632 467 * 100;
#X obj 564 409 unpack s f;
#X obj 565 442 bng 15 250 50 0 empty empty empty 0 -6 0 8 -262144 -1
-1;
#X floatatom 630 440 5 0 0 0 - - -;
#X obj 633 530 osc~;
#X obj 644 594 dac~;
#X obj 642 498 + 440;
#X obj 632 467 * 100;
#X obj 564 409 unpack s f;
#X obj 565 442 bng 15 250 50 0 empty empty empty 0 -6 0 8 -262144 -1
-1;
#X floatatom 630 440 5 0 0 0 - - -;
#X obj 633 530 osc~;
#X obj 644 594 dac~;
#X obj 642 498 + 440;
#X obj 632 467 * 100;
#X obj 564 409 unpack s f;
#X obj 565 442 bng 15 250 50 0 empty empty empty 0 -6 0 8 -262144 -1
-1;
#X floatatom 630 440 5 0 0 0 - - -;
#X obj 633 530 osc~;
#X obj 644 594 dac~;
#X obj 642 498 + 440;
#X obj 632 467 * 100;
#X obj 564 409 unpack s f;
#X obj 565 442 bng 15 250 50 0 empty empty empty 0 -6 0 8 -262144 -1
-1;
#X floatatom 630 440 5 0 0 0 - - -;
#X obj 633 530 osc~;
#X obj 644 594 dac~;
#X obj 642 498 + 440;
#X obj 632 467 * 100;
#X obj 42 41 r card;
#X obj 42 75 OSCroute /channel /packets;
#X obj 43 238 osc~;
#X obj 39 320 dac~;
#X floatatom 43 124 5 0 0 0 - - -;
#X obj 42 184 + 220;
#X obj 43 152 * 50;
#X obj 44 279 *~;
#X obj 113 143 vsl 15 100 0 1 0 0 empty empty empty 0 -8 0 8 -262144
-1 -1 2100 1;
#X floatatom 113 267 5 0 0 0 - - -;
#X connect 0 0 1 0;
#X connect 0 1 2 0;
#X connect 2 0 6 0;
#X connect 3 0 4 0;
#X connect 5 0 3 0;
#X connect 6 0 5 0;
#X connect 7 0 8 0;
#X connect 7 1 9 0;
#X connect 9 0 13 0;
#X connect 10 0 11 0;
#X connect 12 0 10 0;
#X connect 13 0 12 0;
#X connect 14 0 15 0;
#X connect 14 1 16 0;
#X connect 16 0 20 0;
#X connect 17 0 18 0;
#X connect 19 0 17 0;
#X connect 20 0 19 0;
#X connect 21 0 22 0;
#X connect 21 1 23 0;
#X connect 23 0 27 0;
#X connect 24 0 25 0;
#X connect 26 0 24 0;
#X connect 27 0 26 0;
#X connect 28 0 29 0;
#X connect 28 1 30 0;
#X connect 30 0 34 0;
#X connect 31 0 32 0;
#X connect 33 0 31 0;
#X connect 34 0 33 0;
#X connect 35 0 36 0;
#X connect 35 1 37 0;
#X connect 37 0 41 0;
#X connect 38 0 39 0;
#X connect 40 0 38 0;
#X connect 41 0 40 0;
#X connect 42 0 43 0;
#X connect 43 0 46 0;
#X connect 44 0 49 0;
#X connect 46 0 48 0;
#X connect 47 0 44 0;
#X connect 48 0 47 0;
#X connect 49 0 45 0;
#X connect 49 0 45 1;
#X connect 50 0 51 0;
#X connect 51 0 49 1;
