#N canvas 237 141 649 562 10;
#X obj 294 170 list split 1;
#X obj 295 140 list;
#X obj 401 171 bng 15 250 50 0 empty empty empty 0 -6 0 8 -262144 -1
-1;
#X obj 383 296 list prepend;
#X obj 270 35 t a a a;
#X obj 307 211 select;
#X obj 292 76 bng 15 250 50 0 empty empty empty 0 -6 0 8 -262144 -1
-1;
#X obj 177 389 list;
#X obj 179 444 outlet;
#X obj 269 8 inlet;
#X obj 381 333 t l l;
#X obj 176 417 t l l;
#X obj 292 101 nbang \$1;
#X obj 334 426 gate;
#N canvas 0 22 454 304 swing 0;
#X obj 63 53 inlet;
#X obj 263 53 inlet;
#X obj 124 247 outlet;
#X obj 264 243 outlet;
#X obj 63 81 route clear;
#X obj 262 147 spigot;
#X obj 126 154 spigot;
#X msg 165 130 0;
#X msg 299 124 0;
#X msg 333 123 1;
#X msg 199 129 1;
#X obj 263 181 t a b;
#X obj 126 184 t a b;
#X connect 0 0 4 0;
#X connect 1 0 5 0;
#X connect 4 0 9 0;
#X connect 4 0 10 0;
#X connect 4 1 6 0;
#X connect 5 0 11 0;
#X connect 6 0 12 0;
#X connect 7 0 6 1;
#X connect 8 0 5 1;
#X connect 9 0 5 1;
#X connect 10 0 6 1;
#X connect 11 0 3 0;
#X connect 11 1 7 0;
#X connect 12 0 2 0;
#X connect 12 1 8 0;
#X restore 299 260 pd swing;
#X obj 200 284 demux;
#X obj 222 315 bng 15 250 50 0 empty empty empty 0 -6 0 8 -262144 -1
-1;
#X msg 246 227 clear;
#X connect 0 0 5 0;
#X connect 0 1 1 1;
#X connect 1 0 0 0;
#X connect 2 0 3 1;
#X connect 3 0 10 0;
#X connect 4 0 15 0;
#X connect 4 1 6 0;
#X connect 4 2 2 0;
#X connect 4 2 5 1;
#X connect 4 2 17 0;
#X connect 4 2 15 1;
#X connect 5 0 14 0;
#X connect 5 1 14 1;
#X connect 6 0 12 0;
#X connect 7 0 11 0;
#X connect 9 0 4 0;
#X connect 10 0 3 1;
#X connect 10 1 7 1;
#X connect 11 0 8 0;
#X connect 11 1 1 1;
#X connect 12 0 1 0;
#X connect 14 0 15 1;
#X connect 14 1 3 0;
#X connect 15 0 7 0;
#X connect 15 1 16 0;
#X connect 16 0 7 0;
#X connect 17 0 14 0;
