#N canvas 436 42 469 400 10;
#X obj 50 145 i;
#X obj 91 145 + 1;
#X msg 50 119 1;
#X obj 52 67 route bang float;
#X obj 105 91 t f f;
#X obj 78 222 bang;
#X obj 77 253 outlet;
#X text 56 26 bang n times;
#X obj 52 46 inlet;
#X obj 154 216 bng 15 250 50 0 empty empty empty 0 -6 0 8 -262144 -1
-1;
#X obj 48 183 t f f;
#X obj 90 183 split 1 \$1;
#X connect 0 0 10 0;
#X connect 1 0 11 0;
#X connect 2 0 0 0;
#X connect 3 0 2 0;
#X connect 3 1 4 0;
#X connect 3 2 2 0;
#X connect 4 0 2 0;
#X connect 4 1 11 2;
#X connect 5 0 6 0;
#X connect 8 0 3 0;
#X connect 10 0 1 0;
#X connect 10 1 5 0;
#X connect 11 0 0 0;
#X connect 11 1 9 0;
