#N canvas 149 48 499 301 10;
#X msg 248 170 \$1;
#X obj 248 130 symbol;
#X obj 248 190 outlet;
#X obj 218 70 inlet;
#X text 49 29 OSChead devides the first path component from the rest
of the OSC message;
#X obj 218 220 OSCroute /*;
#X obj 218 100 t a a;
#X obj 218 240 outlet;
#X obj 248 150 symbol2list /;
#X connect 0 0 2 0;
#X connect 1 0 8 0;
#X connect 3 0 6 0;
#X connect 5 0 7 0;
#X connect 6 0 5 0;
#X connect 6 1 1 0;
#X connect 8 0 0 0;
