#N canvas 250 66 595 637 10;
#X obj 192 50 == \$1;
#X obj 192 30 r net_evtkey;
#X obj 154 10 r net_evtval;
#X obj 154 70 spigot;
#X obj 153 103 k2onetrel;
#X obj 94 318 t a a;
#X obj 102 269 spigot;
#X obj 180 209 t a a;
#X obj 180 189 change;
#X obj 228 230 select 0;
#X obj 278 277 f \$1;
#X obj 279 257 bng 15 250 50 0 empty empty empty 0 -6 0 8 -262144 -1
-1;
#X obj 225 272 f \$1;
#X obj 226 252 bng 15 250 50 0 empty empty empty 0 -6 0 8 -262144 -1
-1;
#X obj 23 367 unpack f f;
#X obj 21 428 pack f f;
#X msg 21 455 pos \$2 \$1;
#X obj 20 483 s \$1-tonet;
#X obj 23 394 + 200;
#X obj 89 395 + 200;
#X obj 277 299 print appeared;
#X obj 224 323 print disappeared;
#X obj 359 522 pan~;
#X obj 181 166 < 400;
#X obj 386 488 / 400;
#X obj 322 444 osc~;
#X obj 344 486 *~;
#X msg 420 438 0;
#X obj 161 267 spigot;
#X obj 162 135 t f f;
#X obj 304 564 throw~ \$3-l;
#X obj 389 564 throw~ \$3-r;
#X floatatom 382 506 5 0 0 0 - - -;
#X floatatom 362 462 5 0 0 0 - - -;
#X obj 368 160 OSCroute /channel;
#X obj 371 207 spigot;
#X obj 402 326 + 60;
#X obj 400 296 * 60;
#X obj 370 440 / 1000;
#X connect 0 0 3 1;
#X connect 1 0 0 0;
#X connect 2 0 3 0;
#X connect 3 0 4 0;
#X connect 3 0 34 0;
#X connect 4 0 6 0;
#X connect 4 1 29 0;
#X connect 5 0 14 0;
#X connect 6 0 5 0;
#X connect 7 0 6 1;
#X connect 7 0 28 1;
#X connect 7 0 35 1;
#X connect 7 1 9 0;
#X connect 8 0 7 0;
#X connect 9 0 13 0;
#X connect 9 0 27 0;
#X connect 9 1 11 0;
#X connect 10 0 20 0;
#X connect 11 0 10 0;
#X connect 12 0 21 0;
#X connect 13 0 12 0;
#X connect 14 0 18 0;
#X connect 14 1 19 0;
#X connect 15 0 16 0;
#X connect 16 0 17 0;
#X connect 18 0 15 0;
#X connect 19 0 15 1;
#X connect 19 0 24 0;
#X connect 22 0 30 0;
#X connect 22 1 31 0;
#X connect 23 0 8 0;
#X connect 24 0 32 0;
#X connect 25 0 26 0;
#X connect 26 0 22 0;
#X connect 27 0 33 0;
#X connect 28 0 38 0;
#X connect 29 0 28 0;
#X connect 29 1 23 0;
#X connect 32 0 22 1;
#X connect 33 0 26 1;
#X connect 34 0 35 0;
#X connect 35 0 37 0;
#X connect 36 0 25 0;
#X connect 37 0 36 0;
#X connect 38 0 33 0;
