#N canvas 18 22 960 701 10;
#X obj 213 15 r net;
#X obj 213 49 OSChead;
#X obj 623 95 namecanvas \$0-polynet;
#X obj 420 86 symbol \$0-polynet;
#X obj 419 50 bng 15 250 50 0 empty empty empty 0 -6 0 8 -262144 -1
-1;
#X obj 420 106 pack s f;
#X floatatom 471 54 5 0 0 0 - - -;
#X obj 390 195 f;
#X obj 422 195 + 1;
#X obj 426 237 <;
#X msg 351 217 bang;
#X obj 390 216 t a a a;
#X msg 390 169 0;
#X obj 389 264 spigot;
#X obj 352 512 prepend;
#X obj 362 472 prepend;
#X obj 366 428 t a a;
#X obj 419 126 t a a;
#X obj 49 385 catch~ aout-l;
#X obj 166 386 catch~ aout-r;
#X obj 122 435 dac~;
#X obj 251 81 s net_evtkey;
#X obj 240 105 s net_evtval;
#N canvas 585 22 420 420 1253-map 0;
#X obj -5 -2 cnv 15 400 400 empty empty empty 20 12 0 14 -257588 -66577
0;
#X restore 623 115 pd \$0-map;
#X obj 481 106 s \$0-netmax;
#X obj 392 493 r \$0-netparam;
#X obj 389 292 s \$0-net_new;
#X obj 365 410 r \$0-net_new;
#X obj 449 146 s \$0-netparam;
#X text 366 388 create polynet object;
#X text 597 157 create canvas object;
#X text 415 18 generate controllers;
#X obj 597 179 r \$0-net_new;
#X msg 363 451 aout point;
#X msg 352 539 \; \$1 obj 5 5 polynet \$3 \$2 \$4 \$5 \;;
#X msg 560 296 bang;
#X obj 560 340 makefilename pd-%s;
#X obj 560 319 symbol \$0-map;
#X msg 563 430 \; \$1 obj 16 16 cnv 20 20 20 \$2 \$3 \$4 0 10 0 12
-233017 -66577 0;
#X obj 596 214 t f f f f;
#X obj 567 381 pack s s s s;
#X obj 106 308 prepend set;
#X msg 109 341 1013-mapbla;
#X obj 102 236 bng 15 250 50 0 empty empty empty 0 -6 0 8 -262144 -1
-1;
#X obj 105 274 symbol \$0-mapbla;
#X obj 656 240 makefilename %dn;
#X obj 641 260 makefilename %d-tonet;
#X obj 626 279 makefilename %d-fromnet;
#X obj 445 216 r \$0-netmax;
#X obj 107 618 writesf~ 2;
#X msg 204 542 start;
#X msg 236 567 stop;
#X obj 204 519 select 1 0;
#X obj 20 513 bng 20 250 50 0 empty empty OPEN 0 -6 0 8 -260818 -1
-1;
#X msg 19 573 open \$1;
#X obj 19 551 savepanel;
#X obj 205 493 tgl 20 0 empty empty REC 0 -6 0 8 -24198 -1 -1 1 1;
#X connect 0 0 1 0;
#X connect 1 0 22 0;
#X connect 1 1 21 0;
#X connect 3 0 5 0;
#X connect 4 0 3 0;
#X connect 5 0 17 0;
#X connect 6 0 24 0;
#X connect 6 0 5 1;
#X connect 7 0 11 0;
#X connect 8 0 7 1;
#X connect 9 0 13 1;
#X connect 10 0 7 0;
#X connect 11 0 13 0;
#X connect 11 1 9 0;
#X connect 11 2 8 0;
#X connect 12 0 7 0;
#X connect 13 0 10 0;
#X connect 13 0 26 0;
#X connect 14 0 34 0;
#X connect 15 0 14 0;
#X connect 16 0 33 0;
#X connect 16 1 15 1;
#X connect 17 0 12 0;
#X connect 17 1 28 0;
#X connect 18 0 20 0;
#X connect 18 0 49 0;
#X connect 19 0 20 1;
#X connect 19 0 49 1;
#X connect 25 0 14 1;
#X connect 27 0 16 0;
#X connect 32 0 39 0;
#X connect 33 0 15 0;
#X connect 35 0 37 0;
#X connect 36 0 40 0;
#X connect 37 0 36 0;
#X connect 39 0 35 0;
#X connect 39 1 47 0;
#X connect 39 2 46 0;
#X connect 39 3 45 0;
#X connect 40 0 38 0;
#X connect 41 0 42 0;
#X connect 43 0 44 0;
#X connect 44 0 41 0;
#X connect 45 0 40 3;
#X connect 46 0 40 2;
#X connect 47 0 40 1;
#X connect 48 0 9 1;
#X connect 50 0 49 0;
#X connect 51 0 49 0;
#X connect 52 0 50 0;
#X connect 52 1 51 0;
#X connect 53 0 55 0;
#X connect 54 0 49 0;
#X connect 55 0 54 0;
#X connect 56 0 52 0;
