#N canvas 217 235 517 483 10;
#X obj 33 67 inlet;
#X obj 212 50 inlet;
#X obj 120 407 outlet;
#X obj 98 293 i \$1;
#X obj 326 136 i \$3;
#X obj 326 106 loadbang;
#X obj 162 293 + 1;
#X obj 277 174 select 0;
#X obj 277 107 inlet;
#X text 36 36 or valuelist;
#X text 308 23 counter inc;
#X obj 99 127 unpack f f f;
#X floatatom 168 213 5 0 0 0 - - -;
#X floatatom 241 210 5 0 0 0 - - -;
#X obj 168 259 min;
#X obj 240 261 min;
#X obj 199 260 max;
#X obj 33 97 route bang;
#X obj 162 345 split \$2 \$1;
#X text 209 24 start value;
#X text 35 17 stop value;
#X obj 98 262 i \$2;
#X obj 99 202 bng 15 250 50 0 empty empty empty 0 -6 0 8 -262144 -1
-1;
#X obj 98 161 t b f;
#X obj 98 345 t f f;
#X obj 160 372 t f f;
#X obj 177 401 delay 0;
#X obj 268 261 max;
#X connect 0 0 17 0;
#X connect 1 0 21 1;
#X connect 3 0 24 0;
#X connect 4 0 7 0;
#X connect 5 0 4 0;
#X connect 6 0 18 0;
#X connect 7 1 6 1;
#X connect 8 0 7 0;
#X connect 11 0 23 0;
#X connect 11 1 13 0;
#X connect 11 2 7 0;
#X connect 12 0 14 0;
#X connect 12 0 16 0;
#X connect 12 0 15 1;
#X connect 12 0 27 1;
#X connect 13 0 15 0;
#X connect 13 0 16 1;
#X connect 13 0 14 1;
#X connect 13 0 27 0;
#X connect 14 0 18 1;
#X connect 15 0 18 1;
#X connect 16 0 18 2;
#X connect 17 0 21 0;
#X connect 17 1 11 0;
#X connect 18 0 25 0;
#X connect 21 0 3 0;
#X connect 22 0 21 0;
#X connect 23 0 22 0;
#X connect 23 1 12 0;
#X connect 24 0 6 0;
#X connect 25 0 26 0;
#X connect 25 1 3 1;
#X connect 26 0 3 0;
#X connect 27 0 18 2;
