#N struct net_array float x float y array netwks net_struct;
#N struct net_struct float x float y float channel float innocence
float v float netnum float color float datarank;
#N canvas 117 46 895 549 10;
#X obj 25 58 OSChead;
#N canvas 217 401 514 364 net_struct 0;
#X obj 53 59 struct net_struct float x float y float channel float
innocence float v float netnum float color float datarank;
#X obj 55 127 filledpolygon -v v 553 0 1 -1 -1 -1 1 1 1 1 -1;
#X restore 644 253 pd net_struct;
#N canvas 0 22 458 308 net_pool 0;
#X scalar net_array 0 0 \; 0 0 0 0 0 0 0 0 \; \;;
#X coords -20 -20 20 20 200 200 1;
#X restore 644 50 pd net_pool;
#X obj 69 90 change -1;
#X obj 98 275 OSCroute /bang;
#N canvas 0 22 502 352 net_array 0;
#X obj 47 45 struct net_array float x float y array netwks net_struct
;
#X obj 47 95 plot netwks 0 0 0 0;
#X restore 644 272 pd net_array;
#X obj 508 76 loadbang;
#X obj 489 76 bng 15 250 50 0 empty empty empty 0 -6 0 8 -262144 -1
-1;
#N canvas 0 22 475 365 net_pool_setup 0;
#X obj 29 25 inlet;
#X msg 87 76 clear;
#X obj 30 52 t b b;
#X msg 31 117 traverse pd-net_pool \, bang;
#X obj 87 97 s pd-net_pool;
#X obj 31 280 s \$0-npoolptr;
#X msg 85 199 0;
#X msg 57 202 0;
#X obj 57 256 s \$0-narrayptr;
#X obj 56 230 append net_array x y;
#X obj 30 147 pointer;
#X obj 32 175 t p b b p;
#X connect 0 0 2 0;
#X connect 1 0 4 0;
#X connect 2 0 3 0;
#X connect 2 1 1 0;
#X connect 3 0 10 0;
#X connect 6 0 9 1;
#X connect 7 0 9 0;
#X connect 9 0 8 0;
#X connect 10 0 11 0;
#X connect 11 0 5 0;
#X connect 11 1 7 0;
#X connect 11 2 6 0;
#X connect 11 3 9 2;
#X restore 494 102 pd net_pool_setup;
#X obj 345 97 r \$0-narrayptr;
#X obj 265 157 setsize net_array netwks;
#X obj 265 97 max;
#X obj 265 117 change 0;
#X obj 69 115 t f f;
#X obj 69 136 element net_array netwks;
#X obj 69 157 s \$0-anet;
#X text 85 53 get networks and resize array if nessesary;
#X obj 481 146 s \$0-zero;
#X msg 479 126 0;
#X obj 552 145 s \$0-one;
#X msg 551 124 1;
#X obj 315 77 r \$0-zero;
#N canvas 28 284 768 430 storenet 0;
#X obj 51 64 inlet;
#X obj 115 60 inlet;
#X text 50 33 bang;
#X text 119 34 osc input;
#X obj 180 169 OSCroute /innocence /datarank;
#X obj 90 170 unpack f f;
#X obj 398 214 r \$0-anet;
#X obj 73 237 set net_struct x y v innocence datarank channel;
#X obj 181 216 r \$0-one;
#X obj 118 122 OSCroute /localpos /stat /channel;
#X obj 69 200 f;
#X connect 0 0 10 0;
#X connect 1 0 9 0;
#X connect 4 0 7 3;
#X connect 4 1 7 4;
#X connect 5 0 10 1;
#X connect 5 1 7 1;
#X connect 6 0 7 6;
#X connect 8 0 7 2;
#X connect 9 0 5 0;
#X connect 9 1 4 0;
#X connect 9 2 7 5;
#X connect 10 0 7 0;
#X restore 25 339 pd storenet;
#X obj 24 246 OSCroute /bang /packet;
#N canvas 153 179 767 416 packet 0;
#X obj 38 20 inlet;
#X obj 568 26 inlet;
#X obj 57 88 pointer;
#X floatatom 57 137 5 0 0 0 - - -;
#X obj 368 102 r info;
#X floatatom 396 168 5 0 0 0 - - -;
#X obj 368 145 t f f;
#X msg 368 167 1;
#X obj 369 193 /;
#X obj 303 233 *;
#X obj 254 131 t f f;
#X obj 264 204 -;
#X obj 253 177 i;
#X obj 254 152 bng 15 250 50 0 empty empty empty 0 -6 0 8 -262144 -1
-1;
#X floatatom 302 255 5 0 0 0 - - -;
#X text 364 253 volume (datarank);
#X text 101 131 freq (innocence);
#X floatatom 55 211 5 0 0 0 - - -;
#X obj 57 184 * 4;
#X floatatom 103 211 5 0 0 0 - - -;
#X obj 104 185 * 15;
#X obj 56 157 t f f f;
#X msg 150 184 200;
#X text 150 166 duration;
#X floatatom 151 210 5 0 0 0 - - -;
#X obj 223 295 pack f f f f;
#X obj 223 318 s do_bubble;
#X obj 57 107 get net_struct innocence datarank channel;
#X floatatom 360 296 5 0 0 0 - - -;
#N canvas 235 236 540 451 channel 0;
#X obj 38 40 inlet;
#X obj 39 202 phasor~;
#X obj 112 43 inlet;
#X obj 49 250 *~;
#X obj 112 191 line~;
#X obj 39 178 line~;
#X obj 188 43 inlet;
#X text 188 22 packet rate;
#X text 110 19 datarank;
#X text 37 18 channel;
#X obj 27 373 throw~ chan-1;
#X obj 68 348 throw~ chan-2;
#X obj 40 313 lp2~ 80 0.7 200;
#X obj 118 276 * 1;
#X obj 37 120 t f f;
#X obj 38 64 * 5;
#X obj 38 88 + 30;
#X obj 174 238 line;
#X obj 181 175 t f f;
#X msg 113 166 \$1 1000;
#X msg 209 208 1000;
#X msg 38 154 \$1 500;
#X obj 112 80 * 0.1;
#X connect 0 0 15 0;
#X connect 1 0 3 0;
#X connect 2 0 22 0;
#X connect 3 0 12 0;
#X connect 4 0 3 1;
#X connect 5 0 1 0;
#X connect 6 0 18 0;
#X connect 12 0 10 0;
#X connect 12 0 11 0;
#X connect 13 0 12 1;
#X connect 14 0 21 0;
#X connect 14 1 13 0;
#X connect 15 0 16 0;
#X connect 16 0 14 0;
#X connect 17 0 13 1;
#X connect 18 0 17 0;
#X connect 18 1 20 0;
#X connect 19 0 4 0;
#X connect 20 0 17 1;
#X connect 21 0 5 0;
#X connect 22 0 19 0;
#X restore 359 335 pd channel wave;
#X floatatom 459 206 5 0 0 0 - - -;
#X obj 369 122 OSCroute /networks /rate;
#X obj 102 62 r \$0-anet;
#X text 40 2 bang;
#X text 568 6 osc data;
#X text 368 82 get info data;
#X obj 465 177 r \$0-zero;
#X connect 0 0 2 0;
#X connect 2 0 27 0;
#X connect 3 0 21 0;
#X connect 4 0 31 0;
#X connect 5 0 8 1;
#X connect 5 0 12 1;
#X connect 6 0 7 0;
#X connect 6 1 5 0;
#X connect 7 0 8 0;
#X connect 8 0 9 1;
#X connect 9 0 14 0;
#X connect 10 0 13 0;
#X connect 10 1 11 1;
#X connect 11 0 9 0;
#X connect 12 0 11 0;
#X connect 13 0 12 0;
#X connect 14 0 25 3;
#X connect 14 0 29 1;
#X connect 17 0 25 0;
#X connect 18 0 17 0;
#X connect 19 0 25 1;
#X connect 20 0 19 0;
#X connect 21 0 18 0;
#X connect 21 1 20 0;
#X connect 21 2 22 0;
#X connect 22 0 24 0;
#X connect 24 0 25 2;
#X connect 25 0 26 0;
#X connect 27 0 3 0;
#X connect 27 1 10 0;
#X connect 27 2 28 0;
#X connect 28 0 29 0;
#X connect 30 0 29 2;
#X connect 31 0 6 0;
#X connect 31 1 30 0;
#X connect 32 0 2 1;
#X connect 36 0 30 0;
#X connect 36 0 28 0;
#X restore 99 306 pd packet;
#X text 70 175 set active pointer;
#X text 35 228 dissect network message;
#X floatatom 329 139 5 0 0 0 - - -;
#X obj 265 137 t f f f;
#X text 477 49 (re-)initialization;
#X obj 24 26 r net;
#X connect 0 0 23 0;
#X connect 0 1 3 0;
#X connect 3 0 13 0;
#X connect 4 0 24 0;
#X connect 4 1 24 1;
#X connect 6 0 8 0;
#X connect 6 0 18 0;
#X connect 6 0 20 0;
#X connect 7 0 8 0;
#X connect 7 0 18 0;
#X connect 7 0 20 0;
#X connect 9 0 10 1;
#X connect 9 0 14 1;
#X connect 11 0 12 0;
#X connect 12 0 28 0;
#X connect 13 0 14 0;
#X connect 13 1 11 0;
#X connect 14 0 15 0;
#X connect 18 0 17 0;
#X connect 20 0 19 0;
#X connect 21 0 11 1;
#X connect 21 0 27 0;
#X connect 23 0 22 0;
#X connect 23 1 4 0;
#X connect 23 2 22 1;
#X connect 28 0 10 0;
#X connect 28 1 11 1;
#X connect 28 2 27 0;
#X connect 30 0 0 0;
