#N struct net_struct float x float y float channel float innocence
float v float netnum float color float datarank;
#N canvas 103 22 902 660 10;
#X obj 29 -87 r net;
#X obj 30 -55 OSChead;
#X msg 705 261 clear;
#X obj 648 237 t b b;
#X obj 648 216 loadbang;
#N canvas 217 401 506 356 net_struct 0;
#X obj 55 127 filledpolygon -v v 553 0 2 -5 -5 -5 5 5 5 5 -5;
#X obj 53 59 struct net_struct float x float y float channel float
innocence float v float netnum float color float datarank;
#X restore 648 147 pd net_struct;
#X obj 627 217 bng 15 250 50 0 empty empty empty 0 -6 0 8 -262144 -1
-1;
#X msg 649 302 traverse pd-net_pool \, bang;
#N canvas 0 22 458 308 net_pool 0;
#X scalar net_struct 0 90 2 50 0 7 0 7 \;;
#X scalar net_struct 25 70 11 75 0 6 0 1 \;;
#X scalar net_struct 25 50 1 75 0 5 0 2 \;;
#X scalar net_struct 25 30 11 75 0 4 0 1 \;;
#X scalar net_struct 25 10 11 75 0 3 0 1 \;;
#X scalar net_struct 25 -10 1 75 0 2 0 2 \;;
#X scalar net_struct 25 -30 11 75 0 1 0 1 \;;
#X scalar net_struct 0 -50 2 50 0 0 0 7 \;;
#X coords -100 -100 100 100 200 200 1;
#X restore 649 -63 pd net_pool;
#X obj 705 282 s pd-net_pool;
#X obj 650 350 s \$0-npptr;
#X text 90 -60 get networks and create objects in net_pool if nessesary
;
#X obj 73 8 s \$0-activenetwork;
#X obj 348 476 r \$0-activenetwork;
#X obj 102 476 tgl 15 0 empty empty empty 0 -6 0 8 -262144 -1 -1 1
1;
#X obj 466 40 * 20;
#X obj 467 61 - 50;
#X obj 74 -33 change -1;
#X obj 155 92 OSCroute /bang;
#X obj 217 120 r \$0-activenetwork;
#X obj 172 146 pointer;
#X obj 155 120 t b b b;
#X floatatom 172 195 5 0 0 0 - - -;
#X obj 39 405 i;
#X obj 55 380 - 50;
#X obj 299 -40 r \$0-npptr;
#X obj 467 81 set net_struct y;
#X obj 466 20 get net_struct netnum;
#X obj 73 -13 fetchatindex pd-net_pool net_struct netnum;
#X obj 650 324 pointer;
#X obj 465 -6 t p p;
#X obj 465 -33 r \$0-initnewnet;
#X obj 264 9 s \$0-initnewnet;
#X obj 514 -11 bng 15 250 50 0 empty empty empty 0 -6 0 8 -262144 -1
-1;
#X obj 463 160 r info;
#X floatatom 491 226 5 0 0 0 - - -;
#X obj 463 203 t f f;
#X msg 463 225 1;
#X obj 464 251 /;
#X obj 418 291 *;
#X obj 399 189 t f f;
#X obj 409 262 -;
#X obj 398 235 i;
#X obj 399 210 bng 15 250 50 0 empty empty empty 0 -6 0 8 -262144 -1
-1;
#X floatatom 417 313 5 0 0 0 - - -;
#X text 459 311 volume (datarank);
#X text 216 189 freq (innocence);
#X floatatom 170 269 5 0 0 0 - - -;
#X obj 172 242 * 4;
#X floatatom 218 269 5 0 0 0 - - -;
#X obj 219 243 * 15;
#X obj 171 215 t f f f;
#X msg 265 242 200;
#X text 265 224 duration;
#X floatatom 266 268 5 0 0 0 - - -;
#X obj 338 353 pack f f f f;
#X obj 338 376 s do_bubble;
#X obj 172 165 get net_struct innocence datarank channel;
#X floatatom 455 354 5 0 0 0 - - -;
#X obj 54 355 OSCroute /innocence /datarank;
#X obj 39 499 set net_struct x v innocence datarank channel;
#N canvas 56 363 490 340 channel 0;
#X obj 38 40 inlet;
#X obj 38 88 + 220;
#X obj 38 64 * 50;
#X obj 39 162 phasor~;
#X obj 112 43 inlet;
#X obj 113 80 * 0.05;
#X obj 45 198 *~;
#X obj 112 151 line~;
#X msg 113 127 \$1 50;
#X obj 39 138 line~;
#X msg 38 114 \$1 100;
#X obj 208 33 inlet;
#X text 208 12 packet rate;
#X text 110 19 datarank;
#X text 37 18 channel;
#X obj 207 121 line~;
#X obj 43 234 *~;
#X obj 27 303 throw~ chan-1;
#X obj 68 278 throw~ chan-2;
#X msg 208 97 \$1 1000;
#X obj 209 67 * 0.5;
#X connect 0 0 2 0;
#X connect 1 0 10 0;
#X connect 2 0 1 0;
#X connect 3 0 6 0;
#X connect 4 0 5 0;
#X connect 5 0 8 0;
#X connect 6 0 16 0;
#X connect 7 0 6 1;
#X connect 8 0 7 0;
#X connect 9 0 3 0;
#X connect 10 0 9 0;
#X connect 11 0 20 0;
#X connect 15 0 16 1;
#X connect 16 0 17 0;
#X connect 16 0 18 0;
#X connect 19 0 15 0;
#X connect 20 0 19 0;
#X restore 454 393 pd channel wave;
#X floatatom 554 221 5 0 0 0 - - -;
#X obj 464 180 OSCroute /networks /rate;
#X obj 51 102 bng 15 250 50 0 empty empty empty 0 -6 0 8 -262144 -1
-1;
#X obj 29 63 OSCroute /bang /stat /packet /channel /type;
#X connect 0 0 1 0;
#X connect 1 0 65 0;
#X connect 1 1 17 0;
#X connect 2 0 9 0;
#X connect 3 0 7 0;
#X connect 3 1 2 0;
#X connect 4 0 3 0;
#X connect 6 0 3 0;
#X connect 7 0 29 0;
#X connect 13 0 60 5;
#X connect 14 0 60 1;
#X connect 15 0 16 0;
#X connect 16 0 26 0;
#X connect 17 0 28 0;
#X connect 18 0 21 0;
#X connect 19 0 20 1;
#X connect 20 0 57 0;
#X connect 21 0 20 0;
#X connect 22 0 51 0;
#X connect 23 0 60 0;
#X connect 24 0 23 1;
#X connect 25 0 28 1;
#X connect 27 0 15 0;
#X connect 28 0 12 0;
#X connect 28 1 32 0;
#X connect 29 0 10 0;
#X connect 30 0 27 0;
#X connect 30 1 26 1;
#X connect 30 1 33 0;
#X connect 31 0 30 0;
#X connect 34 0 63 0;
#X connect 35 0 38 1;
#X connect 35 0 42 1;
#X connect 36 0 37 0;
#X connect 36 1 35 0;
#X connect 37 0 38 0;
#X connect 38 0 39 1;
#X connect 39 0 44 0;
#X connect 40 0 43 0;
#X connect 40 1 41 1;
#X connect 41 0 39 0;
#X connect 42 0 41 0;
#X connect 43 0 42 0;
#X connect 44 0 55 3;
#X connect 44 0 61 1;
#X connect 47 0 55 0;
#X connect 48 0 47 0;
#X connect 49 0 55 1;
#X connect 50 0 49 0;
#X connect 51 0 48 0;
#X connect 51 1 50 0;
#X connect 51 2 52 0;
#X connect 52 0 54 0;
#X connect 54 0 55 2;
#X connect 55 0 56 0;
#X connect 57 0 22 0;
#X connect 57 1 40 0;
#X connect 57 2 58 0;
#X connect 58 0 61 0;
#X connect 59 0 24 0;
#X connect 59 0 60 2;
#X connect 59 1 60 3;
#X connect 62 0 61 2;
#X connect 63 0 36 0;
#X connect 63 1 62 0;
#X connect 65 0 23 0;
#X connect 65 0 64 0;
#X connect 65 1 59 0;
#X connect 65 2 18 0;
#X connect 65 3 60 4;
