#N canvas 654 557 321 179 10;
#X obj 14 12 r gps;
#X obj 15 48 OSCroute /lat /lon /alt /spd /heading;
#X floatatom 16 87 5 0 0 0 - - -;
#X floatatom 65 86 5 0 0 0 - - -;
#X floatatom 115 85 5 0 0 0 - - -;
#X floatatom 167 84 5 0 0 0 - - -;
#X floatatom 218 85 5 0 0 0 - - -;
#X text 5 113 latitude;
#X text 51 130 longitude;
#X text 105 113 altitude;
#X text 169 128 speed;
#X text 213 114 heading;
#X connect 0 0 1 0;
#X connect 1 0 2 0;
#X connect 1 1 3 0;
#X connect 1 2 4 0;
#X connect 1 3 5 0;
#X connect 1 4 6 0;
