#N canvas 617 381 383 269 10;
#X obj 14 12 r gps;
#X floatatom 16 137 5 0 0 0 - - -;
#X floatatom 65 136 5 0 0 0 - - -;
#X floatatom 115 135 5 0 0 0 - - -;
#X floatatom 167 134 5 0 0 0 - - -;
#X floatatom 218 135 5 0 0 0 - - -;
#X text 5 163 latitude;
#X text 51 180 longitude;
#X text 105 163 altitude;
#X text 169 178 speed;
#X text 213 164 heading;
#X obj 15 48 OSCroute /pos /spd /heading;
#X obj 20 91 unpack f f f;
#X connect 0 0 11 0;
#X connect 11 0 12 0;
#X connect 11 1 4 0;
#X connect 11 2 5 0;
#X connect 12 0 1 0;
#X connect 12 1 2 0;
#X connect 12 2 3 0;
