#N canvas 42 56 969 655 10;
#X obj 155 73 inlet;
#X obj 245 73 inlet;
#X obj 355 73 inlet;
#X obj 445 73 inlet;
#X text 154 49 a lat;
#X text 245 49 a lon;
#X text 354 49 b lat;
#X text 444 49 b lon;
#X obj 445 173 *;
#X text 690 313 orthodrome arc;
#X obj 275 351 t a a;
#X obj 14 477 outlet;
#X obj 303 444 outlet;
#X text 474 411 orthodrome length;
#X text 72 476 angle in radians;
#X floatatom 461 154 5 0 0 0 - - -;
#X floatatom 318 380 5 0 0 0 - - -;
#X floatatom 445 234 5 0 0 0 - - -;
#X floatatom 355 234 5 0 0 0 - - -;
#X obj 780 43 loadbang;
#X obj 445 193 / 360;
#X obj 355 173 *;
#X floatatom 371 154 5 0 0 0 - - -;
#X obj 355 193 / 360;
#X floatatom 245 234 5 0 0 0 - - -;
#X obj 245 173 *;
#X floatatom 261 154 5 0 0 0 - - -;
#X obj 245 193 / 360;
#X floatatom 155 234 5 0 0 0 - - -;
#X obj 155 173 *;
#X floatatom 171 154 5 0 0 0 - - -;
#X obj 155 193 / 360;
#X obj 155 253 t a a;
#X text 188 17 viewpoint;
#X text 384 17 location;
#X text 480 379 radius is first argument;
#X msg 780 73 6.28319;
#X obj 780 96 s \$0-twopi;
#X obj 462 133 r \$0-twopi;
#X obj 372 133 r \$0-twopi;
#X obj 262 133 r \$0-twopi;
#X obj 172 133 r \$0-twopi;
#X obj 565 113 -;
#X obj 565 173 *;
#X floatatom 581 154 5 0 0 0 - - -;
#X obj 565 193 / 360;
#X obj 582 133 r \$0-twopi;
#X floatatom 565 234 5 0 0 0 - - -;
#X obj 13 414 expr atan(cos($f1) * cos($f3) * sin($f5)/(sin($f3)-sin($f1)*
$f6));
#X obj 685 69 inlet;
#X text 683 26 radius;
#X obj 304 411 expr acos($f1) * $f2;
#X obj 276 307 expr sin($f1) * sin($f3) + cos($f1) * cos($f3) * cos($f5)
;
#X connect 0 0 29 0;
#X connect 1 0 25 0;
#X connect 1 0 42 0;
#X connect 2 0 21 0;
#X connect 3 0 8 0;
#X connect 3 0 42 1;
#X connect 8 0 20 0;
#X connect 10 0 48 5;
#X connect 10 1 16 0;
#X connect 10 1 51 0;
#X connect 15 0 8 1;
#X connect 19 0 36 0;
#X connect 20 0 17 0;
#X connect 20 0 48 3;
#X connect 20 0 52 3;
#X connect 21 0 23 0;
#X connect 22 0 21 1;
#X connect 23 0 18 0;
#X connect 23 0 48 2;
#X connect 23 0 52 2;
#X connect 24 0 48 1;
#X connect 24 0 52 1;
#X connect 25 0 27 0;
#X connect 26 0 25 1;
#X connect 27 0 24 0;
#X connect 28 0 32 0;
#X connect 29 0 31 0;
#X connect 30 0 29 1;
#X connect 31 0 28 0;
#X connect 32 0 48 0;
#X connect 32 1 52 0;
#X connect 36 0 37 0;
#X connect 38 0 15 0;
#X connect 39 0 22 0;
#X connect 40 0 26 0;
#X connect 41 0 30 0;
#X connect 42 0 43 0;
#X connect 43 0 45 0;
#X connect 44 0 43 1;
#X connect 45 0 47 0;
#X connect 45 0 48 4;
#X connect 45 0 52 4;
#X connect 46 0 44 0;
#X connect 48 0 11 0;
#X connect 49 0 51 1;
#X connect 51 0 12 0;
#X connect 52 0 10 0;
