#N canvas 228 22 639 548 10;
#X obj 72 73 inlet;
#X obj 72 101 unpack f f f f f;
#X obj 72 245 osc~;
#X obj 71 134 * 10;
#X floatatom 180 191 5 0 0 0 - - -;
#X floatatom 72 193 5 0 0 0 - - -;
#X obj 127 125 r reset;
#X msg 127 157 0;
#X obj 123 399 outlet~;
#X obj 181 286 line;
#X text 232 162 <- fix this. should be some sort of global;
#X obj 180 218 t f f;
#X floatatom 180 316 5 0 0 0 - - -;
#X obj 123 366 *~;
#X msg 182 247 0 100000;
#X obj 72 162 + 60;
#X obj 180 162 / 100;
#X connect 0 0 1 0;
#X connect 1 0 3 0;
#X connect 1 4 16 0;
#X connect 2 0 13 0;
#X connect 3 0 15 0;
#X connect 4 0 11 0;
#X connect 5 0 2 0;
#X connect 6 0 7 0;
#X connect 7 0 4 0;
#X connect 7 0 5 0;
#X connect 9 0 12 0;
#X connect 11 0 14 0;
#X connect 11 1 9 0;
#X connect 12 0 13 1;
#X connect 13 0 8 0;
#X connect 14 0 9 0;
#X connect 15 0 5 0;
#X connect 16 0 4 0;
