#N canvas 147 160 454 304 10;
#X obj 40 28 inlet;
#X obj 41 55 unpack f f;
#X obj 41 139 sqrt;
#X obj 40 83 pow 2;
#X obj 106 82 pow 2;
#X obj 40 112 +;
#X obj 41 166 outlet;
#X connect 0 0 1 0;
#X connect 1 0 3 0;
#X connect 1 1 4 0;
#X connect 2 0 6 0;
#X connect 3 0 5 0;
#X connect 4 0 5 1;
#X connect 5 0 2 0;
