#N canvas 157 309 454 304 10;
#X obj 25 69 inlet;
#X obj 25 102 unpack f f;
#X obj 205 75 r gps;
#X obj 205 104 OSCroute /heading;
#X obj 205 129 select 0;
#X floatatom 256 151 0 0 0 0 - - -;
#X obj 256 191 * 6.28319;
#X obj 256 171 / 360;
#X floatatom 256 211 0 0 0 0 - - -;
#X obj 256 231 s radians;
#X text 24 24 determine relative angle to network -- FIXME;
#X connect 0 0 1 0;
#X connect 2 0 3 0;
#X connect 3 0 4 0;
#X connect 4 1 5 0;
#X connect 5 0 7 0;
#X connect 6 0 8 0;
#X connect 7 0 6 0;
#X connect 8 0 9 0;
