#N canvas 254 22 649 690 10;
#X obj 225 38 inlet;
#X obj 84 71 OSCroute /lat /lon;
#X obj 140 373 -;
#X obj 192 375 -;
#X obj 140 583 outlet;
#X obj 140 554 pack f f;
#X obj 83 38 r gps;
#X obj 226 72 OSCroute /agglat /agglon /aggpoints;
#X obj 139 439 * -1;
#X obj 192 439 * -1;
#X obj 242 408 / 360;
#X obj 140 315 t a a;
#X obj 241 430 cos;
#X obj 191 466 *;
#X obj 119 234 spigot;
#X obj 385 110 sel 0;
#X obj 242 388 * 6.28319;
#X msg 416 133 1;
#X msg 385 133 0;
#X obj 207 267 /;
#X obj 251 268 /;
#X obj 428 109 r reset;
#X obj 485 249 outlet;
#X text 483 218 output aggpoints;
#X obj 190 492 * 111195;
#X obj 128 492 * 111195;
#X text 82 604 relative position y / x [m];
#X obj 324 556 pow 2;
#X obj 372 556 pow 2;
#X obj 325 584 +;
#X obj 325 608 sqrt;
#X obj 132 514 t f f;
#X obj 325 632 outlet;
#X text 324 651 distance [m];
#X connect 0 0 7 0;
#X connect 1 0 14 0;
#X connect 1 1 3 0;
#X connect 2 0 8 0;
#X connect 3 0 9 0;
#X connect 5 0 4 0;
#X connect 6 0 1 0;
#X connect 7 0 19 0;
#X connect 7 1 20 0;
#X connect 7 2 15 0;
#X connect 8 0 25 0;
#X connect 9 0 13 0;
#X connect 10 0 12 0;
#X connect 11 0 2 0;
#X connect 11 1 16 0;
#X connect 12 0 13 1;
#X connect 13 0 24 0;
#X connect 14 0 11 0;
#X connect 15 0 18 0;
#X connect 15 1 17 0;
#X connect 15 1 19 1;
#X connect 15 1 20 1;
#X connect 15 1 22 0;
#X connect 16 0 10 0;
#X connect 17 0 14 1;
#X connect 18 0 14 1;
#X connect 19 0 2 1;
#X connect 20 0 3 1;
#X connect 21 0 18 0;
#X connect 24 0 5 1;
#X connect 24 0 28 0;
#X connect 25 0 31 0;
#X connect 27 0 29 0;
#X connect 28 0 29 1;
#X connect 29 0 30 0;
#X connect 30 0 32 0;
#X connect 31 0 5 0;
#X connect 31 1 27 0;
