#N canvas 239 22 540 589 10;
#X obj 58 54 inlet;
#X obj -6 52 inlet;
#X obj 81 156 k2onetpos;
#X text -7 29 gps;
#X text 59 25 network;
#N canvas 247 327 490 340 gate 0;
#X obj 49 32 inlet;
#X obj 114 32 inlet;
#X obj 171 31 inlet;
#X obj 241 30 inlet;
#X obj 275 106 moses 500;
#X obj 179 221 gate;
#X obj 241 60 t a a;
#X obj 114 227 gate;
#X obj 45 217 gate;
#X obj 239 227 gate;
#X obj 323 33 inlet;
#X obj 240 256 outlet;
#X obj 178 262 outlet;
#X obj 116 260 outlet;
#X obj 43 268 outlet;
#X obj 319 256 outlet;
#X msg 333 126 0;
#X msg 276 127 1;
#X connect 0 0 8 1;
#X connect 1 0 7 1;
#X connect 2 0 5 1;
#X connect 3 0 6 0;
#X connect 4 0 17 0;
#X connect 4 1 16 0;
#X connect 5 0 12 0;
#X connect 6 0 9 1;
#X connect 6 1 4 0;
#X connect 7 0 13 0;
#X connect 8 0 14 0;
#X connect 9 0 11 0;
#X connect 10 0 4 1;
#X connect 16 0 15 0;
#X connect 16 0 8 0;
#X connect 16 0 7 0;
#X connect 16 0 5 0;
#X connect 16 0 9 0;
#X connect 17 0 15 0;
#X connect 17 0 8 0;
#X connect 17 0 7 0;
#X connect 17 0 5 0;
#X connect 17 0 9 0;
#X restore 87 217 pd gate;
#X obj 383 47 loadbang;
#X obj 170 169 r maxdist;
#X obj 57 79 OSCroute /channel;
#X obj 41 415 osc~;
#X obj 41 364 * 10;
#X obj 40 388 + 60;
#X obj 40 468 *~;
#X obj 30 514 outlet~;
#X obj 33 335 gate;
#X obj 123 414 /;
#X obj 89 514 outlet~;
#X floatatom 171 196 5 0 0 0 - - -;
#X floatatom 122 440 5 0 0 0 - - -;
#X floatatom 124 389 5 0 0 0 - - -;
#X obj 213 336 bng 15 250 50 0 empty empty empty 0 -6 0 8 -262144 -1
-1;
#X obj 235 336 print d1;
#X msg 382 71 \; maxdist 500 \;;
#X obj 284 247 switch;
#X obj 279 212 select;
#X connect 0 0 8 0;
#X connect 1 0 2 0;
#X connect 2 0 5 0;
#X connect 2 1 5 1;
#X connect 2 2 5 2;
#X connect 2 3 5 3;
#X connect 2 3 21 0;
#X connect 5 3 19 0;
#X connect 5 3 20 0;
#X connect 5 3 14 0;
#X connect 6 0 22 0;
#X connect 7 0 17 0;
#X connect 8 0 14 1;
#X connect 8 1 2 1;
#X connect 9 0 12 0;
#X connect 10 0 11 0;
#X connect 11 0 9 0;
#X connect 12 0 13 0;
#X connect 12 0 16 0;
#X connect 14 0 10 0;
#X connect 15 0 18 0;
#X connect 17 0 5 4;
#X connect 17 0 15 1;
#X connect 18 0 12 1;
#X connect 19 0 15 0;
