#N canvas 14 211 697 508 10;
#X obj 398 207 bng 15 250 50 0 empty empty empty 0 -6 0 8 -262144 -1
-1;
#X obj 372 249 route 0 1;
#X obj 260 287 line;
#X obj 185 287 phasor~;
#X floatatom 186 266 5 0 0 0 - - -;
#X obj 186 119 vsl 15 128 0 127 0 0 empty empty empty 0 -8 0 8 -262144
-1 -1 12700 1;
#X obj 185 334 *~;
#X obj 230 170 bng 15 250 50 0 empty empty empty 0 -6 0 8 -262144 -1
-1;
#X obj 231 205 t b b;
#X msg 231 233 0 500;
#X obj 373 288 s weakp;
#X obj 400 324 s nweakp;
#X obj 230 140 r weakp;
#X obj 371 179 OSCroute /encrypted /subtype;
#X obj 467 215 * 2;
#X obj 467 275 s psubtype;
#X obj 186 71 r psubtype;
#X obj 370 133 inlet;
#X obj 185 382 outlet~;
#X obj 467 244 + 440;
#X msg 260 264 0.5;
#X connect 1 0 10 0;
#X connect 1 1 11 0;
#X connect 2 0 6 1;
#X connect 3 0 6 0;
#X connect 4 0 3 0;
#X connect 5 0 4 0;
#X connect 6 0 18 0;
#X connect 7 0 8 0;
#X connect 8 0 9 0;
#X connect 8 1 20 0;
#X connect 9 0 2 0;
#X connect 12 0 7 0;
#X connect 13 0 0 0;
#X connect 13 0 1 0;
#X connect 13 1 14 0;
#X connect 14 0 19 0;
#X connect 16 0 5 0;
#X connect 17 0 13 0;
#X connect 19 0 15 0;
#X connect 20 0 2 0;
