#N canvas 268 63 589 449 10;
#X obj 28 38 r net;
#X obj 28 12 k2o;
#X obj 27 68 OSCroute /0 /1 /2 /3 /4 /5 /6 /7 /8 /9 /10 /11 /12 /13
/14 /15;
#X obj 408 38 r gps;
#X obj 148 395 dac~;
#X obj 117 216 k2onet3d;
#X obj 27 116 k2onet3d;
#X obj 47 136 k2onet3d;
#X obj 67 156 k2onet3d;
#X obj 87 176 k2onet3d;
#X obj 97 196 k2onet3d;
#X obj 137 236 k2onet3d;
#X obj 157 256 k2onet3d;
#X obj 227 116 k2onet3d;
#X obj 247 136 k2onet3d;
#X obj 267 156 k2onet3d;
#X obj 287 176 k2onet3d;
#X obj 297 196 k2onet3d;
#X obj 317 216 k2onet3d;
#X obj 337 236 k2onet3d;
#X obj 357 256 k2onet3d;
#X connect 0 0 2 0;
#X connect 2 0 6 0;
#X connect 2 1 7 0;
#X connect 2 2 8 0;
#X connect 2 3 9 0;
#X connect 2 4 10 0;
#X connect 2 5 5 0;
#X connect 2 6 11 0;
#X connect 2 7 12 0;
#X connect 2 8 13 0;
#X connect 2 9 14 0;
#X connect 2 10 15 0;
#X connect 2 11 16 0;
#X connect 2 12 17 0;
#X connect 2 13 18 0;
#X connect 2 14 19 0;
#X connect 2 15 20 0;
#X connect 3 0 5 1;
#X connect 3 0 6 1;
#X connect 3 0 7 1;
#X connect 3 0 8 1;
#X connect 3 0 9 1;
#X connect 3 0 10 1;
#X connect 3 0 11 1;
#X connect 3 0 12 1;
#X connect 3 0 13 1;
#X connect 3 0 14 1;
#X connect 3 0 15 1;
#X connect 3 0 16 1;
#X connect 3 0 17 1;
#X connect 3 0 18 1;
#X connect 3 0 19 1;
#X connect 3 0 20 1;
#X connect 5 0 4 0;
#X connect 5 1 4 1;
#X connect 6 0 4 0;
#X connect 6 1 4 1;
#X connect 7 0 4 0;
#X connect 7 1 4 1;
#X connect 8 0 4 0;
#X connect 8 1 4 1;
#X connect 9 0 4 0;
#X connect 9 1 4 1;
#X connect 10 0 4 0;
#X connect 10 1 4 1;
#X connect 11 0 4 0;
#X connect 11 1 4 1;
#X connect 12 0 4 0;
#X connect 12 1 4 1;
#X connect 13 0 4 0;
#X connect 13 1 4 1;
#X connect 14 0 4 0;
#X connect 14 1 4 1;
#X connect 15 0 4 0;
#X connect 15 1 4 1;
#X connect 16 0 4 0;
#X connect 16 1 4 1;
#X connect 17 0 4 0;
#X connect 17 1 4 1;
#X connect 18 0 4 0;
#X connect 18 1 4 1;
#X connect 19 0 4 0;
#X connect 19 1 4 1;
#X connect 20 0 4 0;
#X connect 20 1 4 1;
