#N canvas 2 423 713 296 10;
#X obj 60 15 r net;
#X obj 60 58 OSCroute /0 /1 /2 /3 /4 /5 /6 /7 /8 /9 /10;
#X floatatom 58 150 5 0 0 0 - - -;
#X floatatom 58 174 5 0 0 0 - - -;
#X floatatom 58 199 5 0 0 0 - - -;
#X floatatom 111 149 5 0 0 0 - - -;
#X floatatom 111 173 5 0 0 0 - - -;
#X floatatom 111 198 5 0 0 0 - - -;
#X floatatom 170 149 5 0 0 0 - - -;
#X floatatom 170 173 5 0 0 0 - - -;
#X floatatom 170 198 5 0 0 0 - - -;
#X floatatom 236 148 5 0 0 0 - - -;
#X floatatom 236 172 5 0 0 0 - - -;
#X floatatom 236 197 5 0 0 0 - - -;
#X text 58 240 max;
#X text 112 238 min;
#X text 171 238 agg;
#X text 237 238 best;
#X obj 60 96 OSCroute /maxlat /maxlon /maxalt /minlat /minlon /minalt
/agglat /agglon /aggalt /aggpoints /bestlat /bestlon /bestalt;
#X floatatom 171 219 5 0 0 0 - - -;
#X obj 440 182 select 0;
#X text 508 182 filter 0 heading;
#X connect 0 0 1 0;
#X connect 1 0 18 0;
#X connect 18 0 2 0;
#X connect 18 1 3 0;
#X connect 18 2 4 0;
#X connect 18 3 5 0;
#X connect 18 4 6 0;
#X connect 18 5 7 0;
#X connect 18 6 8 0;
#X connect 18 7 9 0;
#X connect 18 8 10 0;
#X connect 18 9 19 0;
#X connect 18 10 11 0;
#X connect 18 11 12 0;
#X connect 18 12 13 0;
