#N canvas 149 48 668 617 10;
#X obj 48 140 s2l /;
#X msg 48 310 \$1;
#X obj 48 100 niagara 1;
#X obj 48 120 symbol;
#X obj 48 160 niagara 1;
#X obj 135 240 l2s /;
#X obj 135 260 makefilename /%s;
#X obj 48 340 outlet;
#X obj 105 340 outlet;
#X obj 48 70 inlet;
#X obj 105 190 t a a;
#X obj 105 210 bng 15 250 50 0 empty empty empty 0 -6 0 8 -262144 -1
-1;
#X text 49 29 OSChead devides the first path component from the rest
of the OSC message;
#X obj 105 290 prepend;
#X obj 105 311 prepend;
#X connect 0 0 4 0;
#X connect 1 0 7 0;
#X connect 2 0 3 0;
#X connect 2 1 13 1;
#X connect 3 0 0 0;
#X connect 4 0 1 0;
#X connect 4 1 10 0;
#X connect 5 0 6 0;
#X connect 6 0 14 1;
#X connect 9 0 2 0;
#X connect 10 0 11 0;
#X connect 10 1 5 0;
#X connect 11 0 13 0;
#X connect 13 0 14 0;
#X connect 14 0 8 0;
