#N canvas 58 29 501 551 10;
#X text 24 378 ~signal_in~;
#X text 49 46 dsp ON/OFF;
#X floatatom 101 294 3 15 133 0 - - -;
#X obj 101 313 mtof;
#X floatatom 101 332 9 0 22000 0 - - -;
#X text 165 333 Hz;
#X text 79 407 ~signal_out~;
#X floatatom 140 276 9 0 22000 0 - - -;
#X text 204 277 Hz;
#X floatatom 73 161 3 15 133 0 - - -;
#X floatatom 32 86 5 0 0 0 - - -;
#X text 74 86 % cpu;
#X floatatom 170 373 5 2 9999 0 - - -;
#X obj 32 66 dsp;
#X floatatom 135 355 4 0.01 1000 0 - - -;
#X text 170 355 Q;
#X text 101 477 2.arg:<float> Q [-];
#X text 101 487 3.arg:<float> interpolation_time [ms];
#X obj 32 46 tgl 15 0 empty empty empty 8 -8 0 10 -262144 -1 -1 0 1
;
#X obj 52 469 dac~;
#X obj 102 127 init 69;
#X text 100 162 midi;
#X obj 67 393 lp2~ 440 0.707 200;
#X text 101 467 1.arg:<float> cutoff_freq. [Hz];
#X text 58 65 performance: 0.22 % at 400 MHz-Pentium \, sr=44100;
#X obj 26 16 cnv 8 1 1 empty empty lp2~ 1 2 1 18 -262144 -1109 0;
#X text 96 9 lowpass 2.order;
#N canvas 529 296 470 320 tone 0;
#X obj 25 58 inlet;
#X obj 25 114 mtof;
#X obj 25 142 pack 440 100;
#X obj 25 163 line~;
#X obj 25 206 outlet~;
#X obj 100 210 outlet;
#X obj 92 57 inlet;
#X obj 92 83 init \$1;
#X obj 92 102 split 20;
#X text 8 10 testtone~;
#X text 28 40 midi;
#X text 93 40 interpol-time;
#X text 17 223 sig-cosine;
#X text 96 225 frequency;
#X text 95 169 1.arg: <float> interpol-;
#X text 164 179 time in ms;
#X obj 25 84 init 69;
#X obj 25 185 phasor~;
#X connect 0 0 16 0;
#X connect 1 0 2 0;
#X connect 1 0 5 0;
#X connect 2 0 3 0;
#X connect 3 0 17 0;
#X connect 6 0 7 0;
#X connect 7 0 8 0;
#X connect 8 1 2 1;
#X connect 16 0 1 0;
#X connect 17 0 4 0;
#X restore 76 192 pd tone;
#X connect 2 0 3 0;
#X connect 3 0 4 0;
#X connect 4 0 22 1;
#X connect 9 0 27 0;
#X connect 12 0 22 3;
#X connect 13 0 10 0;
#X connect 14 0 22 2;
#X connect 18 0 13 0;
#X connect 20 0 9 0;
#X connect 22 0 19 0;
#X connect 22 0 19 1;
#X connect 27 0 22 0;
#X connect 27 1 7 0;
