#N canvas 33 105 991 633 10;
#X obj 105 40 inlet;
#X obj 508 52 inlet;
#X obj 527 144 s \$0-fadedur;
#X obj 546 80 i \$1;
#X obj 546 99 s \$0-vnum;
#X text 494 13 loadbang setup defaults;
#X obj 213 489 change 0;
#X obj 484 193 s \$0-basevol;
#X obj 120 621 outlet;
#X text 126 604 done!;
#X text 516 173 base volume (required by mixer);
#X text 559 124 fade duration (required by mixer);
#X text 586 80 voice number (required by mixer);
#X obj 430 587 change 0;
#X obj 431 609 switch~;
#X msg 149 572 0;
#X obj 120 550 t b b;
#X text 425 628 toggle audio for this window;
#X msg 410 80 1;
#N canvas 49 77 975 499 voice 1;
#X obj 400 290 *~;
#X obj 461 289 *~;
#X obj 600 140 line~;
#X obj 600 117 pack f f;
#X obj 527 40 r \$0-fadedur;
#X obj 538 140 line~;
#X obj 538 117 pack f f;
#X obj 275 290 *~;
#X obj 336 289 *~;
#X obj 475 140 line~;
#X obj 475 117 pack f f;
#X obj 413 140 line~;
#X obj 413 117 pack f f;
#X obj 150 290 *~;
#X obj 211 289 *~;
#X obj 350 140 line~;
#X obj 350 117 pack f f;
#X obj 288 140 line~;
#X obj 288 117 pack f f;
#X obj 25 290 *~;
#X obj 86 289 *~;
#X obj 225 140 line~;
#X obj 225 117 pack f f;
#X obj 163 140 line~;
#X obj 163 117 pack f f;
#X obj 24 333 throw~ \$4-1;
#X obj 83 355 throw~ \$4-2;
#X obj 152 335 throw~ \$4-3;
#X obj 211 358 throw~ \$4-4;
#X obj 275 333 throw~ \$4-5;
#X obj 334 356 throw~ \$4-6;
#X obj 398 332 throw~ \$4-7;
#X obj 461 354 throw~ \$4-8;
#X obj 714 146 outlet;
#X text 713 163 done!;
#X obj 821 166 switch~;
#X obj 715 56 route 0 1;
#X msg 830 135 1;
#X msg 771 135 0;
#X text 686 -12 swtich audio processing on / off;
#X obj 718 97 t b b;
#X obj 290 43 route 0 1 2 3 4 5 6 7;
#X obj 714 13 inlet;
#X obj 344 -1 vbap 0 0;
#X obj 342 -53 inlet;
#X obj 394 -53 inlet;
#X obj 279 -52 r lsp;
#X obj 45 124 inlet~;
#X obj 342 -28 t b f;
#X connect 0 0 31 0;
#X connect 1 0 32 0;
#X connect 2 0 1 1;
#X connect 3 0 2 0;
#X connect 4 0 3 1;
#X connect 4 0 6 1;
#X connect 4 0 10 1;
#X connect 4 0 12 1;
#X connect 4 0 16 1;
#X connect 4 0 18 1;
#X connect 4 0 22 1;
#X connect 4 0 24 1;
#X connect 5 0 0 1;
#X connect 6 0 5 0;
#X connect 7 0 29 0;
#X connect 8 0 30 0;
#X connect 9 0 8 1;
#X connect 10 0 9 0;
#X connect 11 0 7 1;
#X connect 12 0 11 0;
#X connect 13 0 27 0;
#X connect 14 0 28 0;
#X connect 15 0 14 1;
#X connect 16 0 15 0;
#X connect 17 0 13 1;
#X connect 18 0 17 0;
#X connect 19 0 25 0;
#X connect 20 0 26 0;
#X connect 21 0 20 1;
#X connect 22 0 21 0;
#X connect 23 0 19 1;
#X connect 24 0 23 0;
#X connect 36 0 40 0;
#X connect 36 1 37 0;
#X connect 37 0 35 0;
#X connect 38 0 35 0;
#X connect 40 0 33 0;
#X connect 40 1 38 0;
#X connect 41 0 24 0;
#X connect 41 1 22 0;
#X connect 41 2 18 0;
#X connect 41 3 16 0;
#X connect 41 4 12 0;
#X connect 41 5 10 0;
#X connect 41 6 6 0;
#X connect 41 7 3 0;
#X connect 42 0 36 0;
#X connect 43 0 41 0;
#X connect 44 0 48 0;
#X connect 45 0 43 3;
#X connect 46 0 43 0;
#X connect 47 0 19 0;
#X connect 47 0 20 0;
#X connect 47 0 13 0;
#X connect 47 0 14 0;
#X connect 47 0 7 0;
#X connect 47 0 8 0;
#X connect 47 0 0 0;
#X connect 47 0 1 0;
#X connect 48 0 43 0;
#X connect 48 1 43 1;
#X restore 120 524 pd voice mixer;
#X text 185 506 turn mixer on/off;
#X msg 527 124 20;
#X text 462 259 table (symbol) \, tablesize \, pos (0..1) \, pos rand
\, grainsize (ms) \, grain rand \, midi note \, note rand \, amplitude
(0..1) \, amp rand \, envelope table (symbol);
#X msg 249 449 0;
#X msg 484 171 1;
#X text 64 90 input: tablename \, tablesize \, networkpointer \, envelope
;
#X obj 150 464 * -57.2958;
#X obj 182 488 * 2;
#X obj 104 65 t p b;
#X obj 59 493 *~;
#X obj 61 453 osc~;
#X obj 33 167 get net_struct channel datarank innocence angle dist
;
#X obj 112 405 line~;
#X obj 249 422 delay 5000;
#X msg 114 381 0 5000;
#X obj 61 321 * 100;
#X obj 61 343 + 1000;
#X msg 183 356 \$1 500;
#X obj 112 355 delay 500;
#X obj 116 327 t b f;
#X msg 249 296 set \$1;
#X obj 34 207 t b f;
#X obj 61 431 +;
#X obj 229 324 drunk 40 2;
#X obj 331 295 metro 100;
#X obj 213 214 t f b;
#X msg 250 253 0;
#X obj 52 396 t b f;
#X obj 121 238 expr 1^-$f1;
#X obj 121 259 * 0.01;
#X connect 0 0 28 0;
#X connect 1 0 21 0;
#X connect 1 0 3 0;
#X connect 1 0 24 0;
#X connect 3 0 4 0;
#X connect 6 0 19 3;
#X connect 6 0 44 0;
#X connect 13 0 14 0;
#X connect 15 0 13 0;
#X connect 16 0 8 0;
#X connect 16 1 15 0;
#X connect 18 0 13 0;
#X connect 18 0 6 0;
#X connect 19 0 16 0;
#X connect 21 0 2 0;
#X connect 23 0 6 0;
#X connect 24 0 7 0;
#X connect 26 0 19 1;
#X connect 27 0 19 2;
#X connect 28 0 31 0;
#X connect 28 1 18 0;
#X connect 29 0 19 0;
#X connect 30 0 29 0;
#X connect 31 0 41 0;
#X connect 31 1 48 0;
#X connect 31 2 45 0;
#X connect 31 3 26 0;
#X connect 31 4 27 0;
#X connect 32 0 29 1;
#X connect 33 0 23 0;
#X connect 34 0 32 0;
#X connect 35 0 36 0;
#X connect 36 0 42 0;
#X connect 37 0 32 0;
#X connect 38 0 34 0;
#X connect 39 0 38 0;
#X connect 39 1 37 0;
#X connect 40 0 43 0;
#X connect 41 0 33 0;
#X connect 41 1 35 0;
#X connect 42 0 30 0;
#X connect 43 0 47 0;
#X connect 44 0 43 0;
#X connect 45 0 43 0;
#X connect 45 1 46 0;
#X connect 46 0 40 0;
#X connect 47 0 42 0;
#X connect 47 1 42 1;
#X connect 48 0 49 0;
#X connect 49 0 39 0;
