#N struct net_array float x float y array netwks net_struct;
#N struct net_struct float x float y float angle float dist float channel
float innocence float v float netnum float color float datarank float
net_index;
#N canvas 29 25 928 596 10;
#N canvas 0 177 991 565 network 0;
#X obj 25 58 OSChead;
#N canvas 445 392 530 380 net_struct 0;
#X obj 53 59 struct net_struct float x float y float angle float dist
float channel float innocence float v float netnum float color float
datarank float net_index;
#X obj 55 127 filledpolygon 553 0 1 -1 -1 -1 1 1 1 1 -1;
#X restore 644 253 pd net_struct;
#N canvas 0 22 458 308 net_pool 0;
#X scalar net_array 0 0 \; 0 0 0 0 0 0 0 0 0 0 0 \; \;;
#X coords -20 -20 20 20 200 200 1;
#X restore 644 50 pd net_pool;
#X obj 69 110 change -1;
#X obj 98 275 OSCroute /bang;
#N canvas 0 22 510 360 net_array 0;
#X obj 47 45 struct net_array float x float y array netwks net_struct
;
#X obj 47 95 plot netwks 0 0 0 0;
#X restore 644 272 pd net_array;
#N canvas 0 22 483 373 net_pool_setup 0;
#X obj 29 25 inlet;
#X msg 87 76 clear;
#X obj 30 52 t b b;
#X msg 31 117 traverse pd-net_pool \, bang;
#X obj 87 97 s pd-net_pool;
#X obj 31 280 s \$0-npoolptr;
#X msg 85 199 0;
#X msg 57 202 0;
#X obj 57 256 s \$0-narrayptr;
#X obj 56 230 append net_array x y;
#X obj 30 147 pointer;
#X obj 32 175 t p b b p;
#X connect 0 0 2 0;
#X connect 1 0 4 0;
#X connect 2 0 3 0;
#X connect 2 1 1 0;
#X connect 3 0 10 0;
#X connect 6 0 9 1;
#X connect 7 0 9 0;
#X connect 9 0 8 0;
#X connect 10 0 11 0;
#X connect 11 0 5 0;
#X connect 11 1 7 0;
#X connect 11 2 6 0;
#X connect 11 3 9 2;
#X restore 485 51 pd net_pool_setup;
#X obj 345 97 r \$0-narrayptr;
#X obj 265 157 setsize net_array netwks;
#X obj 265 97 max;
#X obj 265 117 change 0;
#X obj 69 135 t f f;
#X obj 69 156 element net_array netwks;
#X obj 69 177 s \$0-anet;
#X text 85 53 get networks and resize array if nessesary;
#X obj 315 77 r \$0-zero;
#N canvas 163 22 824 486 storenet 0;
#X obj 51 64 inlet;
#X obj 115 60 inlet;
#X text 50 33 bang;
#X text 119 34 osc input;
#X obj 196 168 OSCroute /innocence /datarank;
#X obj 472 252 r \$0-anet;
#X obj 265 248 r \$0-one;
#X obj 69 200 f;
#N canvas 129 294 562 428 normlz 0;
#X obj 43 60 inlet;
#X obj 92 59 inlet;
#X obj 53 207 outlet;
#X obj 92 90 t f f;
#X msg 92 112 1;
#X obj 93 138 /;
#X obj 53 180 *;
#X connect 0 0 6 0;
#X connect 1 0 3 0;
#X connect 3 0 4 0;
#X connect 3 1 5 1;
#X connect 4 0 5 0;
#X connect 5 0 6 1;
#X connect 6 0 2 0;
#X restore 329 220 pd normlz;
#X obj 447 70 r info;
#X text 447 50 get info data;
#X obj 90 170 unpack f f f f;
#X obj 46 362 s do_net;
#X obj 46 172 t b b;
#X obj 45 339 pointer;
#X obj 87 320 r \$0-anet;
#X floatatom 324 344 5 0 0 0 - - -;
#X obj 630 276 s \$0-chanwave;
#X obj 662 201 t b f;
#X obj 630 256 pack f f f;
#X obj 118 122 OSCroute /localpos /stat /channel /net_index;
#X obj 73 287 set net_struct x y angle dist v innocence datarank channel
net_index;
#X obj 448 90 OSCroute /networks /rate;
#X text 123 139 pos;
#X text 200 141 stat;
#X text 277 139 chan;
#X text 356 139 idx;
#X connect 0 0 13 0;
#X connect 1 0 20 0;
#X connect 4 0 21 5;
#X connect 4 1 8 0;
#X connect 4 1 19 1;
#X connect 5 0 21 9;
#X connect 6 0 21 4;
#X connect 7 0 21 0;
#X connect 8 0 16 0;
#X connect 8 0 21 6;
#X connect 9 0 22 0;
#X connect 11 0 7 1;
#X connect 11 1 21 1;
#X connect 11 2 21 2;
#X connect 11 3 21 3;
#X connect 13 0 14 0;
#X connect 13 1 7 0;
#X connect 14 0 12 0;
#X connect 15 0 14 1;
#X connect 18 0 19 0;
#X connect 18 1 19 2;
#X connect 19 0 17 0;
#X connect 20 0 11 0;
#X connect 20 1 4 0;
#X connect 20 2 19 0;
#X connect 20 2 21 7;
#X connect 20 3 21 8;
#X connect 22 0 8 1;
#X connect 22 1 18 0;
#X restore 25 381 pd storenet;
#N canvas 163 22 733 343 packet 0;
#X obj 66 29 inlet;
#X obj 124 30 inlet;
#X text 68 11 bang;
#X text 124 10 osc data;
#X obj 290 203 prepend symbol;
#X obj 134 206 prepend symbol;
#X obj 153 284 s \$0-netpack;
#X obj 125 73 OSCroute /sourcemac /destmac /type /subtype /encrypted
/weak;
#X obj 112 230 pack 1 s f f f f;
#X obj 269 230 pack 1 s f f f f;
#X connect 0 0 8 0;
#X connect 0 0 9 0;
#X connect 1 0 7 0;
#X connect 4 0 9 1;
#X connect 5 0 8 1;
#X connect 7 0 5 0;
#X connect 7 1 4 0;
#X connect 7 2 8 2;
#X connect 7 2 9 2;
#X connect 7 3 8 3;
#X connect 7 3 9 3;
#X connect 7 4 8 4;
#X connect 7 4 9 4;
#X connect 7 5 8 5;
#X connect 7 5 9 5;
#X connect 8 0 6 0;
#X connect 9 0 6 0;
#X restore 99 306 pd packet;
#X text 70 195 set active pointer;
#X text 35 228 dissect network message;
#X floatatom 329 139 5 0 0 0 - - -;
#X obj 265 137 t f f f;
#X obj 24 29 inlet;
#X obj 485 30 inlet;
#X obj 265 77 + 1;
#X obj 220 408 s \$0-netcli;
#X obj 24 246 OSCroute /bang /packet /client;
#X obj 220 381 OSChead;
#X connect 0 0 26 0;
#X connect 0 1 3 0;
#X connect 3 0 11 0;
#X connect 4 0 17 0;
#X connect 4 1 17 1;
#X connect 7 0 8 1;
#X connect 7 0 12 1;
#X connect 9 0 10 0;
#X connect 10 0 21 0;
#X connect 11 0 12 0;
#X connect 11 1 24 0;
#X connect 12 0 13 0;
#X connect 15 0 9 1;
#X connect 15 0 20 0;
#X connect 21 0 8 0;
#X connect 21 1 9 1;
#X connect 21 2 20 0;
#X connect 22 0 0 0;
#X connect 23 0 6 0;
#X connect 24 0 9 0;
#X connect 26 0 16 0;
#X connect 26 1 4 0;
#X connect 26 2 27 0;
#X connect 26 3 16 1;
#X connect 27 0 25 0;
#X restore 27 150 pd network;
#X text 22 103 data dissection;
#X text 26 20 control i/o;
#X text 625 26 (re-)initialization;
#X obj 655 52 loadbang;
#X obj 637 53 bng 15 250 50 0 empty empty empty 0 -6 0 8 -262144 -1
-1;
#X obj 671 124 s \$0-zero;
#X msg 670 102 0;
#X obj 604 126 s \$0-one;
#X msg 631 104 1;
#X obj 577 104 s \$0-lb;
#X obj 90 128 r \$0-lb;
#X obj 26 125 r net;
#N canvas 203 22 626 276 k2o-oscin 0;
#X obj 8 -170 OSCroute /kismet;
#X obj 9 -109 s net;
#X obj 66 -112 s cli;
#X obj 124 -113 s gps;
#X obj 180 -113 s info;
#X obj 242 -113 s card;
#X obj 297 -112 s packet;
#X text 4 -234 receive k2o-osc messages and route them internally;
#X obj 9 -144 OSCroute /network /client /gps /info /card /packet /time
;
#X obj 364 -112 OSCroute /timesec;
#X obj 364 -82 s timesec;
#X obj 8 -197 dumpOSC 12345;
#X connect 0 0 8 0;
#X connect 8 0 1 0;
#X connect 8 1 2 0;
#X connect 8 2 3 0;
#X connect 8 3 4 0;
#X connect 8 4 5 0;
#X connect 8 5 6 0;
#X connect 8 6 9 0;
#X connect 9 0 10 0;
#X connect 11 0 0 0;
#X restore 27 40 pd k2o-oscin;
#X text 34 508 mix + output;
#N canvas 247 22 691 562 multi 0;
#X obj 115 100 catch~ chan-1;
#X obj 237 151 dac~ 1 2 3 4 5 6 7 8;
#X obj 157 79 catch~ chan-2;
#X obj 219 57 catch~ chan-3;
#X obj 279 38 catch~ chan-4;
#X obj 381 38 catch~ chan-5;
#X obj 482 39 catch~ chan-6;
#X obj 548 61 catch~ chan-7;
#X obj 597 83 catch~ chan-8;
#X text 127 29 output;
#N canvas 0 22 980 463 s__c__o__p__e__s 0;
#X obj 193 43 inlet~;
#X obj 255 43 inlet~;
#X obj 309 44 inlet~;
#X obj 371 47 inlet~;
#X obj 425 47 inlet~;
#X obj 486 50 inlet~;
#X obj 542 46 inlet~;
#X obj 603 47 inlet~;
#N canvas 0 22 450 300 graph4 0;
#X array c1 440 float 0;
#X coords 0 1 439 -1 100 140 1;
#X restore 46 208 graph;
#N canvas 0 22 450 300 graph7 0;
#X array c2 440 float 2;
#X coords 0 1 440 -1 100 140 1;
#X restore 148 208 graph;
#N canvas 0 22 450 300 graph8 0;
#X array c3 440 float 2;
#X coords 0 1 440 -1 100 140 1;
#X restore 250 208 graph;
#N canvas 0 22 450 300 graph9 0;
#X array c4 440 float 2;
#X coords 0 1 440 -1 100 140 1;
#X restore 352 208 graph;
#N canvas 0 22 450 300 graph10 0;
#X array c5 440 float 2;
#X coords 0 1 440 -1 100 140 1;
#X restore 454 208 graph;
#N canvas 0 22 450 300 graph11 0;
#X array c6 440 float 2;
#X coords 0 1 440 -1 100 140 1;
#X restore 556 208 graph;
#N canvas 0 22 450 300 graph12 0;
#X array c7 440 float 2;
#X coords 0 1 440 -1 100 140 1;
#X restore 658 208 graph;
#N canvas 0 22 450 300 graph12 0;
#X array c8 440 float 2;
#X coords 0 1 440 -1 100 140 1;
#X restore 760 208 graph;
#X obj 191 143 tabwrite~ c1;
#X obj 254 165 tabwrite~ c2;
#X obj 308 143 tabwrite~ c3;
#X obj 372 168 tabwrite~ c4;
#X obj 424 141 tabwrite~ c5;
#X obj 488 166 tabwrite~ c6;
#X obj 543 141 tabwrite~ c7;
#X obj 602 165 tabwrite~ c8;
#X obj 109 45 metro 100;
#X obj 78 45 tgl 15 0 empty empty empty 0 -6 0 8 -262144 -1 -1 0 1
;
#X obj 108 69 bng 15 250 50 0 empty empty empty 0 -6 0 8 -262144 -1
-1;
#X connect 0 0 16 0;
#X connect 1 0 17 0;
#X connect 2 0 18 0;
#X connect 3 0 19 0;
#X connect 4 0 20 0;
#X connect 5 0 21 0;
#X connect 6 0 22 0;
#X connect 7 0 23 0;
#X connect 24 0 26 0;
#X connect 25 0 24 0;
#X connect 26 0 16 0;
#X connect 26 0 17 0;
#X connect 26 0 18 0;
#X connect 26 0 19 0;
#X connect 26 0 20 0;
#X connect 26 0 21 0;
#X connect 26 0 22 0;
#X connect 26 0 23 0;
#X restore 392 150 pd s__c__o__p__e__s;
#X obj 108 423 writesf~ 2;
#X msg 175 367 start;
#X msg 207 392 stop;
#X obj 175 344 select 1 0;
#X obj 21 318 bng 20 250 50 0 empty empty OPEN 0 -6 0 8 -260818 -1
-1;
#X obj 20 356 savepanel;
#X obj 176 318 tgl 20 0 empty empty REC 0 -6 0 8 -24198 -1 -1 0 1;
#X msg 20 378 open -aiff \$1;
#X obj 287 315 mp3stream;
#X obj 287 337 moses 1;
#X obj 290 420 print;
#X msg 287 364 mp3 stream disconnected;
#X msg 333 388 mp3 stream state \$0;
#X obj 345 291 r \$0-lb;
#X connect 0 0 1 0;
#X connect 0 0 10 0;
#X connect 0 0 11 0;
#X connect 0 0 19 0;
#X connect 2 0 1 1;
#X connect 2 0 10 1;
#X connect 2 0 11 1;
#X connect 2 0 19 1;
#X connect 3 0 1 2;
#X connect 3 0 10 2;
#X connect 4 0 1 3;
#X connect 4 0 10 3;
#X connect 5 0 1 4;
#X connect 5 0 10 4;
#X connect 6 0 1 5;
#X connect 6 0 10 5;
#X connect 7 0 1 6;
#X connect 7 0 10 6;
#X connect 8 0 1 7;
#X connect 8 0 10 7;
#X connect 12 0 11 0;
#X connect 13 0 11 0;
#X connect 14 0 12 0;
#X connect 14 1 13 0;
#X connect 15 0 16 0;
#X connect 16 0 18 0;
#X connect 17 0 14 0;
#X connect 18 0 11 0;
#X connect 19 0 20 0;
#X connect 20 0 22 0;
#X connect 20 1 23 0;
#X connect 22 0 21 0;
#X connect 23 0 21 0;
#X connect 24 0 19 2;
#X restore 36 531 pd multi out;
#N canvas 236 103 644 555 channel 0;
#X obj 39 242 phasor~;
#X obj 49 290 *~;
#X obj 110 245 line~;
#X obj 39 218 line~;
#X text 188 22 packet rate;
#X text 110 19 datarank;
#X text 37 18 channel;
#X obj 47 453 throw~ chan-1;
#X obj 88 428 throw~ chan-2;
#X obj 60 393 lp2~ 80 0.7 200;
#X obj 189 271 * 1;
#X obj 37 160 t f f;
#X obj 38 128 + 30;
#X obj 191 318 line;
#X obj 207 243 t f f;
#X msg 243 276 1000;
#X msg 38 194 \$1 500;
#X obj 43 77 unpack f f f;
#X obj 76 39 inlet;
#X obj 213 149 r \$0-stop;
#X msg 212 173 0;
#X obj 111 145 t b f;
#X msg 147 211 \$1 500;
#X obj 111 165 delay 500;
#X msg 111 189 0 5000;
#X obj 38 104 * 2;
#X obj 147 455 throw~ chan-3;
#X obj 188 430 throw~ chan-4;
#X obj 249 455 throw~ chan-5;
#X obj 290 431 throw~ chan-6;
#X obj 88 108 expr 1^-$f1;
#X obj 186 345 + 30;
#X obj 178 82 print;
#X connect 0 0 1 0;
#X connect 1 0 9 0;
#X connect 2 0 1 1;
#X connect 3 0 0 0;
#X connect 9 0 7 0;
#X connect 9 0 8 0;
#X connect 9 0 29 0;
#X connect 9 0 27 0;
#X connect 9 0 28 0;
#X connect 9 0 26 0;
#X connect 10 0 13 0;
#X connect 11 0 16 0;
#X connect 11 1 10 0;
#X connect 12 0 11 0;
#X connect 13 0 31 0;
#X connect 14 0 10 1;
#X connect 14 1 15 0;
#X connect 15 0 13 1;
#X connect 16 0 3 0;
#X connect 17 0 25 0;
#X connect 17 1 30 0;
#X connect 17 2 14 0;
#X connect 18 0 17 0;
#X connect 18 0 32 0;
#X connect 19 0 20 0;
#X connect 20 0 22 0;
#X connect 21 0 23 0;
#X connect 21 1 22 0;
#X connect 22 0 2 0;
#X connect 23 0 24 0;
#X connect 24 0 2 0;
#X connect 25 0 12 0;
#X connect 30 0 21 0;
#X connect 31 0 9 1;
#X restore 265 548 pd channel wave;
#X obj 710 174 s \$0-lsp;
#X obj 646 74 t b b b b b;
#X obj 719 100 s \$0-stop;
#X obj 694 194 s lsp;
#X obj 267 370 r do_net;
#X obj 282 399 bng 15 250 50 0 empty empty empty 0 -6 0 8 -262144 -1
-1;
#X obj 266 454 bng 15 250 50 0 empty empty empty 0 -6 0 8 -262144 -1
-1;
#X msg 795 78 \; pd dsp 1;
#X obj 794 55 r \$0-lb;
#X obj 732 51 bng 15 250 50 0 empty empty empty 0 -6 0 8 -262144 -1
-1;
#X obj 266 516 r \$0-chanwave;
#X obj 266 421 nqpoly4 16 nqnetwave gv chan;
#X obj 709 147 define_loudspeakers 2 -89 89;
#X text 419 94 sampler;
#N canvas 74 98 858 633 samplebank 0;
#X obj 16 -127 table \$0-t1;
#X obj 13 -104 table \$0-t2;
#X obj 16 -79 table \$0-t3;
#X obj 16 -59 table \$0-t4;
#X obj 14 -35 table \$0-t5;
#X obj 14 -15 table \$0-t6;
#X obj 16 6 table \$0-t7;
#X obj 112 -144 table \$0-t8;
#X obj 111 -121 table \$0-t9;
#X obj 110 -103 table \$0-t10;
#X obj 109 -74 table \$0-t11;
#X obj 109 -53 table \$0-t12;
#X obj 108 -31 table \$0-t13;
#X obj 109 -9 table \$0-t14;
#X obj 108 9 table \$0-t15;
#X obj 395 -155 r \$0-loadsample;
#X obj 497 -24 symbol;
#X obj 377 -44 h_map \$0-samplemap;
#X obj 16 -148 table \$0-t0;
#N canvas 0 22 905 685 newsample 0;
#X obj 390 159 inlet;
#X obj 324 441 soundfiler;
#X msg 325 420 read -resize \$1 \$2;
#X obj 327 396 pack s s;
#X obj 440 291 symbol \$0-t;
#X text 449 273 table name;
#X obj 342 638 h_map \$0-samplemap;
#X text 338 375 load;
#X obj 378 531 i;
#X obj 705 247 inlet;
#X obj 445 531 symbol;
#X obj 387 559 symbol;
#X obj 470 598 pack f f;
#X obj 463 575 i;
#X obj 324 463 t b b b b f;
#X obj 389 213 t s s b;
#X msg 342 605 add \$1;
#X text 211 528 add table->file entry;
#X text 194 561 add file->table \, size entry;
#X obj 440 313 pack s f;
#X obj 440 346 makesymbol %s%s;
#X connect 0 0 15 0;
#X connect 1 0 14 0;
#X connect 2 0 1 0;
#X connect 3 0 2 0;
#X connect 4 0 19 0;
#X connect 8 0 16 0;
#X connect 9 0 8 1;
#X connect 9 0 19 1;
#X connect 9 0 13 1;
#X connect 10 0 6 1;
#X connect 11 0 16 0;
#X connect 12 0 6 1;
#X connect 13 0 12 0;
#X connect 14 0 11 0;
#X connect 14 1 13 0;
#X connect 14 2 8 0;
#X connect 14 3 10 0;
#X connect 14 4 12 1;
#X connect 15 0 3 0;
#X connect 15 1 10 1;
#X connect 15 1 11 1;
#X connect 15 2 4 0;
#X connect 16 0 6 0;
#X connect 19 0 20 0;
#X connect 20 0 3 1;
#X restore 496 47 pd newsample;
#N canvas 130 202 516 295 selecttable 0;
#X obj 127 221 outlet;
#X obj 130 66 inlet;
#X obj 130 131 + 1;
#X obj 129 155 moses 16;
#X obj 129 196 t f f;
#X msg 179 175 0;
#X obj 129 109 i 0;
#X text 135 40 table counter;
#X msg 130 90 bang;
#X connect 1 0 8 0;
#X connect 2 0 3 0;
#X connect 3 0 4 0;
#X connect 3 1 5 0;
#X connect 4 0 0 0;
#X connect 4 1 6 1;
#X connect 5 0 4 0;
#X connect 6 0 2 0;
#X connect 8 0 6 0;
#X restore 580 22 pd selecttable;
#N canvas 12 432 462 312 removesample 0;
#X obj 39 55 inlet;
#X text 84 56 either a sample number or a path;
#X obj 37 244 h_map \$0-samplemap;
#X msg 70 121 get \$0;
#X text 144 136 delete other entry too;
#X obj 39 85 t s s;
#X msg 142 179 remove \$0;
#X msg 38 145 remove \$0;
#X connect 0 0 5 0;
#X connect 2 0 6 0;
#X connect 3 0 2 0;
#X connect 5 0 7 0;
#X connect 5 1 3 0;
#X connect 6 0 2 0;
#X connect 7 0 2 0;
#X restore 585 47 pd removesample;
#X obj 497 -5 t s b;
#X text 338 -178 load a sample into the next slot if it does not exist
;
#X msg 349 -110 print;
#X msg 396 -87 get \$1;
#X msg 315 -79 clear;
#X obj 395 -129 t s s;
#X obj 24 102 table \$0-u0;
#X obj 23 121 table \$0-u1;
#X obj 23 140 table \$0-u2;
#X obj 23 158 table \$0-u3;
#X obj 22 178 table \$0-u4;
#X obj 23 201 table \$0-u5;
#X obj 27 223 table \$0-u6;
#X obj 22 249 table \$0-u7;
#X obj 130 101 table \$0-u8;
#X obj 130 123 table \$0-u9;
#X obj 129 142 table \$0-u10;
#X obj 130 162 table \$0-u11;
#X obj 131 181 table \$0-u12;
#X obj 130 201 table \$0-u13;
#X obj 129 225 table \$0-u14;
#X obj 132 249 table \$0-u15;
#N canvas 130 202 520 299 selecttable 0;
#X obj 127 221 outlet;
#X obj 130 66 inlet;
#X obj 130 131 + 1;
#X obj 129 155 moses 16;
#X obj 129 196 t f f;
#X msg 179 175 0;
#X obj 129 109 i 0;
#X text 135 40 table counter;
#X msg 130 90 bang;
#X connect 1 0 8 0;
#X connect 2 0 3 0;
#X connect 3 0 4 0;
#X connect 3 1 5 0;
#X connect 4 0 0 0;
#X connect 4 1 6 1;
#X connect 5 0 4 0;
#X connect 6 0 2 0;
#X connect 8 0 6 0;
#X restore 407 220 pd selecttable;
#X obj 319 171 adc~;
#X text 439 274 table name;
#X obj 430 310 pack s f;
#X obj 430 329 makesymbol %s%s;
#X obj 430 291 symbol \$0-u;
#X obj 407 244 t b b f;
#X obj 601 127 * 22.1;
#X obj 348 419 tabwrite~;
#X msg 393 395 set \$1;
#X msg 602 153 resize \$1;
#X obj 616 271 s \$0-u1;
#X obj 605 246 s \$0-u0;
#X obj 631 293 s \$0-u2;
#X obj 641 324 s \$0-u3;
#X obj 649 347 s \$0-u4;
#X obj 657 371 s \$0-u5;
#X obj 660 396 s \$0-u6;
#X obj 662 421 s \$0-u7;
#X obj 689 242 s \$0-u8;
#X obj 668 213 r \$0-uall;
#X obj 691 264 s \$0-u9;
#X obj 694 285 s \$0-u10;
#X obj 706 319 s \$0-u11;
#X obj 712 341 s \$0-12;
#X obj 715 371 s \$0-13;
#X obj 719 397 s \$0-14;
#X obj 721 423 s \$0-15;
#X obj 601 173 s \$0-uall;
#X obj 599 100 r \$0-usize;
#X obj 407 200 metro;
#X obj 443 176 r \$0-usize;
#X obj 421 83 r \$0-lb;
#X obj 405 104 t b b;
#X obj 435 149 s \$0-usize;
#X obj 390 80 bng 15 250 50 0 empty empty empty 0 -6 0 8 -262144 -1
-1;
#X msg 436 127 1000;
#X obj 257 304 prvu~;
#X floatatom 261 340 5 0 0 0 - - -;
#X obj 301 302 prvu~;
#X floatatom 306 341 5 0 0 0 - - -;
#X connect 15 0 27 0;
#X connect 16 0 22 0;
#X connect 17 2 16 0;
#X connect 20 0 19 1;
#X connect 20 0 21 0;
#X connect 22 0 19 0;
#X connect 22 1 20 0;
#X connect 24 0 17 0;
#X connect 25 0 17 0;
#X connect 26 0 17 0;
#X connect 27 0 25 0;
#X connect 27 1 16 1;
#X connect 44 0 50 0;
#X connect 45 0 81 0;
#X connect 45 1 52 0;
#X connect 45 1 83 0;
#X connect 47 0 48 0;
#X connect 48 0 53 0;
#X connect 49 0 47 0;
#X connect 50 0 52 0;
#X connect 50 1 49 0;
#X connect 50 2 47 1;
#X connect 51 0 54 0;
#X connect 53 0 52 0;
#X connect 54 0 72 0;
#X connect 64 0 56 0;
#X connect 64 0 55 0;
#X connect 64 0 57 0;
#X connect 64 0 58 0;
#X connect 64 0 59 0;
#X connect 64 0 60 0;
#X connect 64 0 61 0;
#X connect 64 0 62 0;
#X connect 64 0 63 0;
#X connect 64 0 65 0;
#X connect 64 0 66 0;
#X connect 64 0 67 0;
#X connect 64 0 68 0;
#X connect 64 0 69 0;
#X connect 64 0 70 0;
#X connect 64 0 71 0;
#X connect 73 0 51 0;
#X connect 74 0 44 0;
#X connect 75 0 74 1;
#X connect 76 0 77 0;
#X connect 77 0 74 0;
#X connect 77 1 80 0;
#X connect 79 0 77 0;
#X connect 80 0 78 0;
#X connect 81 0 82 0;
#X connect 83 0 84 0;
#X restore 319 94 pd samplebank;
#X obj 448 43 PDContainer;
#X obj 54 365 r cli;
#X obj 114 371 r \$0-lb;
#N canvas 83 22 873 588 client 0;
#X obj 62 182 inlet;
#X obj 415 189 inlet;
#X obj 61 211 OSCroute /bang /mac /net_index /atype /wep /packets /signal
;
#X obj 353 415 OSCroute /data /crypt /weak;
#X obj 409 284 OSCroute /quality /power /noise;
#N canvas 244 117 555 542 getsample 0;
#X obj 64 -21 inlet;
#X obj 27 458 outlet;
#X obj 64 163 h_map \$0-samplemap;
#X msg 64 49 get \$1;
#X obj 34 328 symbol \$0-t;
#X text 43 310 table name;
#X obj 34 350 pack s f;
#X obj 34 383 makesymbol %s%s;
#X obj 62 249 unpack f f;
#X obj 203 470 outlet;
#X text 204 432 size;
#X text 39 438 table;
#X obj 41 279 t b f;
#X obj 63 23 prepend symbol;
#X obj 66 76 h_map \$0-clientsamples;
#X msg 64 118 get \$1;
#X obj 268 172 t b b;
#X text 281 236 table name;
#X obj 272 272 pack s f;
#X obj 272 291 makesymbol %s%s;
#X obj 272 253 symbol \$0-u;
#X obj 318 207 random 16;
#X obj 338 326 r \$0-usize;
#X text 286 147 not found;
#X obj 266 364 t s b;
#X obj 296 406 i;
#X connect 0 0 13 0;
#X connect 2 0 8 0;
#X connect 3 0 14 0;
#X connect 4 0 6 0;
#X connect 6 0 7 0;
#X connect 7 0 1 0;
#X connect 8 0 12 0;
#X connect 8 1 9 0;
#X connect 12 0 4 0;
#X connect 12 1 6 1;
#X connect 13 0 3 0;
#X connect 14 0 15 0;
#X connect 14 2 16 0;
#X connect 15 0 2 0;
#X connect 16 0 20 0;
#X connect 16 1 21 0;
#X connect 18 0 19 0;
#X connect 19 0 24 0;
#X connect 20 0 18 0;
#X connect 21 0 18 1;
#X connect 22 0 25 1;
#X connect 24 0 1 0;
#X connect 24 1 25 0;
#X connect 25 0 9 0;
#X restore 130 280 pd getsample;
#X text 185 226 net;
#X text 242 225 atype;
#X text 303 226 wep;
#X text 124 228 mac;
#X text 358 228 pack;
#X text 415 229 sig;
#X text 66 228 bang;
#X obj 87 382 spigot 0;
#X msg 166 351 1;
#X obj 85 523 outlet;
#X obj 86 429 symbol;
#X obj 85 486 pack s f s;
#X obj 151 459 symbol \$0-env;
#X msg 166 380 0;
#X obj 86 405 t b b;
#X obj 126 114 r \$0-netpack;
#X obj 125 137 unpack 1 s;
#X connect 0 0 2 0;
#X connect 1 0 18 0;
#X connect 2 0 13 0;
#X connect 2 1 5 0;
#X connect 2 5 3 0;
#X connect 2 6 4 0;
#X connect 5 0 16 1;
#X connect 5 1 14 0;
#X connect 5 1 17 1;
#X connect 13 0 20 0;
#X connect 14 0 13 1;
#X connect 16 0 17 0;
#X connect 17 0 15 0;
#X connect 18 0 17 2;
#X connect 19 0 13 1;
#X connect 20 0 16 0;
#X connect 20 1 19 0;
#X connect 21 0 22 0;
#X connect 22 0 13 0;
#X connect 22 1 5 0;
#X restore 55 404 pd client;
#X obj 39 341 r \$0-netcli;
#N canvas 481 240 493 463 web-oscin 0;
#X obj 77 19 dumpOSC 23456;
#X obj 103 280 h_map \$0-clientsamples;
#X obj 78 44 OSCroute /web;
#X obj 78 68 OSCroute /client;
#X obj 139 167 unpack s s;
#X obj 80 89 OSCroute /bang /set /sample;
#X msg 111 145 1;
#X msg 67 150 0;
#X obj 105 226 symbol;
#X msg 105 251 add \$1;
#X obj 66 173 spigot 0;
#X obj 45 117 t b b;
#X obj 69 196 t b b;
#X obj 73 377 s \$0-loadsample;
#X obj 222 167 prepend symbol;
#X obj 71 319 symbol;
#X connect 0 0 2 0;
#X connect 2 0 3 0;
#X connect 3 0 5 0;
#X connect 4 0 8 1;
#X connect 5 0 11 0;
#X connect 5 1 4 0;
#X connect 5 2 6 0;
#X connect 5 2 14 0;
#X connect 6 0 10 1;
#X connect 7 0 10 1;
#X connect 8 0 9 0;
#X connect 9 0 1 0;
#X connect 10 0 12 0;
#X connect 11 0 7 0;
#X connect 11 1 10 0;
#X connect 12 0 15 0;
#X connect 12 1 8 0;
#X connect 14 0 1 1;
#X connect 14 0 15 1;
#X connect 15 0 13 0;
#X restore 135 42 pd web-oscin;
#X obj 318 70 h_map \$0-clientsamples;
#X msg 318 46 print;
#X msg 365 47 clear;
#X text 317 22 client map;
#X obj 78 441 print;
#X text 267 351 channel sine;
#X text 266 492 last channel bass;
#X obj 38 474 nqpoly4 32 nqsamp gv chan;
#X text 39 310 audio gen;
#X obj 713 491 table \$0-env 1024;
#X obj 649 503 \$0;
#X msg 648 524 \; \$1-env cosinesum 1024 0.5 -0.5 \;;
#X obj 649 476 r \$0-lb;
#X text 711 471 grain envelope;
#X connect 4 0 18 0;
#X connect 5 0 18 0;
#X connect 7 0 6 0;
#X connect 9 0 8 0;
#X connect 11 0 0 1;
#X connect 12 0 0 0;
#X connect 18 0 10 0;
#X connect 18 1 9 0;
#X connect 18 2 7 0;
#X connect 18 3 29 0;
#X connect 18 4 19 0;
#X connect 21 0 22 0;
#X connect 21 0 28 0;
#X connect 25 0 24 0;
#X connect 26 0 19 0;
#X connect 28 0 23 0;
#X connect 29 0 17 0;
#X connect 29 0 20 0;
#X connect 33 0 35 0;
#X connect 34 0 35 1;
#X connect 35 0 42 0;
#X connect 35 0 45 0;
#X connect 36 0 35 0;
#X connect 39 0 38 0;
#X connect 40 0 38 0;
#X connect 48 0 49 0;
#X connect 50 0 48 0;
