#N canvas 29 67 998 592 10;
#X obj 549 143 adc~ 1;
#X obj 549 165 hip~ 5;
#X msg 536 92 bang;
#X text 517 -4 set the upper line~ to start;
#X text 517 15 at the first sample and go;
#X text 516 36 forever (until the next trigger);
#X text 581 89 <-- record;
#X obj 600 166 line~;
#X obj 549 193 *~;
#X text 738 267 ------ 4 seconds ------;
#X obj 656 121 del 3990;
#X msg 656 144 0 10;
#X text 699 145 <--stop recording;
#X msg 600 121 0 \, 1 5;
#X obj 56 24 inlet;
#X obj 56 58 route bang record play pause loop;
#X obj 536 218 tabwrite~ \$0-left;
#X obj 742 249 table \$0-left 882000;
#X obj 76 306 hip~ 5;
#X obj 76 239 line~;
#X obj 76 190 * 441;
#X floatatom 76 136 0 0 100 0 - - -;
#X obj 76 214 pack 0 100;
#X text 111 137 <-- read point in 100ths of a second;
#X obj 76 274 tabread4~ \$0-left;
#X obj 86 347 dac~;
#X connect 0 0 1 0;
#X connect 1 0 8 0;
#X connect 2 0 10 0;
#X connect 2 0 13 0;
#X connect 2 0 16 0;
#X connect 7 0 8 1;
#X connect 8 0 16 0;
#X connect 10 0 11 0;
#X connect 11 0 7 0;
#X connect 13 0 7 0;
#X connect 14 0 15 0;
#X connect 18 0 25 1;
#X connect 18 0 25 0;
#X connect 19 0 24 0;
#X connect 20 0 22 0;
#X connect 21 0 20 0;
#X connect 22 0 19 0;
#X connect 24 0 18 0;
