#N canvas 286 88 629 560 10;
#X obj 399 241 table c1;
#X obj 398 260 table c2;
#X obj 84 439 tabplay~ c1;
#X obj 399 279 table c3;
#X obj 398 298 table c4;
#X obj 167 439 tabplay~ c2;
#X obj 253 440 tabplay~ c3;
#X obj 335 440 tabplay~ c4;
#X obj 265 504 dac~;
#X obj 143 212 t s b;
#X obj 183 233 tgl 15 0 empty empty empty 0 -6 0 8 -262144 -1 -1 1
1;
#X obj 145 256 demux;
#X obj 148 371 demux;
#X obj 144 345 bng 15 250 50 0 empty empty empty 0 -6 0 8 -262144 -1
-1;
#X obj 99 348 print;
#X obj 142 109 metro 2000;
#X obj 146 20 loadbang;
#X msg 258 74 \; pd dsp 1;
#X obj 142 44 t b b;
#N canvas 146 80 832 653 randomfile 0;
#X obj 78 415 makesymbol ../data/shot%s_%s.wav;
#X obj 81 271 moses 10;
#X obj 248 250 moses 10;
#X obj 247 299 makefilename 0%d;
#X obj 297 276 makefilename %d;
#X obj 81 390 pack s s;
#X obj 130 294 makefilename %d;
#X obj 80 328 makefilename 0%d;
#X text 467 297 change this!!!!;
#X obj 67 189 random 50;
#X obj 67 211 + 1;
#X obj 136 188 random 5;
#X obj 138 206 + 1;
#X obj 70 145 t b b b;
#X obj 349 402 symbol /home/bek/k2o/k2o-data/pd-lo/data/shot%s_%s.wav
;
#X obj 384 342 makesymbol /Users/lo/Development/Projects/k2o/k2o-data/pd-lo/data/shot%s_%s.wav
;
#X obj 79 446 outlet;
#X obj 382 316 loadbang;
#X obj 62 110 inlet;
#X connect 0 0 16 0;
#X connect 1 0 7 0;
#X connect 1 1 6 0;
#X connect 2 0 3 0;
#X connect 2 1 4 0;
#X connect 3 0 5 1;
#X connect 4 0 5 1;
#X connect 5 0 0 0;
#X connect 6 0 5 0;
#X connect 7 0 5 0;
#X connect 9 0 10 0;
#X connect 10 0 1 0;
#X connect 11 0 12 0;
#X connect 12 0 2 0;
#X connect 13 0 9 0;
#X connect 13 1 11 0;
#X connect 14 0 0 1;
#X connect 15 0 0 1;
#X connect 17 0 15 0;
#X connect 18 0 13 0;
#X restore 142 129 pd randomfile;
#X obj 141 323 soundfiler;
#X msg 142 279 read -resize \$1 c1 c2;
#X msg 183 302 read -resize \$1 c3 c4;
#X connect 2 0 8 0;
#X connect 7 0 8 1;
#X connect 9 0 11 0;
#X connect 9 1 10 0;
#X connect 10 0 11 1;
#X connect 10 0 12 1;
#X connect 11 0 21 0;
#X connect 11 1 22 0;
#X connect 12 0 2 0;
#X connect 12 0 5 0;
#X connect 12 1 6 0;
#X connect 12 1 7 0;
#X connect 13 0 12 0;
#X connect 15 0 19 0;
#X connect 16 0 18 0;
#X connect 18 0 15 0;
#X connect 18 1 17 0;
#X connect 19 0 9 0;
#X connect 20 0 13 0;
#X connect 20 0 14 0;
#X connect 21 0 20 0;
#X connect 22 0 20 0;
