#N canvas 116 22 894 645 10;
#X obj 100 353 osc~;
#X obj 60 30 bng 15 250 50 0 empty empty empty 0 -6 0 8 -262144 -1
-1;
#X obj 102 293 line;
#X floatatom 102 191 5 0 0 0 - - -;
#X floatatom 146 192 5 0 0 0 - - -;
#X floatatom 200 191 5 0 0 0 - - -;
#X obj 101 328 t f f;
#X msg 102 269 \$2 \$3;
#X text 112 129 frequency;
#X text 150 173 high;
#X text 109 173 low;
#X text 202 172 duration;
#X obj 101 245 pack f f f;
#X obj 102 215 t f f;
#X text 29 9 bubble!;
#X obj 105 30 inlet;
#X obj 508 52 inlet;
#X obj 527 144 s \$0-fadedur;
#X obj 546 80 i \$1;
#X obj 546 99 s \$0-vnum;
#X text 494 13 loadbang setup defaults;
#X obj 193 379 change 0;
#X obj 484 193 s \$0-basevol;
#X msg 484 172 0.1;
#X obj 100 541 outlet;
#X text 106 524 done!;
#X text 516 173 base volume (required by mixer);
#X text 559 124 fade duration (required by mixer);
#X text 586 80 voice number (required by mixer);
#X obj 410 507 change 0;
#X obj 411 529 switch~;
#X msg 129 492 0;
#X obj 100 470 t b b;
#X text 395 547 toggle audio for this window;
#X obj 105 55 t a b;
#X msg 410 70 1;
#N canvas 0 101 1016 671 voice 0;
#X obj 458 281 *~;
#X obj 519 280 *~;
#X obj 658 131 line~;
#X obj 658 108 pack f f;
#X obj 585 31 r \$0-fadedur;
#X obj 596 131 line~;
#X obj 596 108 pack f f;
#X obj 333 281 *~;
#X obj 394 280 *~;
#X obj 533 131 line~;
#X obj 533 108 pack f f;
#X obj 471 131 line~;
#X obj 471 108 pack f f;
#X obj 208 281 *~;
#X obj 269 280 *~;
#X obj 408 131 line~;
#X obj 408 108 pack f f;
#X obj 346 131 line~;
#X obj 346 108 pack f f;
#X obj 83 281 *~;
#X obj 144 280 *~;
#X obj 283 131 line~;
#X obj 283 108 pack f f;
#X obj 221 131 line~;
#X obj 221 108 pack f f;
#X obj 82 324 throw~ \$4-1;
#X obj 141 346 throw~ \$4-2;
#X obj 210 326 throw~ \$4-3;
#X obj 269 349 throw~ \$4-4;
#X obj 333 324 throw~ \$4-5;
#X obj 392 347 throw~ \$4-6;
#X obj 456 323 throw~ \$4-7;
#X obj 519 345 throw~ \$4-8;
#X obj 119 78 line~;
#X obj 119 55 pack f f;
#X obj 188 22 r \$0-fadedur;
#X msg 122 -21 0;
#X obj 155 20 f;
#X obj 171 0 r \$0-basevol;
#X obj 103 115 *~;
#X obj 65 -74 inlet~;
#X obj 773 26 change 0;
#X obj 762 247 outlet;
#X text 761 264 done!;
#X obj 889 267 switch~;
#X obj 773 47 route 0 1;
#X msg 764 73 0;
#X text 834 296 switch audio on/off;
#X obj 921 137 s \$3;
#X obj 795 151 r \$0-fadedur;
#X obj 934 76 r \$0-vnum;
#X obj 920 115 i;
#X msg 898 236 1;
#X obj 876 93 t b b b;
#X obj 765 173 delay;
#X msg 839 236 0;
#X text 744 -21 swtich audio processing on / off;
#X obj 766 198 t b b;
#X obj 763 95 t b b;
#X text 918 154 request mixer values;
#X obj 794 120 s \$0-fadeout;
#X obj 877 312 s \$0-fadein;
#X obj 350 -82 r \$3-levels;
#X obj 349 10 spigot;
#X obj 348 34 route 0 1 2 3 4 5 6 7;
#X obj 427 -36 select;
#X obj 350 -62 niagara 2;
#X msg 426 -15 1;
#X msg 464 -15 0;
#X obj 122 -42 r \$0-fadeout;
#X obj 157 -21 r \$0-fadein;
#X obj 464 -60 r \$0-vnum;
#X obj 772 4 inlet;
#X connect 0 0 31 0;
#X connect 1 0 32 0;
#X connect 2 0 1 1;
#X connect 3 0 2 0;
#X connect 4 0 3 1;
#X connect 4 0 6 1;
#X connect 4 0 10 1;
#X connect 4 0 12 1;
#X connect 4 0 16 1;
#X connect 4 0 18 1;
#X connect 4 0 22 1;
#X connect 4 0 24 1;
#X connect 5 0 0 1;
#X connect 6 0 5 0;
#X connect 7 0 29 0;
#X connect 8 0 30 0;
#X connect 9 0 8 1;
#X connect 10 0 9 0;
#X connect 11 0 7 1;
#X connect 12 0 11 0;
#X connect 13 0 27 0;
#X connect 14 0 28 0;
#X connect 15 0 14 1;
#X connect 16 0 15 0;
#X connect 17 0 13 1;
#X connect 18 0 17 0;
#X connect 19 0 25 0;
#X connect 20 0 26 0;
#X connect 21 0 20 1;
#X connect 22 0 21 0;
#X connect 23 0 19 1;
#X connect 24 0 23 0;
#X connect 33 0 39 1;
#X connect 34 0 33 0;
#X connect 35 0 34 1;
#X connect 36 0 34 0;
#X connect 37 0 34 0;
#X connect 38 0 37 1;
#X connect 39 0 19 0;
#X connect 39 0 20 0;
#X connect 39 0 13 0;
#X connect 39 0 14 0;
#X connect 39 0 7 0;
#X connect 39 0 8 0;
#X connect 39 0 0 0;
#X connect 39 0 1 0;
#X connect 40 0 39 0;
#X connect 41 0 45 0;
#X connect 45 0 46 0;
#X connect 45 1 53 0;
#X connect 46 0 58 0;
#X connect 49 0 54 1;
#X connect 50 0 51 1;
#X connect 51 0 48 0;
#X connect 52 0 44 0;
#X connect 53 0 61 0;
#X connect 53 1 52 0;
#X connect 53 2 51 0;
#X connect 54 0 57 0;
#X connect 55 0 44 0;
#X connect 57 0 42 0;
#X connect 57 1 55 0;
#X connect 58 0 54 0;
#X connect 58 1 60 0;
#X connect 62 0 66 0;
#X connect 63 0 64 0;
#X connect 64 0 24 0;
#X connect 64 1 22 0;
#X connect 64 2 18 0;
#X connect 64 3 16 0;
#X connect 64 4 12 0;
#X connect 64 5 10 0;
#X connect 64 6 6 0;
#X connect 64 7 3 0;
#X connect 65 0 67 0;
#X connect 65 1 68 0;
#X connect 66 0 63 0;
#X connect 66 1 65 0;
#X connect 67 0 63 1;
#X connect 68 0 63 1;
#X connect 69 0 36 0;
#X connect 70 0 37 0;
#X connect 71 0 65 1;
#X connect 72 0 41 0;
#X restore 100 444 pd voice mixer;
#X text 165 426 turn mixer on/off;
#X msg 527 124 20;
#X obj 106 149 unpack f f f f;
#X floatatom 267 191 5 0 0 0 - - -;
#X text 271 171 volume;
#X obj 101 397 *~;
#X obj 179 352 <;
#X connect 0 0 42 0;
#X connect 1 0 3 0;
#X connect 2 0 6 0;
#X connect 3 0 13 0;
#X connect 4 0 12 1;
#X connect 4 0 43 1;
#X connect 5 0 12 2;
#X connect 6 0 0 0;
#X connect 6 1 43 0;
#X connect 7 0 2 0;
#X connect 12 0 7 0;
#X connect 13 0 12 0;
#X connect 13 1 2 0;
#X connect 15 0 34 0;
#X connect 16 0 38 0;
#X connect 16 0 18 0;
#X connect 16 0 23 0;
#X connect 18 0 19 0;
#X connect 21 0 36 1;
#X connect 23 0 22 0;
#X connect 29 0 30 0;
#X connect 31 0 29 0;
#X connect 32 0 24 0;
#X connect 32 1 31 0;
#X connect 34 0 39 0;
#X connect 34 1 35 0;
#X connect 35 0 29 0;
#X connect 35 0 21 0;
#X connect 36 0 32 0;
#X connect 38 0 17 0;
#X connect 39 0 3 0;
#X connect 39 1 4 0;
#X connect 39 2 5 0;
#X connect 39 3 40 0;
#X connect 40 0 42 1;
#X connect 42 0 36 0;
#X connect 43 0 21 0;
