#N canvas 283 164 889 559 10;
#X obj 105 40 inlet;
#X obj 508 52 inlet;
#X obj 527 144 s \$0-fadedur;
#X obj 546 80 i \$1;
#X obj 546 99 s \$0-vnum;
#X text 494 13 loadbang setup defaults;
#X obj 213 429 change 0;
#X obj 484 193 s \$0-basevol;
#X obj 120 561 outlet;
#X text 126 544 done!;
#X text 516 173 base volume (required by mixer);
#X text 559 124 fade duration (required by mixer);
#X text 586 80 voice number (required by mixer);
#X obj 430 527 change 0;
#X obj 431 549 switch~;
#X msg 149 512 0;
#X obj 120 490 t b b;
#X text 425 568 toggle audio for this window;
#X obj 105 65 t a b;
#X msg 410 80 1;
#N canvas 0 43 1032 687 voice 0;
#X obj 458 281 *~;
#X obj 519 280 *~;
#X obj 658 131 line~;
#X obj 658 108 pack f f;
#X obj 585 31 r \$0-fadedur;
#X obj 596 131 line~;
#X obj 596 108 pack f f;
#X obj 333 281 *~;
#X obj 394 280 *~;
#X obj 533 131 line~;
#X obj 533 108 pack f f;
#X obj 471 131 line~;
#X obj 471 108 pack f f;
#X obj 208 281 *~;
#X obj 269 280 *~;
#X obj 408 131 line~;
#X obj 408 108 pack f f;
#X obj 346 131 line~;
#X obj 346 108 pack f f;
#X obj 83 281 *~;
#X obj 144 280 *~;
#X obj 283 131 line~;
#X obj 283 108 pack f f;
#X obj 221 131 line~;
#X obj 221 108 pack f f;
#X obj 82 324 throw~ \$4-1;
#X obj 141 346 throw~ \$4-2;
#X obj 210 326 throw~ \$4-3;
#X obj 269 349 throw~ \$4-4;
#X obj 333 324 throw~ \$4-5;
#X obj 392 347 throw~ \$4-6;
#X obj 456 323 throw~ \$4-7;
#X obj 519 345 throw~ \$4-8;
#X obj 119 78 line~;
#X obj 119 55 pack f f;
#X obj 188 22 r \$0-fadedur;
#X msg 122 -21 0;
#X obj 155 20 f;
#X obj 171 0 r \$0-basevol;
#X obj 103 115 *~;
#X obj 65 -74 inlet~;
#X obj 773 26 change 0;
#X obj 762 247 outlet;
#X text 761 264 done!;
#X obj 889 267 switch~;
#X obj 773 47 route 0 1;
#X msg 764 73 0;
#X text 834 296 switch audio on/off;
#X obj 921 137 s \$3;
#X obj 795 151 r \$0-fadedur;
#X obj 934 76 r \$0-vnum;
#X obj 920 115 i;
#X msg 898 236 1;
#X obj 876 93 t b b b;
#X obj 765 173 delay;
#X msg 839 236 0;
#X text 744 -21 swtich audio processing on / off;
#X obj 766 198 t b b;
#X obj 763 95 t b b;
#X text 918 154 request mixer values;
#X obj 794 120 s \$0-fadeout;
#X obj 877 312 s \$0-fadein;
#X obj 348 34 route 0 1 2 3 4 5 6 7;
#X obj 122 -42 r \$0-fadeout;
#X obj 157 -21 r \$0-fadein;
#X obj 772 4 inlet;
#X obj 402 -10 vbap 0 0;
#X obj 400 -62 inlet;
#X obj 452 -62 inlet;
#X obj 400 -37 t b f;
#X obj 337 -61 r lsp;
#X connect 0 0 31 0;
#X connect 1 0 32 0;
#X connect 2 0 1 1;
#X connect 3 0 2 0;
#X connect 4 0 3 1;
#X connect 4 0 6 1;
#X connect 4 0 10 1;
#X connect 4 0 12 1;
#X connect 4 0 16 1;
#X connect 4 0 18 1;
#X connect 4 0 22 1;
#X connect 4 0 24 1;
#X connect 5 0 0 1;
#X connect 6 0 5 0;
#X connect 7 0 29 0;
#X connect 8 0 30 0;
#X connect 9 0 8 1;
#X connect 10 0 9 0;
#X connect 11 0 7 1;
#X connect 12 0 11 0;
#X connect 13 0 27 0;
#X connect 14 0 28 0;
#X connect 15 0 14 1;
#X connect 16 0 15 0;
#X connect 17 0 13 1;
#X connect 18 0 17 0;
#X connect 19 0 25 0;
#X connect 20 0 26 0;
#X connect 21 0 20 1;
#X connect 22 0 21 0;
#X connect 23 0 19 1;
#X connect 24 0 23 0;
#X connect 33 0 39 1;
#X connect 34 0 33 0;
#X connect 35 0 34 1;
#X connect 36 0 34 0;
#X connect 37 0 34 0;
#X connect 38 0 37 1;
#X connect 39 0 19 0;
#X connect 39 0 20 0;
#X connect 39 0 13 0;
#X connect 39 0 14 0;
#X connect 39 0 7 0;
#X connect 39 0 8 0;
#X connect 39 0 0 0;
#X connect 39 0 1 0;
#X connect 40 0 39 0;
#X connect 41 0 45 0;
#X connect 45 0 46 0;
#X connect 45 1 53 0;
#X connect 46 0 58 0;
#X connect 49 0 54 1;
#X connect 50 0 51 1;
#X connect 51 0 48 0;
#X connect 52 0 44 0;
#X connect 53 0 61 0;
#X connect 53 1 52 0;
#X connect 53 2 51 0;
#X connect 54 0 57 0;
#X connect 55 0 44 0;
#X connect 57 0 42 0;
#X connect 57 1 55 0;
#X connect 58 0 54 0;
#X connect 58 1 60 0;
#X connect 62 0 24 0;
#X connect 62 1 22 0;
#X connect 62 2 18 0;
#X connect 62 3 16 0;
#X connect 62 4 12 0;
#X connect 62 5 10 0;
#X connect 62 6 6 0;
#X connect 62 7 3 0;
#X connect 63 0 36 0;
#X connect 64 0 37 0;
#X connect 65 0 41 0;
#X connect 66 0 62 0;
#X connect 67 0 69 0;
#X connect 68 0 66 3;
#X connect 69 0 66 0;
#X connect 69 1 66 1;
#X connect 70 0 66 0;
#X restore 120 464 pd voice mixer;
#X text 185 446 turn mixer on/off;
#X msg 527 124 20;
#N canvas 160 22 811 717 playgrain 0;
#X obj 160 657 line~;
#X msg 64 415 set \$1;
#X obj 160 686 tabread4~;
#X obj 297 749 *~;
#X obj 297 781 outlet~;
#X obj 28 48 inlet;
#N canvas 745 524 238 216 start_envelope 0;
#X obj 16 10 inlet;
#X obj 17 122 outlet~;
#X msg 16 39 0 \, 1024 \$1;
#X obj 16 66 line~;
#X obj 127 15 inlet;
#X msg 127 37 set \$1;
#X obj 16 92 tabread4~;
#X connect 0 0 2 0;
#X connect 2 0 3 0;
#X connect 3 0 6 0;
#X connect 4 0 5 0;
#X connect 5 0 6 0;
#X connect 6 0 1 0;
#X restore 321 695 pd start_envelope;
#X obj 186 323 * 44.1;
#X obj 161 352 -;
#X text 202 352 taille exploitable de la table;
#X obj 161 413 *;
#X text 202 416 debut du sample (echantillon);
#X obj 159 576 pack f f f;
#X msg 159 601 \$1 \, \$2 \$3;
#X obj 161 451 t f f;
#X obj 209 481 +;
#X text 285 477 fin du sample;
#X obj 518 765 outlet;
#N canvas 0 22 450 300 rnd127 0;
#X obj 40 18 inlet;
#X obj 203 19 inlet;
#X obj 103 257 outlet;
#X obj 40 57 t f b;
#X obj 127 96 random 0;
#X obj 103 189 +;
#X obj 203 46 * 10000;
#X obj 127 124 / 10000;
#X obj 128 155 - 0;
#X obj 241 83 / 2;
#X connect 0 0 3 0;
#X connect 1 0 6 0;
#X connect 1 0 9 0;
#X connect 3 0 5 0;
#X connect 3 1 4 0;
#X connect 4 0 7 0;
#X connect 5 0 2 0;
#X connect 6 0 4 1;
#X connect 7 0 8 0;
#X connect 8 0 5 1;
#X connect 9 0 8 1;
#X restore 87 151 pd rnd127;
#N canvas 0 22 450 300 rnd127 0;
#X obj 40 18 inlet;
#X obj 203 19 inlet;
#X obj 103 257 outlet;
#X obj 40 57 t f b;
#X obj 127 96 random 0;
#X obj 103 210 +;
#X obj 203 41 * 10000;
#X obj 127 122 / 10000;
#X obj 128 155 - 0;
#X obj 241 83 / 2;
#X connect 0 0 3 0;
#X connect 1 0 6 0;
#X connect 1 0 9 0;
#X connect 3 0 5 0;
#X connect 3 1 4 0;
#X connect 4 0 7 0;
#X connect 5 0 2 0;
#X connect 6 0 4 1;
#X connect 7 0 8 0;
#X connect 8 0 5 1;
#X connect 9 0 8 1;
#X restore 147 180 pd rnd127;
#N canvas 0 22 450 300 rnd127 0;
#X obj 40 18 inlet;
#X obj 203 19 inlet;
#X obj 103 257 outlet;
#X obj 40 57 t f b;
#X obj 127 96 random 0;
#X obj 102 198 +;
#X obj 203 41 * 10000;
#X obj 127 124 / 10000;
#X obj 128 155 - 0;
#X obj 241 83 / 2;
#X connect 0 0 3 0;
#X connect 1 0 6 0;
#X connect 1 0 9 0;
#X connect 3 0 5 0;
#X connect 3 1 4 0;
#X connect 4 0 7 0;
#X connect 5 0 2 0;
#X connect 6 0 4 1;
#X connect 7 0 8 0;
#X connect 8 0 5 1;
#X connect 9 0 8 1;
#X restore 211 205 pd rnd127;
#X text 189 150 position;
#X text 257 183 taille;
#X text 271 257 freq relative;
#X obj 321 665 f;
#X obj 518 731 delay;
#X obj 19 388 t b s b;
#X obj 186 290 *;
#X text 273 323 taille en echantillon de lecture;
#X obj 213 229 mtof;
#X obj 213 256 / 440;
#X text 323 202 freq (midi);
#N canvas 0 22 458 308 rnd127 0;
#X obj 40 18 inlet;
#X obj 203 19 inlet;
#X obj 103 257 outlet;
#X obj 40 57 t f b;
#X obj 127 96 random 0;
#X obj 103 210 +;
#X obj 203 41 * 10000;
#X obj 127 122 / 10000;
#X obj 128 155 - 0;
#X obj 241 83 / 2;
#X connect 0 0 3 0;
#X connect 1 0 6 0;
#X connect 1 0 9 0;
#X connect 3 0 5 0;
#X connect 3 1 4 0;
#X connect 4 0 7 0;
#X connect 5 0 2 0;
#X connect 6 0 4 1;
#X connect 7 0 8 0;
#X connect 8 0 5 1;
#X connect 9 0 8 1;
#X restore 347 290 pd rnd127;
#X text 453 288 amplitude;
#X obj 321 724 *~;
#X obj 194 50 inlet;
#X text 570 762 done !;
#X text 365 115 table \, taille de la table \, position (0 \, 1) \,
aleat \, taille du grain \, aleat \, freq relative \, aleat \, amplitude
\, rand \, envelope table;
#X obj 28 120 unpack s f f f f f f f f f s;
#X text 247 53 loadbang;
#X connect 0 0 2 0;
#X connect 1 0 2 0;
#X connect 2 0 3 0;
#X connect 3 0 4 0;
#X connect 5 0 38 0;
#X connect 6 0 34 0;
#X connect 7 0 8 1;
#X connect 7 0 15 1;
#X connect 8 0 10 0;
#X connect 10 0 14 0;
#X connect 12 0 13 0;
#X connect 13 0 0 0;
#X connect 14 0 12 0;
#X connect 14 1 15 0;
#X connect 15 0 12 1;
#X connect 18 0 10 1;
#X connect 19 0 12 2;
#X connect 19 0 24 1;
#X connect 19 0 27 0;
#X connect 19 0 25 1;
#X connect 20 0 29 0;
#X connect 24 0 6 0;
#X connect 25 0 17 0;
#X connect 26 0 24 0;
#X connect 26 1 1 0;
#X connect 26 2 25 0;
#X connect 27 0 7 0;
#X connect 29 0 30 0;
#X connect 30 0 27 1;
#X connect 32 0 34 1;
#X connect 34 0 3 1;
#X connect 38 0 26 0;
#X connect 38 1 8 0;
#X connect 38 2 18 0;
#X connect 38 3 18 1;
#X connect 38 4 19 0;
#X connect 38 5 19 1;
#X connect 38 6 20 0;
#X connect 38 7 20 1;
#X connect 38 8 32 0;
#X connect 38 9 32 1;
#X connect 38 10 6 1;
#X restore 129 328 pd playgrain;
#X text 462 259 table (symbol) \, tablesize \, pos (0..1) \, pos rand
\, grainsize (ms) \, grain rand \, midi note \, note rand \, amplitude
(0..1) \, amp rand \, envelope table (symbol);
#X msg 208 367 0;
#X msg 484 171 1;
#X text 64 90 input: tablename \, tablesize \, networkpointer \, envelope
;
#X obj 105 107 unpack s f p s;
#X obj 71 275 pack s f 0.5 0.5 500 200 69 50 0.9 0 s;
#X obj 138 405 * -57.2958;
#X obj 182 428 * 2;
#X obj 61 183 get net_struct innocence angle dist;
#X connect 0 0 18 0;
#X connect 1 0 22 0;
#X connect 1 0 3 0;
#X connect 1 0 26 0;
#X connect 1 0 23 1;
#X connect 3 0 4 0;
#X connect 6 0 20 3;
#X connect 13 0 14 0;
#X connect 15 0 13 0;
#X connect 16 0 8 0;
#X connect 16 1 15 0;
#X connect 18 0 28 0;
#X connect 18 1 19 0;
#X connect 19 0 13 0;
#X connect 19 0 6 0;
#X connect 20 0 16 0;
#X connect 22 0 2 0;
#X connect 23 0 20 0;
#X connect 23 1 25 0;
#X connect 25 0 6 0;
#X connect 26 0 7 0;
#X connect 28 0 29 0;
#X connect 28 1 29 1;
#X connect 28 2 32 0;
#X connect 28 3 29 10;
#X connect 29 0 23 0;
#X connect 30 0 20 1;
#X connect 31 0 20 2;
#X connect 32 1 30 0;
#X connect 32 2 31 0;
