#N struct net_array float x float y array netwks net_struct;
#N struct net_struct float x float y float angle float dist float channel
float innocence float v float netnum float color float datarank;
#N canvas 166 316 845 544 10;
#N canvas 38 340 951 457 network 0;
#X obj 25 58 OSChead;
#N canvas 217 401 518 368 net_struct 0;
#X obj 55 127 filledpolygon -v v 553 0 1 -1 -1 -1 1 1 1 1 -1;
#X obj 53 59 struct net_struct float x float y float angle float dist
float channel float innocence float v float netnum float color float
datarank;
#X restore 644 253 pd net_struct;
#N canvas 0 22 458 308 net_pool 0;
#X scalar net_array 0 0 \; 0 0 0 0 0 0 0 0 0 0 \; 0 0 0 0 0 0 0 0 0
0 \; 0 0 0 0 0 0 0 0 0 0 \; 0 0 0 0 0 0 0 0 0 0 \; 0 0 0 0 0 0 0 0
0 0 \; 0 0 0 0 0 0 0 0 0 0 \; 0 0 0 0 0 0 0 0 0 0 \; 0 0 0 0 0 0 0
0 0 0 \; 0 0 0 0 0 0 0 0 0 0 \; 0 0 0 0 0 0 0 0 0 0 \; 0 0 0 0 0 0
0 0 0 0 \; 0 0 0 0 0 0 0 0 0 0 \; 0 0 0 0 0 0 0 0 0 0 \; 0 0 0 0 0
0 0 0 0 0 \; 0 0 0 0 0 0 0 0 0 0 \; 0 0 0 0 0 0 0 0 0 0 \; 0 0 0 0
0 0 0 0 0 0 \; 0 0 0 0 0 0 0 0 0 0 \; 0 0 0 0 0 0 0 0 0 0 \; 0 0 0
0 0 0 0 0 0 0 \; 0 0 0 0 0 0 0 0 0 0 \; 0 0 0 0 0 0 0 0 0 0 \; 0 0
0 0 0 0 0 0 0 0 \; 0 0 0 0 0 0 0 0 0 0 \; 0 0 0 0 0 0 0 0 0 0 \; 0
0 0 0 0 0 0 0 0 0 \; 0 0 0 0 0 0 0 0 0 0 \; 0 0 0 0 0 0 0 0 0 0 \;
0 0 0 0 0 0 0 0 0 0 \; 0 0 0 0 0 0 0 0 0 0 \; 0 0 0 0 0 0 0 0 0 0 \;
0 0 0 0 0 0 0 0 0 0 \; 0 0 0 0 0 0 0 0 0 0 \; 0 0 0 0 0 0 0 0 0 0 \;
0 0 0 0 0 0 0 0 0 0 \; 0 0 0 0 0 0 0 0 0 0 \; -3.10308 -0.044477 2.30866
3.10339 7 72 1 0 0 0.256944 \; 0 0 0 0 0 0 0 0 0 0 \; 0 0 0 0 0 0 0
0 0 0 \; 0 0 0 0 0 0 0 0 0 0 \; 0 0 0 0 0 0 0 0 0 0 \; 0 0 0 0 0 0
0 0 0 0 \; 0 0 0 0 0 0 0 0 0 0 \; 0 0 0 0 0 0 0 0 0 0 \; 0 0 0 0 0
0 0 0 0 0 \; 0 0 0 0 0 0 0 0 0 0 \; 0 0 0 0 0 0 0 0 0 0 \; 0 0 0 0
0 0 0 0 0 0 \; 0 0 0 0 0 0 0 0 0 0 \; 0 0 0 0 0 0 0 0 0 0 \; 0 0 0
0 0 0 0 0 0 0 \; 0 0 0 0 0 0 0 0 0 0 \; 0 0 0 0 0 0 0 0 0 0 \; 0 0
0 0 0 0 0 0 0 0 \; 0 0 0 0 0 0 0 0 0 0 \; 0 0 0 0 0 0 0 0 0 0 \; 0
0 0 0 0 0 0 0 0 0 \; 0 0 0 0 0 0 0 0 0 0 \; 0 0 0 0 0 0 0 0 0 0 \;
0 0 0 0 0 0 0 0 0 0 \; 0 0 0 0 0 0 0 0 0 0 \; 0 0 0 0 0 0 0 0 0 0 \;
0 0 0 0 0 0 0 0 0 0 \; 0 0 0 0 0 0 0 0 0 0 \; 0 0 0 0 0 0 0 0 0 0 \;
0 0 0 0 0 0 0 0 0 0 \; 0 0 0 0 0 0 0 0 0 0 \; 0 0 0 0 0 0 0 0 0 0 \;
0 0 0 0 0 0 0 0 0 0 \; 0 0 0 0 0 0 0 0 0 0 \; 0 0 0 0 0 0 0 0 0 0 \;
0 0 0 0 0 0 0 0 0 0 \; 0 0 0 0 0 0 0 0 0 0 \; 0 0 0 0 0 0 0 0 0 0 \;
0 0 0 0 0 0 0 0 0 0 \; 0 0 0 0 0 0 0 0 0 0 \; 0 0 0 0 0 0 0 0 0 0 \;
0 0 0 0 0 0 0 0 0 0 \; 0 0 0 0 0 0 0 0 0 0 \; 0 0 0 0 0 0 0 0 0 0 \;
0 0 0 0 0 0 0 0 0 0 \; 0 0 0 0 0 0 0 0 0 0 \; 0 0 0 0 0 0 0 0 0 0 \;
0 0 0 0 0 0 0 0 0 0 \; 0 0 0 0 0 0 0 0 0 0 \; 0 0 0 0 0 0 0 0 0 0 \;
0 0 0 0 0 0 0 0 0 0 \; 0 0 0 0 0 0 0 0 0 0 \; 0 0 0 0 0 0 0 0 0 0 \;
0 0 0 0 0 0 0 0 0 0 \; 0 0 0 0 0 0 0 0 0 0 \; 0 0 0 0 0 0 0 0 0 0 \;
0 0 0 0 0 0 0 0 0 0 \; 0 0 0 0 0 0 0 0 0 0 \; 0 0 0 0 0 0 0 0 0 0 \;
-4.2216 -1.27979 2.30866 4.41132 11 75 1 0 0 0.666667 \; 0 0 0 0 0
0 0 0 0 0 \; 0 0 0 0 0 0 0 0 0 0 \; -5.14676 -1.73858 2.30866 5.43248
3 75 1 0 0 0.6875 \; 0 0 0 0 0 0 0 0 0 0 \; 0 0 0 0 0 0 0 0 0 0 \;
0 0 0 0 0 0 0 0 0 0 \; 0 0 0 0 0 0 0 0 0 0 \; 0 0 0 0 0 0 0 0 0 0 \;
0 0 0 0 0 0 0 0 0 0 \; 0 0 0 0 0 0 0 0 0 0 \; 0 0 0 0 0 0 0 0 0 0 \;
0 0 0 0 0 0 0 0 0 0 \; 0 0 0 0 0 0 0 0 0 0 \; 0 0 0 0 0 0 0 0 0 0 \;
0 0 0 0 0 0 0 0 0 0 \; 0 0 0 0 0 0 0 0 0 0 \; 0 0 0 0 0 0 0 0 0 0 \;
0 0 0 0 0 0 0 0 0 0 \; 0 0 0 0 0 0 0 0 0 0 \; 0 0 0 0 0 0 0 0 0 0 \;
0 0 0 0 0 0 0 0 0 0 \; 0 0 0 0 0 0 0 0 0 0 \; 0 0 0 0 0 0 0 0 0 0 \;
0 0 0 0 0 0 0 0 0 0 \; 0 0 0 0 0 0 0 0 0 0 \; 0 0 0 0 0 0 0 0 0 0 \;
0 0 0 0 0 0 0 0 0 0 \; 0 0 0 0 0 0 0 0 0 0 \; 0 0 0 0 0 0 0 0 0 0 \;
0 0 0 0 0 0 0 0 0 0 \; 0 0 0 0 0 0 0 0 0 0 \; 0 0 0 0 0 0 0 0 0 0 \;
\;;
#X coords -20 -20 20 20 200 200 1;
#X restore 644 50 pd net_pool;
#X obj 69 90 change -1;
#X obj 98 275 OSCroute /bang;
#N canvas 0 22 502 352 net_array 0;
#X obj 47 45 struct net_array float x float y array netwks net_struct
;
#X obj 47 95 plot netwks 0 0 0 0;
#X restore 644 272 pd net_array;
#N canvas 0 22 475 365 net_pool_setup 0;
#X obj 29 25 inlet;
#X msg 87 76 clear;
#X obj 30 52 t b b;
#X msg 31 117 traverse pd-net_pool \, bang;
#X obj 87 97 s pd-net_pool;
#X obj 31 280 s \$0-npoolptr;
#X msg 85 199 0;
#X msg 57 202 0;
#X obj 57 256 s \$0-narrayptr;
#X obj 56 230 append net_array x y;
#X obj 30 147 pointer;
#X obj 32 175 t p b b p;
#X connect 0 0 2 0;
#X connect 1 0 4 0;
#X connect 2 0 3 0;
#X connect 2 1 1 0;
#X connect 3 0 10 0;
#X connect 6 0 9 1;
#X connect 7 0 9 0;
#X connect 9 0 8 0;
#X connect 10 0 11 0;
#X connect 11 0 5 0;
#X connect 11 1 7 0;
#X connect 11 2 6 0;
#X connect 11 3 9 2;
#X restore 485 51 pd net_pool_setup;
#X obj 345 97 r \$0-narrayptr;
#X obj 265 157 setsize net_array netwks;
#X obj 265 97 max;
#X obj 265 117 change 0;
#X obj 69 115 t f f;
#X obj 69 136 element net_array netwks;
#X obj 69 157 s \$0-anet;
#X text 85 53 get networks and resize array if nessesary;
#X obj 315 77 r \$0-zero;
#N canvas 28 284 780 442 storenet 0;
#X obj 51 64 inlet;
#X obj 115 60 inlet;
#X text 50 33 bang;
#X text 119 34 osc input;
#X obj 196 168 OSCroute /innocence /datarank;
#X obj 472 252 r \$0-anet;
#X obj 265 248 r \$0-one;
#X obj 118 122 OSCroute /localpos /stat /channel;
#X obj 69 200 f;
#N canvas 129 294 558 424 normlz 0;
#X obj 43 60 inlet;
#X obj 92 59 inlet;
#X obj 53 207 outlet;
#X obj 92 90 t f f;
#X msg 92 112 1;
#X obj 93 138 /;
#X obj 53 180 *;
#X connect 0 0 6 0;
#X connect 1 0 3 0;
#X connect 3 0 4 0;
#X connect 3 1 5 1;
#X connect 4 0 5 0;
#X connect 5 0 6 1;
#X connect 6 0 2 0;
#X restore 329 220 pd normlz;
#X obj 447 70 r info;
#X text 447 50 get info data;
#X obj 448 90 OSCroute /networks;
#X obj 73 287 set net_struct x y angle dist v innocence datarank channel
;
#X obj 90 170 unpack f f f f;
#X connect 0 0 8 0;
#X connect 1 0 7 0;
#X connect 4 0 13 5;
#X connect 4 1 9 0;
#X connect 5 0 13 8;
#X connect 6 0 13 4;
#X connect 7 0 14 0;
#X connect 7 1 4 0;
#X connect 7 2 13 7;
#X connect 8 0 13 0;
#X connect 9 0 13 6;
#X connect 10 0 12 0;
#X connect 12 0 9 1;
#X connect 14 0 8 1;
#X connect 14 1 13 1;
#X connect 14 2 13 2;
#X connect 14 3 13 3;
#X restore 25 381 pd storenet;
#X obj 24 246 OSCroute /bang /packet;
#N canvas 215 91 787 436 packet 0;
#X obj 38 20 inlet;
#X obj 568 26 inlet;
#X obj 57 68 pointer;
#X obj 102 42 r \$0-anet;
#X text 40 2 bang;
#X text 568 6 osc data;
#X obj 88 203 s \$0-to_drone;
#X msg 87 177 send /drone/packet \$1 \$2;
#X obj 87 151 pack;
#X obj 57 89 t p p;
#X obj 57 245 outlet;
#X obj 87 117 get net_struct innocence channel;
#X connect 0 0 2 0;
#X connect 2 0 9 0;
#X connect 3 0 2 1;
#X connect 7 0 6 0;
#X connect 8 0 7 0;
#X connect 9 0 10 0;
#X connect 9 1 11 0;
#X connect 11 0 8 0;
#X connect 11 1 8 1;
#X restore 99 306 pd packet;
#X text 70 175 set active pointer;
#X text 35 228 dissect network message;
#X floatatom 329 139 5 0 0 0 - - -;
#X obj 265 137 t f f f;
#X obj 24 29 inlet;
#X obj 485 30 inlet;
#X obj 99 330 pack p f;
#X obj 98 351 s do_packet;
#X connect 0 0 17 0;
#X connect 0 1 3 0;
#X connect 3 0 11 0;
#X connect 4 0 18 0;
#X connect 4 1 18 1;
#X connect 7 0 8 1;
#X connect 7 0 12 1;
#X connect 9 0 10 0;
#X connect 10 0 22 0;
#X connect 11 0 12 0;
#X connect 11 1 9 0;
#X connect 12 0 13 0;
#X connect 15 0 9 1;
#X connect 15 0 21 0;
#X connect 17 0 16 0;
#X connect 17 1 4 0;
#X connect 17 2 16 1;
#X connect 18 0 25 0;
#X connect 22 0 8 0;
#X connect 22 1 9 1;
#X connect 22 2 21 0;
#X connect 23 0 0 0;
#X connect 24 0 6 0;
#X connect 25 0 26 0;
#X restore 27 150 pd network;
#X text 22 103 data dissection;
#X text 26 20 control i/o;
#X text 572 35 (re-)initialization;
#X obj 602 61 loadbang;
#X obj 584 62 bng 15 250 50 0 empty empty empty 0 -6 0 8 -262144 -1
-1;
#X obj 618 133 s \$0-zero;
#X msg 617 111 0;
#X obj 551 135 s \$0-one;
#X msg 578 113 1;
#X obj 524 113 s \$0-lb;
#X obj 90 128 r \$0-lb;
#X obj 26 125 r net;
#N canvas 211 321 523 227 k2o-oscin 0;
#X obj 8 -170 OSCroute /kismet;
#X obj 9 -109 s net;
#X obj 66 -112 s cli;
#X obj 124 -113 s gps;
#X obj 180 -113 s info;
#X obj 242 -113 s card;
#X obj 297 -112 s packet;
#X text 4 -234 receive k2o-osc messages and route them internally;
#X obj 9 -144 OSCroute /network /client /gps /info /card /packet /time
;
#X obj 364 -112 OSCroute /timesec;
#X obj 364 -82 s timesec;
#X obj 8 -197 dumpOSC 12345;
#X connect 0 0 8 0;
#X connect 8 0 1 0;
#X connect 8 1 2 0;
#X connect 8 2 3 0;
#X connect 8 3 4 0;
#X connect 8 4 5 0;
#X connect 8 5 6 0;
#X connect 8 6 9 0;
#X connect 9 0 10 0;
#X connect 11 0 0 0;
#X restore 27 40 pd k2o-oscin;
#N canvas 501 85 650 530 drone-oscin 1;
#X obj 17 20 dumpOSC 9998;
#X obj 17 41 OSCroute /soupshot;
#X obj 4 345 makesymbol ../data/shot%s_%s.wav;
#X obj 3 368 s \$0-opensound;
#X obj 17 173 unpack f f;
#X obj 20 211 moses 10;
#X obj 144 210 moses 10;
#X obj 143 259 makefilename 0%d;
#X obj 193 236 makefilename %d;
#X obj 7 320 pack s s;
#X obj 69 234 makefilename %d;
#X obj 16 258 makefilename 0%d;
#X msg 54 87 1 1;
#X msg 194 92 1 3;
#X obj 18 132 t l l;
#X obj 32 287 t s s;
#X obj 190 464 s \$0-openlog;
#X obj 191 411 makesymbol /Users/lo/Development/Projects/k2o/k2o-data/pd-lo/data/shot%s.txt
;
#X msg 231 92 3 3;
#X obj 215 370 makesymbol /home/bek/k2o/k2o-data/pd-lo/data/shot%s.txt
;
#X msg 86 87 1 3;
#X msg 120 86 1 4;
#X connect 0 0 1 0;
#X connect 1 0 14 0;
#X connect 2 0 3 0;
#X connect 4 0 5 0;
#X connect 4 1 6 0;
#X connect 5 0 11 0;
#X connect 5 1 10 0;
#X connect 6 0 7 0;
#X connect 6 1 8 0;
#X connect 7 0 9 1;
#X connect 8 0 9 1;
#X connect 9 0 2 0;
#X connect 11 0 15 0;
#X connect 12 0 14 0;
#X connect 13 0 14 0;
#X connect 14 0 4 0;
#X connect 15 0 9 0;
#X connect 15 1 19 0;
#X connect 17 0 16 0;
#X connect 18 0 14 0;
#X connect 19 0 16 0;
#X connect 20 0 14 0;
#X connect 21 0 14 0;
#X restore 124 41 pd drone-oscin;
#N canvas 377 378 417 234 drone-oscout 0;
#X obj 27 147 sendOSC;
#X obj 28 34 inlet;
#X text 29 15 data;
#X text 168 9 loadbang;
#X obj 170 32 inlet;
#X msg 167 68 connect 127.0.0.1 9999;
#X msg 188 95 connect 185.37.56.8;
#X connect 1 0 0 0;
#X connect 4 0 5 0;
#X connect 5 0 0 0;
#X connect 6 0 0 0;
#X restore 249 40 pd drone-oscout;
#X obj 249 19 r \$0-to_drone;
#X obj 348 19 r \$0-lb;
#X text 25 211 audiogen;
#X text 125 410 mix + output;
#N canvas 345 195 436 409 mixer 0;
#X obj 101 243 vbap 0 0;
#X obj 224 151 t f f;
#X obj 223 178 bng 15 250 50 0 empty empty empty 0 -6 0 8 -262144 -1
-1;
#X text 191 22 receive mixer value requests;
#X text 167 282 send results;
#X obj 40 134 inlet;
#X obj 105 122 inlet;
#X obj 169 144 inlet;
#X text 35 110 azimuth;
#X text 104 99 elevation;
#X text 167 124 spread;
#X msg 253 227 list \$1;
#X obj 169 298 glue;
#X obj 169 323 s gv-levels;
#X obj 224 128 r gv;
#X obj 22 205 r \$0-lsp;
#X connect 0 0 12 0;
#X connect 1 0 2 0;
#X connect 1 1 11 0;
#X connect 2 0 0 0;
#X connect 5 0 0 1;
#X connect 6 0 0 2;
#X connect 7 0 0 3;
#X connect 11 0 12 1;
#X connect 12 0 13 0;
#X connect 14 0 1 0;
#X connect 15 0 0 0;
#X restore 226 339 pd mixer;
#N canvas 247 22 633 479 multi 0;
#X obj 21 93 catch~ chan-1;
#X obj 143 144 dac~ 1 2 3 4 5 6 7 8;
#X obj 63 72 catch~ chan-2;
#X obj 125 50 catch~ chan-3;
#X obj 185 31 catch~ chan-4;
#X obj 287 31 catch~ chan-5;
#X obj 388 32 catch~ chan-6;
#X obj 454 54 catch~ chan-7;
#X obj 503 76 catch~ chan-8;
#X text 33 22 output;
#N canvas 0 22 980 463 s__c__o__p__e__s 0;
#X obj 193 43 inlet~;
#X obj 255 43 inlet~;
#X obj 309 44 inlet~;
#X obj 371 47 inlet~;
#X obj 425 47 inlet~;
#X obj 486 50 inlet~;
#X obj 542 46 inlet~;
#X obj 603 47 inlet~;
#N canvas 0 22 450 300 graph4 0;
#X array c1 440 float 0;
#X coords 0 1 439 -1 100 140 1;
#X restore 46 208 graph;
#N canvas 0 22 450 300 graph7 0;
#X array c2 440 float 2;
#X coords 0 1 440 -1 100 140 1;
#X restore 148 208 graph;
#N canvas 0 22 450 300 graph8 0;
#X array c3 440 float 2;
#X coords 0 1 440 -1 100 140 1;
#X restore 250 208 graph;
#N canvas 0 22 450 300 graph9 0;
#X array c4 440 float 2;
#X coords 0 1 440 -1 100 140 1;
#X restore 352 208 graph;
#N canvas 0 22 450 300 graph10 0;
#X array c5 440 float 2;
#X coords 0 1 440 -1 100 140 1;
#X restore 454 208 graph;
#N canvas 0 22 450 300 graph11 0;
#X array c6 440 float 2;
#X coords 0 1 440 -1 100 140 1;
#X restore 556 208 graph;
#N canvas 0 22 450 300 graph12 0;
#X array c7 440 float 2;
#X coords 0 1 440 -1 100 140 1;
#X restore 658 208 graph;
#N canvas 0 22 450 300 graph12 0;
#X array c8 440 float 2;
#X coords 0 1 440 -1 100 140 1;
#X restore 760 208 graph;
#X obj 191 143 tabwrite~ c1;
#X obj 254 165 tabwrite~ c2;
#X obj 308 143 tabwrite~ c3;
#X obj 372 168 tabwrite~ c4;
#X obj 424 141 tabwrite~ c5;
#X obj 488 166 tabwrite~ c6;
#X obj 543 141 tabwrite~ c7;
#X obj 602 165 tabwrite~ c8;
#X obj 109 45 metro 100;
#X obj 78 45 tgl 15 0 empty empty empty 0 -6 0 8 -262144 -1 -1 0 1
;
#X obj 108 69 bng 15 250 50 0 empty empty empty 0 -6 0 8 -262144 -1
-1;
#X connect 0 0 16 0;
#X connect 1 0 17 0;
#X connect 2 0 18 0;
#X connect 3 0 19 0;
#X connect 4 0 20 0;
#X connect 5 0 21 0;
#X connect 6 0 22 0;
#X connect 7 0 23 0;
#X connect 24 0 26 0;
#X connect 25 0 24 0;
#X connect 26 0 16 0;
#X connect 26 0 17 0;
#X connect 26 0 18 0;
#X connect 26 0 19 0;
#X connect 26 0 20 0;
#X connect 26 0 21 0;
#X connect 26 0 22 0;
#X connect 26 0 23 0;
#X restore 298 143 pd s__c__o__p__e__s;
#X obj 108 423 writesf~ 2;
#X msg 175 367 start;
#X msg 207 392 stop;
#X obj 175 344 select 1 0;
#X obj 21 318 bng 20 250 50 0 empty empty OPEN 0 -6 0 8 -260818 -1
-1;
#X obj 20 356 savepanel;
#X obj 176 318 tgl 20 0 empty empty REC 0 -6 0 8 -24198 -1 -1 0 1;
#X msg 20 378 open -aiff \$1;
#X connect 0 0 1 0;
#X connect 0 0 10 0;
#X connect 0 0 11 0;
#X connect 2 0 1 1;
#X connect 2 0 10 1;
#X connect 2 0 11 1;
#X connect 3 0 1 2;
#X connect 3 0 10 2;
#X connect 4 0 1 3;
#X connect 4 0 10 3;
#X connect 5 0 1 4;
#X connect 5 0 10 4;
#X connect 6 0 1 5;
#X connect 6 0 10 5;
#X connect 7 0 1 6;
#X connect 7 0 10 6;
#X connect 8 0 1 7;
#X connect 8 0 10 7;
#X connect 12 0 11 0;
#X connect 13 0 11 0;
#X connect 14 0 12 0;
#X connect 14 1 13 0;
#X connect 15 0 16 0;
#X connect 16 0 18 0;
#X connect 17 0 14 0;
#X connect 18 0 11 0;
#X restore 127 433 pd multi out;
#N canvas 235 236 548 459 channel 0;
#X obj 38 40 inlet;
#X obj 39 202 phasor~;
#X obj 112 43 inlet;
#X obj 49 250 *~;
#X obj 112 191 line~;
#X obj 39 178 line~;
#X obj 188 43 inlet;
#X text 188 22 packet rate;
#X text 110 19 datarank;
#X text 37 18 channel;
#X obj 27 373 throw~ chan-1;
#X obj 68 348 throw~ chan-2;
#X obj 40 313 lp2~ 80 0.7 200;
#X obj 118 276 * 1;
#X obj 37 120 t f f;
#X obj 38 64 * 5;
#X obj 38 88 + 30;
#X obj 174 238 line;
#X obj 181 175 t f f;
#X msg 113 166 \$1 1000;
#X msg 209 208 1000;
#X msg 38 154 \$1 500;
#X obj 112 80 * 0.1;
#X connect 0 0 15 0;
#X connect 1 0 3 0;
#X connect 2 0 22 0;
#X connect 3 0 12 0;
#X connect 4 0 3 1;
#X connect 5 0 1 0;
#X connect 6 0 18 0;
#X connect 12 0 10 0;
#X connect 12 0 11 0;
#X connect 13 0 12 1;
#X connect 14 0 21 0;
#X connect 14 1 13 0;
#X connect 15 0 16 0;
#X connect 16 0 14 0;
#X connect 17 0 13 1;
#X connect 18 0 17 0;
#X connect 18 1 20 0;
#X connect 19 0 4 0;
#X connect 20 0 17 1;
#X connect 21 0 5 0;
#X connect 22 0 19 0;
#X restore 276 451 pd channel wave;
#X obj 93 209 r do_packet;
#X obj 65 397 bng 15 250 50 0 empty empty empty 0 -6 0 8 -262144 -1
-1;
#X text 83 398 overload;
#N canvas 216 86 967 768 soundplayer 0;
#X obj 550 84 table \$0-env 1024;
#X obj 552 9 \$0;
#X msg 551 30 \; \$1-env cosinesum 1024 0.5 -0.5 \;;
#X obj 116 136 soundfiler;
#X text 550 131 sampletable;
#X text 548 64 envelope;
#X obj 116 163 s \$0-sz;
#X obj 551 150 table \$0-sample 5;
#X msg 121 277 set \$1;
#X msg 52 165 stop;
#X obj 78 529 throw~ chan-1;
#X obj 122 257 symbol \$0-sample;
#X obj 551 175 table \$0-sample-r 5;
#X msg 117 114 read -resize \$1 \$2 \$3;
#X obj 96 9 inlet;
#X obj 186 529 throw~ chan-2;
#X obj 298 528 throw~ chan-3;
#X obj 412 527 throw~ chan-4;
#X obj 515 527 throw~ chan-5;
#X obj 618 526 throw~ chan-6;
#X obj 44 469 *~;
#X obj 91 468 *~;
#X obj 143 469 *~;
#X obj 184 468 *~;
#X obj 235 469 *~;
#X obj 285 468 *~;
#X obj 253 343 route 0 1 2 3 4 5;
#X msg 472 283 set \$1;
#X obj 472 264 symbol \$0-sample-r;
#X obj 632 265 r \$0-lsp;
#X obj 453 449 *~;
#X obj 500 448 *~;
#X obj 552 449 *~;
#X obj 593 448 *~;
#X obj 644 449 *~;
#X obj 694 448 *~;
#X obj 638 387 route 0 1 2 3 4 5;
#X obj 638 360 vbap 0 0;
#X msg 676 337 45;
#X obj 653 286 r \$0-lb;
#X msg 710 336 20;
#X obj 259 236 r \$0-lsp;
#X obj 254 320 vbap 0 0;
#X obj 269 256 r \$0-lb;
#X msg 322 297 20;
#X msg 292 297 -45;
#X obj 655 305 t b b b;
#X obj 271 275 t b b b;
#X obj 117 95 pack s s s;
#X obj 96 31 t b s b b;
#X obj 147 52 symbol \$0-sample;
#X obj 182 73 symbol \$0-sample-r;
#X obj 471 235 r \$0-lb;
#X obj 121 230 r \$0-lb;
#X floatatom 182 164 5 0 0 0 - - -;
#X obj 117 307 tabplay~;
#X obj 117 339 *~ 0.3;
#X obj 472 308 tabplay~;
#X obj 474 340 *~ 0.3;
#X obj 111 207 t a a;
#X obj 552 -18 r \$0-lb;
#X obj 52 144 r \$0-stop;
#X obj 88 168 bng 15 250 50 0 empty empty empty 0 -6 0 8 -262144 -1
-1;
#X obj 59 449 f;
#X obj 106 449 f;
#X obj 155 450 f;
#X obj 194 447 f;
#X obj 249 446 f;
#X obj 299 447 f;
#X obj 468 428 f;
#X obj 515 428 f;
#X obj 564 429 f;
#X obj 603 426 f;
#X obj 658 425 f;
#X obj 708 426 f;
#X connect 1 0 2 0;
#X connect 3 0 6 0;
#X connect 3 0 54 0;
#X connect 8 0 55 0;
#X connect 9 0 59 0;
#X connect 11 0 8 0;
#X connect 13 0 3 0;
#X connect 14 0 49 0;
#X connect 20 0 10 0;
#X connect 21 0 15 0;
#X connect 22 0 16 0;
#X connect 23 0 17 0;
#X connect 24 0 18 0;
#X connect 25 0 19 0;
#X connect 26 0 63 0;
#X connect 26 1 64 0;
#X connect 26 2 65 0;
#X connect 26 3 66 0;
#X connect 26 4 67 0;
#X connect 26 5 68 0;
#X connect 27 0 57 0;
#X connect 28 0 27 0;
#X connect 29 0 37 0;
#X connect 30 0 10 0;
#X connect 31 0 15 0;
#X connect 32 0 16 0;
#X connect 33 0 17 0;
#X connect 34 0 18 0;
#X connect 35 0 19 0;
#X connect 36 0 69 0;
#X connect 36 1 70 0;
#X connect 36 2 71 0;
#X connect 36 3 72 0;
#X connect 36 4 73 0;
#X connect 36 5 74 0;
#X connect 37 0 36 0;
#X connect 38 0 37 1;
#X connect 39 0 46 0;
#X connect 40 0 37 3;
#X connect 41 0 42 0;
#X connect 42 0 26 0;
#X connect 43 0 47 0;
#X connect 44 0 42 3;
#X connect 45 0 42 1;
#X connect 46 0 37 0;
#X connect 46 1 38 0;
#X connect 46 2 40 0;
#X connect 47 0 42 0;
#X connect 47 1 45 0;
#X connect 47 2 44 0;
#X connect 48 0 13 0;
#X connect 49 0 59 0;
#X connect 49 1 48 0;
#X connect 49 2 50 0;
#X connect 49 3 51 0;
#X connect 50 0 48 1;
#X connect 51 0 48 2;
#X connect 52 0 28 0;
#X connect 53 0 11 0;
#X connect 55 0 56 0;
#X connect 55 1 59 0;
#X connect 56 0 25 0;
#X connect 56 0 24 0;
#X connect 56 0 23 0;
#X connect 56 0 22 0;
#X connect 56 0 21 0;
#X connect 56 0 20 0;
#X connect 57 0 58 0;
#X connect 58 0 30 0;
#X connect 58 0 31 0;
#X connect 58 0 32 0;
#X connect 58 0 34 0;
#X connect 58 0 33 0;
#X connect 58 0 35 0;
#X connect 59 0 55 0;
#X connect 59 1 57 0;
#X connect 60 0 1 0;
#X connect 61 0 9 0;
#X connect 62 0 59 0;
#X connect 63 0 20 1;
#X connect 64 0 21 1;
#X connect 65 0 22 1;
#X connect 66 0 23 1;
#X connect 67 0 24 1;
#X connect 68 0 25 1;
#X connect 69 0 30 1;
#X connect 70 0 31 1;
#X connect 71 0 32 1;
#X connect 72 0 33 1;
#X connect 73 0 34 1;
#X connect 74 0 35 1;
#X restore 513 334 pd soundplayer;
#X text 510 246 soundplayer;
#X obj 626 156 define_loudspeakers 2 -89 89;
#X obj 627 183 s \$0-lsp;
#X obj 511 268 bng 15 250 50 0 empty empty empty 0 -6 0 8 -262144 -1
-1;
#X obj 512 289 openpanel;
#X obj 584 289 r \$0-opensound;
#X text 514 355 logplayer;
#N canvas 334 297 619 430 logplayer 0;
#X obj 39 50 inlet;
#X obj 106 322 shell;
#X msg 40 105 /usr/bin/killall k2oplay;
#X obj 40 127 shell;
#X obj 107 373 print k2o;
#X obj 41 155 print killall;
#X obj 134 350 bng 15 250 50 0 empty empty empty 0 -6 0 8 -262144 -1
-1;
#X msg 106 247 list /home/bek/k2o/k2o-data/pd-lo/data/shot03.txt;
#X msg 127 225 set list \$1;
#X obj 99 200 spigot;
#X obj 39 77 t b s b;
#X msg 145 155 0;
#X msg 180 156 1;
#X obj 118 51 r \$0-stop;
#X obj 117 73 t b b;
#X msg 105 300 /usr/local/bin/k2oplay -l -d3 \$1 osc.udp://127.0.0.1:12345
;
#X connect 0 0 10 0;
#X connect 1 0 4 0;
#X connect 1 1 6 0;
#X connect 2 0 3 0;
#X connect 3 0 5 0;
#X connect 3 1 9 0;
#X connect 7 0 15 0;
#X connect 8 0 7 0;
#X connect 9 0 7 0;
#X connect 10 0 2 0;
#X connect 10 1 8 0;
#X connect 10 2 12 0;
#X connect 11 0 9 1;
#X connect 12 0 9 1;
#X connect 13 0 14 0;
#X connect 14 0 2 0;
#X connect 14 1 11 0;
#X connect 15 0 1 0;
#X restore 516 426 pd logplayer;
#X obj 517 372 bng 15 250 50 0 empty empty empty 0 -6 0 8 -262144 -1
-1;
#X obj 518 393 openpanel;
#X obj 590 393 r \$0-openlog;
#X obj 66 312 symbol \$0-sample;
#X obj 147 289 symbol \$0-env;
#X obj 66 336 pack s f p s;
#X obj 75 258 t b p b;
#X obj 92 289 r \$0-sz;
#X obj 91 231 unpack p f;
#X obj 593 83 t b b b b b;
#X obj 666 109 s \$0-stop;
#X msg 272 318 20;
#X obj 611 203 s lsp;
#X obj 65 373 nqpoly4 16 nqgrain gv chan;
#X connect 4 0 44 0;
#X connect 5 0 44 0;
#X connect 7 0 6 0;
#X connect 9 0 8 0;
#X connect 11 0 0 1;
#X connect 12 0 0 0;
#X connect 16 0 15 0;
#X connect 17 0 15 1;
#X connect 23 0 43 0;
#X connect 28 0 29 0;
#X connect 28 0 47 0;
#X connect 30 0 31 0;
#X connect 31 0 26 0;
#X connect 32 0 26 0;
#X connect 35 0 36 0;
#X connect 36 0 34 0;
#X connect 37 0 34 0;
#X connect 38 0 40 0;
#X connect 39 0 40 3;
#X connect 40 0 48 0;
#X connect 41 0 38 0;
#X connect 41 1 40 2;
#X connect 41 2 39 0;
#X connect 42 0 40 1;
#X connect 43 0 41 0;
#X connect 43 1 20 0;
#X connect 44 0 10 0;
#X connect 44 1 9 0;
#X connect 44 2 7 0;
#X connect 44 3 28 0;
#X connect 44 4 45 0;
#X connect 46 0 20 2;
#X connect 48 0 24 0;
