#N struct net_array float x float y array netwks net_struct;
#N struct net_struct float x float y float angle float dist float channel
float innocence float v float netnum float color float datarank;
#N canvas 118 146 869 568 10;
#N canvas 37 32 991 497 network 0;
#X obj 25 58 OSChead;
#N canvas 217 401 518 368 net_struct 0;
#X obj 55 127 filledpolygon -v v 553 0 1 -1 -1 -1 1 1 1 1 -1;
#X obj 53 59 struct net_struct float x float y float angle float dist
float channel float innocence float v float netnum float color float
datarank;
#X restore 644 253 pd net_struct;
#N canvas 0 22 458 308 net_pool 0;
#X scalar net_array 0 0 \; 0.149577 1.61259 0.043556 1.61951 11 55
1 0 0 0 \; 0.141352 1.82907 0.043556 1.83452 11 76 1 0 0 0.176471 \;
0.116213 1.16971 0.043556 1.17547 11 75 1 0 0 0.294118 \; 0.135435
1.49624 0.043556 1.50235 6 100 1 0 0 0.352941 \; 0.102153 1.25065 0.043556
1.25482 6 100 1 0 0 0.411765 \; 0.114314 1.29713 0.043556 1.30216 6
75 1 0 0 0.470588 \; 0.143236 1.6007 0.043556 1.6071 11 100 1 0 0 0.529412
\; 0.154095 1.54922 0.043556 1.55687 9 52 1 0 0 0 \; 0.162434 1.63322
0.043556 1.64128 6 31 1 0 0 0.0588235 \; 0.109425 1.33307 0.043556
1.33756 11 75 1 0 0 0.588235 \; 0.013155 0.166634 0.043556 0.167153
2 100 1 0 0 0.647059 \; -0.012756 -0.148119 0.043556 0.148668 6 75
1 0 0 0.647059 \; -0.006478 -0.374927 0.043556 0.374983 11 100 1 0
0 0.705882 \; 0.055609 1.52748 0.043556 1.52849 0 66 1 0 0 0 \; 0 0
0 0 0 50 1 0 0 0.0965517 \; -0.002551 0.081466 0.043556 0.081506 0
100 1 0 0 0.9375 \; -0.011959 0.444358 0.043556 0.444519 6 75 1 0 0
1 \; 0 0 0.043556 0 0 100 1 0 0 1 \; -22.0177 20.8814 2.30866 30.3449
1 74 1 0 0 0.138889 \; 0 0 0 0 6 69 1 0 0 0.234568 \; 0 0 0 0 11 75
1 0 0 0.246914 \; 0 0 0 0 0 100 1 0 0 0.259259 \; 0 0 0 0 0 50 1 0
0 0.271605 \; 0 0 0 0 6 100 1 0 0 0.283951 \; 0 0 0 0 6 75 1 0 0 0.296296
\; 0 0 0 0 0 100 1 0 0 0.308642 \; 0 0 0 0 1 75 1 0 0 0.320988 \; 0
0 0 0 6 31 1 0 0 0.333333 \; 0 0 0 0 11 100 1 0 0 0.345679 \; 0 0 0
0 10 75 1 0 0 0.358025 \; -32.6098 -28.4613 2.30866 43.2833 5 100 1
0 0 0.222222 \; 0 0 0 0 7 75 1 0 0 0.382716 \; 0 0 0 0 10 75 1 0 0
0.395062 \; 0 0 0 0 11 100 1 0 0 0.407407 \; 0 0 0 0 11 75 1 0 0 0.419753
\; 0 0 0 0 8 75 1 0 0 0.432099 \; 0 0 0 0 9 100 1 0 0 0.444444 \; -3.44224
-0.388703 2.30866 3.46411 7 72 1 0 0 0.0208333 \; -7.86017 7.10619
2.30866 10.5962 0 100 1 0 0 0.270833 \; 0 0 0 0 6 100 1 0 0 0.481481
\; 0 0 0 0 6 74 1 0 0 0.493827 \; 0 0 0 0 6 100 1 0 0 0.506173 \; -3.73617
0.074802 2.30866 3.73691 6 100 1 0 0 0.298611 \; -2.13117 -0.350634
2.30866 2.15982 6 75 1 0 0 0.305556 \; 0 0 0 0 11 100 1 0 0 0.54321
\; -2.07753 -0.74802 2.30866 2.20809 11 50 1 0 0 0.319444 \; 0 0 0
0 11 75 1 0 0 0.567901 \; -5.53748 0.176319 2.30866 5.54029 11 100
1 0 0 0.333333 \; 0 0 0 0 11 75 1 0 0 0.592593 \; 0 0 0 0 6 75 1 0
0 0.604938 \; 0 0 0 0 6 75 1 0 0 0.617284 \; 0 0 0 0 6 75 1 0 0 0.62963
\; 0 0 0 0 9 75 1 0 0 0.641975 \; 0 0 0 0 6 75 1 0 0 0.654321 \; 0
0 0 0 11 100 1 0 0 0.666667 \; 0 0 0 0 1 100 1 0 0 0.679012 \; 0 0
0 0 6 48 1 0 0 0.691358 \; 0 0 0 0 6 75 1 0 0 0.703704 \; 0 0 0 0 0
100 1 0 0 0.716049 \; 0 0 0 0 6 75 1 0 0 0.728395 \; -6.39209 -2.09653
2.30866 6.72713 6 100 1 0 0 0.423611 \; 0 0 0 0 6 75 1 0 0 0.753086
\; -13.1629 -7.4989 2.30866 15.1491 11 50 1 0 0 0.4375 \; 0 0 0 0 11
100 1 0 0 0.777778 \; 0 0 0 0 10 75 1 0 0 0.790123 \; 0 0 0 0 6 100
1 0 0 0.802469 \; 0 0 0 0 6 75 1 0 0 0.814815 \; 0 0 0 0 6 75 1 0 0
0.82716 \; 0 0 0 0 11 50 1 0 0 0.839506 \; 0 0 0 0 10 75 1 0 0 0.851852
\; 0 0 0 0 1 100 1 0 0 0.864198 \; 0 0 0 0 6 75 1 0 0 0.876543 \; 0
0 0 0 11 100 1 0 0 0.888889 \; 0 0 0 0 9 75 1 0 0 0.901235 \; 0 0 0
0 6 50 1 0 0 0.91358 \; 0 0 0 0 11 100 1 0 0 0.925926 \; -66.0617 -67.4155
2.30866 94.3875 11 75 1 0 0 0.534722 \; 0 0 0 0 11 75 1 0 0 0.950617
\; 0 0 0 0 6 75 1 0 0 0.962963 \; 0 0 0 0 6 100 1 0 0 0.975309 \; 0
0 0 0 0 100 1 0 0 0.987654 \; 0 0 0 0 6 75 1 0 0 1 \; 0 0 0 0 6 50
1 0 0 1.01235 \; 0 0 0 0 11 75 1 0 0 1.02469 \; 0 0 0 0 0 100 1 0 0
1.03704 \; 0 0 0 0 6 75 1 0 0 1.04938 \; 0 0 0 0 6 75 1 0 0 1.06173
\; 0 0 0 0 6 100 1 0 0 1.07407 \; -7.8313 -5.89904 2.30866 9.80449
0 100 1 0 0 0.618056 \; 0 0 0 0 10 98 1 0 0 1.09877 \; 0 0 0 0 0 100
1 0 0 1.11111 \; 0 0 0 0 6 100 1 0 0 1.12346 \; 0 0 0 0 0 100 1 0 0
1.1358 \; 0 0 0 0 6 75 1 0 0 1.14815 \; 0 0 0 0 11 100 1 0 0 1.16049
\; 0 0 0 0 11 75 1 0 0 1.17284 \; -4.55824 -1.26678 2.30866 4.731 11
75 1 0 0 0.673611 \; 0 0 0 0 11 50 1 0 0 1.19753 \; 0 0 0 0 11 75 1
0 0 1.20988 \; -5.5793 -1.39514 2.30866 5.75109 3 75 1 0 0 0.0694444
\; 0 0 0 0 11 100 1 0 0 0.123457 \; 0 0 0 0 11 100 1 0 0 0.123457 \;
0 0 0 0 6 100 1 0 0 0.123457 \; 0 0 0 0 11 98 1 0 0 0.123457 \; -4.84105
-1.13485 2.30866 4.97229 11 100 1 0 0 0.0694444 \; 0 0 0 0 10 100 1
0 0 0.123457 \; 0 0 0 0 6 75 1 0 0 0.123457 \; 0 0 0 0 6 100 1 0 0
0.123457 \; 0 0 0 0 6 100 1 0 0 0.123457 \; 0 0 0 0 6 100 1 0 0 0.123457
\; 0 0 0 0 3 75 1 0 0 0.135802 \; 0 0 0 0 2 100 1 0 0 0.135802 \; 0
0 0 0 0 50 1 0 0 0.135802 \; 0 0 0 0 6 100 1 0 0 0.135802 \; 0 0 0
0 1 75 1 0 0 0.135802 \; 0 0 0 0 0 100 1 0 0 0.135802 \; 0 0 0 0 1
75 1 0 0 0.135802 \; 0 0 0 0 9 75 1 0 0 0.135802 \; 0 0 0 0 11 75 1
0 0 0.135802 \; 0 0 0 0 6 75 1 0 0 0.135802 \; 0 0 0 0 11 100 1 0 0
0.148148 \; 0 0 0 0 0 100 1 0 0 0.148148 \; 0 0 0 0 11 100 1 0 0 0.148148
\; 0 0 0 0 11 100 1 0 0 0.148148 \; 0 0 0 0 11 75 1 0 0 0.148148 \;
0 0 0 0 9 100 1 0 0 0.148148 \; -4.85266 -2.54327 2.30866 5.47873 11
50 1 0 0 0.0833333 \; 0 0 0 0 6 75 1 0 0 0.148148 \; -3.75262 -0.244353
2.30866 3.76056 11 100 1 0 0 0.0833333 \; 0 0 0 0 6 100 1 0 0 0.148148
\; -3.48844 0.561015 2.30866 3.53327 0 63 1 0 0 0 \; 0 0 0 0 6 75 1
0 0 0.160494 \; 0 0 0 0 11 75 1 0 0 0.160494 \; 0 0 0 0 10 100 1 0
0 0.160494 \; 0 0 0 0 9 75 1 0 0 0.160494 \; 0 0 0 0 6 75 1 0 0 0.160494
\; 0 0 0 0 6 75 1 0 0 0.160494 \; -0.096916 0.034524 2.30866 0.102881
0 100 1 0 0 0.0909091 \; 0 0 0 0 11 100 1 0 0 0.160494 \; 0 -0.037401
2.30866 0.037401 6 100 1 0 0 0.0935252 \; 0 -0.299208 2.30866 0.299208
6 100 1 0 0 0.100719 \; -1.21926 0.037401 2.30866 1.21984 0 100 1 0
0 0.0972222 \; 0 0.037401 2.30866 0.037401 0 100 1 0 0 0.0979021 \;
-1.21926 0.224406 2.30866 1.23974 6 75 1 0 0 0.0972222 \; 0 0.037401
2.30866 0.037401 0 100 1 0 0 0.0979021 \; 0 0 0 0 11 100 1 0 0 0.0972222
\; 0 0 0 0 11 100 1 0 0 0.0972222 \; \;;
#X coords -20 -20 20 20 200 200 1;
#X restore 644 50 pd net_pool;
#X obj 69 90 change -1;
#X obj 98 275 OSCroute /bang;
#N canvas 0 22 502 352 net_array 0;
#X obj 47 45 struct net_array float x float y array netwks net_struct
;
#X obj 47 95 plot netwks 0 0 0 0;
#X restore 644 272 pd net_array;
#N canvas 0 22 475 365 net_pool_setup 0;
#X obj 29 25 inlet;
#X msg 87 76 clear;
#X obj 30 52 t b b;
#X msg 31 117 traverse pd-net_pool \, bang;
#X obj 87 97 s pd-net_pool;
#X obj 31 280 s \$0-npoolptr;
#X msg 85 199 0;
#X msg 57 202 0;
#X obj 57 256 s \$0-narrayptr;
#X obj 56 230 append net_array x y;
#X obj 30 147 pointer;
#X obj 32 175 t p b b p;
#X connect 0 0 2 0;
#X connect 1 0 4 0;
#X connect 2 0 3 0;
#X connect 2 1 1 0;
#X connect 3 0 10 0;
#X connect 6 0 9 1;
#X connect 7 0 9 0;
#X connect 9 0 8 0;
#X connect 10 0 11 0;
#X connect 11 0 5 0;
#X connect 11 1 7 0;
#X connect 11 2 6 0;
#X connect 11 3 9 2;
#X restore 485 51 pd net_pool_setup;
#X obj 345 97 r \$0-narrayptr;
#X obj 265 157 setsize net_array netwks;
#X obj 265 97 max;
#X obj 265 117 change 0;
#X obj 69 115 t f f;
#X obj 69 136 element net_array netwks;
#X obj 69 157 s \$0-anet;
#X text 85 53 get networks and resize array if nessesary;
#X obj 315 77 r \$0-zero;
#N canvas 28 284 816 478 storenet 0;
#X obj 51 64 inlet;
#X obj 115 60 inlet;
#X text 50 33 bang;
#X text 119 34 osc input;
#X obj 196 168 OSCroute /innocence /datarank;
#X obj 472 252 r \$0-anet;
#X obj 265 248 r \$0-one;
#X obj 69 200 f;
#N canvas 129 294 558 424 normlz 0;
#X obj 43 60 inlet;
#X obj 92 59 inlet;
#X obj 53 207 outlet;
#X obj 92 90 t f f;
#X msg 92 112 1;
#X obj 93 138 /;
#X obj 53 180 *;
#X connect 0 0 6 0;
#X connect 1 0 3 0;
#X connect 3 0 4 0;
#X connect 3 1 5 1;
#X connect 4 0 5 0;
#X connect 5 0 6 1;
#X connect 6 0 2 0;
#X restore 329 220 pd normlz;
#X obj 447 70 r info;
#X text 447 50 get info data;
#X obj 73 287 set net_struct x y angle dist v innocence datarank channel
;
#X obj 90 170 unpack f f f f;
#X obj 46 362 s do_net;
#X obj 46 172 t b b;
#X obj 45 339 pointer;
#X obj 87 320 r \$0-anet;
#X floatatom 350 340 5 0 0 0 - - -;
#X obj 118 122 OSCroute /localpos /stat /channel;
#X obj 448 90 OSCroute /networks /rate;
#X obj 630 276 s \$0-chanwave;
#X obj 662 201 t b f;
#X obj 630 256 pack f f f;
#X connect 0 0 14 0;
#X connect 1 0 18 0;
#X connect 4 0 11 5;
#X connect 4 1 8 0;
#X connect 4 1 22 1;
#X connect 5 0 11 8;
#X connect 6 0 11 4;
#X connect 7 0 11 0;
#X connect 8 0 11 6;
#X connect 8 0 17 0;
#X connect 9 0 19 0;
#X connect 12 0 7 1;
#X connect 12 1 11 1;
#X connect 12 2 11 2;
#X connect 12 3 11 3;
#X connect 14 0 15 0;
#X connect 14 1 7 0;
#X connect 15 0 13 0;
#X connect 16 0 15 1;
#X connect 18 0 12 0;
#X connect 18 1 4 0;
#X connect 18 2 11 7;
#X connect 18 2 22 0;
#X connect 19 0 8 1;
#X connect 19 1 21 0;
#X connect 21 0 22 0;
#X connect 21 1 22 2;
#X connect 22 0 20 0;
#X restore 25 381 pd storenet;
#X obj 24 246 OSCroute /bang /packet;
#N canvas 215 91 811 460 packet 0;
#X obj 38 20 inlet;
#X obj 568 26 inlet;
#X obj 57 68 pointer;
#X obj 102 42 r \$0-anet;
#X text 40 2 bang;
#X text 568 6 osc data;
#X obj 88 203 s \$0-to_drone;
#X msg 87 177 send /drone/packet \$1 \$2;
#X obj 87 151 pack;
#X obj 57 89 t p p;
#X obj 57 245 outlet;
#X obj 87 117 get net_struct innocence channel;
#X connect 0 0 2 0;
#X connect 2 0 9 0;
#X connect 3 0 2 1;
#X connect 7 0 6 0;
#X connect 8 0 7 0;
#X connect 9 0 10 0;
#X connect 9 1 11 0;
#X connect 11 0 8 0;
#X connect 11 1 8 1;
#X restore 99 306 pd packet;
#X text 70 175 set active pointer;
#X text 35 228 dissect network message;
#X floatatom 329 139 5 0 0 0 - - -;
#X obj 265 137 t f f f;
#X obj 24 29 inlet;
#X obj 485 30 inlet;
#X obj 98 331 s do_packet;
#X connect 0 0 17 0;
#X connect 0 1 3 0;
#X connect 3 0 11 0;
#X connect 4 0 18 0;
#X connect 4 1 18 1;
#X connect 7 0 8 1;
#X connect 7 0 12 1;
#X connect 9 0 10 0;
#X connect 10 0 22 0;
#X connect 11 0 12 0;
#X connect 11 1 9 0;
#X connect 12 0 13 0;
#X connect 15 0 9 1;
#X connect 15 0 21 0;
#X connect 17 0 16 0;
#X connect 17 1 4 0;
#X connect 17 2 16 1;
#X connect 18 0 25 0;
#X connect 22 0 8 0;
#X connect 22 1 9 1;
#X connect 22 2 21 0;
#X connect 23 0 0 0;
#X connect 24 0 6 0;
#X restore 27 150 pd network;
#X text 22 103 data dissection;
#X text 26 20 control i/o;
#X text 572 35 (re-)initialization;
#X obj 602 61 loadbang;
#X obj 584 62 bng 15 250 50 0 empty empty empty 0 -6 0 8 -262144 -1
-1;
#X obj 618 133 s \$0-zero;
#X msg 617 111 0;
#X obj 551 135 s \$0-one;
#X msg 578 113 1;
#X obj 524 113 s \$0-lb;
#X obj 90 128 r \$0-lb;
#X obj 26 125 r net;
#N canvas 211 321 523 227 k2o-oscin 0;
#X obj 8 -170 OSCroute /kismet;
#X obj 9 -109 s net;
#X obj 66 -112 s cli;
#X obj 124 -113 s gps;
#X obj 180 -113 s info;
#X obj 242 -113 s card;
#X obj 297 -112 s packet;
#X text 4 -234 receive k2o-osc messages and route them internally;
#X obj 9 -144 OSCroute /network /client /gps /info /card /packet /time
;
#X obj 364 -112 OSCroute /timesec;
#X obj 364 -82 s timesec;
#X obj 8 -197 dumpOSC 12345;
#X connect 0 0 8 0;
#X connect 8 0 1 0;
#X connect 8 1 2 0;
#X connect 8 2 3 0;
#X connect 8 3 4 0;
#X connect 8 4 5 0;
#X connect 8 5 6 0;
#X connect 8 6 9 0;
#X connect 9 0 10 0;
#X connect 11 0 0 0;
#X restore 27 40 pd k2o-oscin;
#N canvas 257 22 747 736 drone-oscin 0;
#X obj 17 20 dumpOSC 9998;
#X obj 17 41 OSCroute /soupshot;
#X obj 338 438 makesymbol ../data/shot%s_%s.wav;
#X obj 301 484 s \$0-opensound;
#X obj 271 159 unpack f f;
#X obj 341 294 moses 10;
#X obj 508 293 moses 10;
#X obj 507 342 makefilename 0%d;
#X obj 557 319 makefilename %d;
#X obj 341 413 pack s s;
#X obj 390 317 makefilename %d;
#X obj 340 351 makefilename 0%d;
#X msg 54 67 1 1;
#X obj 56 614 s \$0-openlog;
#X obj 112 543 makesymbol /Users/lo/Development/Projects/k2o/k2o-data/pd-lo/data/shot%s.txt
;
#X msg 231 72 3 3;
#X obj 85 515 makesymbol /home/bek/k2o/k2o-data/pd-lo/data/shot%s.txt
;
#X msg 86 67 1 3;
#X msg 128 66 1 4;
#X msg 194 72 2 3;
#X obj 267 285 spigot 0;
#X msg 78 186 0;
#X obj 302 462 symbol;
#X obj 19 111 t b b l b;
#X obj 417 195 change 0;
#X obj 427 221 t f b;
#X msg 457 243 1;
#X obj 306 200 change 0;
#X obj 316 226 t f b;
#X msg 346 248 1;
#X obj 84 480 t s;
#X obj 47 293 spigot 0;
#X obj 57 591 symbol;
#X text 120 497 change this!!!!;
#X text 321 19 receive osc shot event and generate open events without
repetition;
#X obj 291 335 t b b;
#X msg 269 71 3 4;
#X connect 0 0 1 0;
#X connect 1 0 23 0;
#X connect 2 0 22 1;
#X connect 4 0 27 0;
#X connect 4 1 24 0;
#X connect 5 0 11 0;
#X connect 5 1 10 0;
#X connect 6 0 7 0;
#X connect 6 1 8 0;
#X connect 7 0 9 1;
#X connect 8 0 9 1;
#X connect 9 0 2 0;
#X connect 10 0 9 0;
#X connect 10 0 30 0;
#X connect 11 0 9 0;
#X connect 11 0 30 0;
#X connect 12 0 23 0;
#X connect 14 0 32 1;
#X connect 15 0 23 0;
#X connect 17 0 23 0;
#X connect 18 0 23 0;
#X connect 19 0 23 0;
#X connect 20 0 35 0;
#X connect 21 0 20 1;
#X connect 21 0 31 1;
#X connect 22 0 3 0;
#X connect 23 0 31 0;
#X connect 23 1 20 0;
#X connect 23 2 4 0;
#X connect 23 3 21 0;
#X connect 24 0 25 0;
#X connect 25 0 6 0;
#X connect 25 1 26 0;
#X connect 26 0 20 1;
#X connect 27 0 28 0;
#X connect 28 0 5 0;
#X connect 28 1 29 0;
#X connect 29 0 20 1;
#X connect 29 0 31 1;
#X connect 30 0 16 0;
#X connect 30 0 14 0;
#X connect 31 0 32 0;
#X connect 32 0 13 0;
#X connect 35 0 22 0;
#X connect 35 1 9 0;
#X connect 36 0 23 0;
#X restore 124 41 pd drone-oscin;
#N canvas 377 378 421 238 drone-oscout 0;
#X obj 27 147 sendOSC;
#X obj 28 34 inlet;
#X text 29 15 data;
#X text 168 9 loadbang;
#X obj 170 32 inlet;
#X msg 167 68 connect 127.0.0.1 9999;
#X msg 188 95 connect 185.37.56.8;
#X connect 1 0 0 0;
#X connect 4 0 5 0;
#X connect 5 0 0 0;
#X connect 6 0 0 0;
#X restore 249 40 pd drone-oscout;
#X obj 249 19 r \$0-to_drone;
#X obj 348 19 r \$0-lb;
#X text 25 211 audiogen;
#X text 27 486 mix + output;
#N canvas 247 22 633 479 multi 0;
#X obj 21 93 catch~ chan-1;
#X obj 143 144 dac~ 1 2 3 4 5 6 7 8;
#X obj 63 72 catch~ chan-2;
#X obj 125 50 catch~ chan-3;
#X obj 185 31 catch~ chan-4;
#X obj 287 31 catch~ chan-5;
#X obj 388 32 catch~ chan-6;
#X obj 454 54 catch~ chan-7;
#X obj 503 76 catch~ chan-8;
#X text 33 22 output;
#N canvas 0 22 980 463 s__c__o__p__e__s 0;
#X obj 193 43 inlet~;
#X obj 255 43 inlet~;
#X obj 309 44 inlet~;
#X obj 371 47 inlet~;
#X obj 425 47 inlet~;
#X obj 486 50 inlet~;
#X obj 542 46 inlet~;
#X obj 603 47 inlet~;
#N canvas 0 22 450 300 graph4 0;
#X array c1 440 float 0;
#X coords 0 1 439 -1 100 140 1;
#X restore 46 208 graph;
#N canvas 0 22 450 300 graph7 0;
#X array c2 440 float 2;
#X coords 0 1 440 -1 100 140 1;
#X restore 148 208 graph;
#N canvas 0 22 450 300 graph8 0;
#X array c3 440 float 2;
#X coords 0 1 440 -1 100 140 1;
#X restore 250 208 graph;
#N canvas 0 22 450 300 graph9 0;
#X array c4 440 float 2;
#X coords 0 1 440 -1 100 140 1;
#X restore 352 208 graph;
#N canvas 0 22 450 300 graph10 0;
#X array c5 440 float 2;
#X coords 0 1 440 -1 100 140 1;
#X restore 454 208 graph;
#N canvas 0 22 450 300 graph11 0;
#X array c6 440 float 2;
#X coords 0 1 440 -1 100 140 1;
#X restore 556 208 graph;
#N canvas 0 22 450 300 graph12 0;
#X array c7 440 float 2;
#X coords 0 1 440 -1 100 140 1;
#X restore 658 208 graph;
#N canvas 0 22 450 300 graph12 0;
#X array c8 440 float 2;
#X coords 0 1 440 -1 100 140 1;
#X restore 760 208 graph;
#X obj 191 143 tabwrite~ c1;
#X obj 254 165 tabwrite~ c2;
#X obj 308 143 tabwrite~ c3;
#X obj 372 168 tabwrite~ c4;
#X obj 424 141 tabwrite~ c5;
#X obj 488 166 tabwrite~ c6;
#X obj 543 141 tabwrite~ c7;
#X obj 602 165 tabwrite~ c8;
#X obj 109 45 metro 100;
#X obj 78 45 tgl 15 0 empty empty empty 0 -6 0 8 -262144 -1 -1 0 1
;
#X obj 108 69 bng 15 250 50 0 empty empty empty 0 -6 0 8 -262144 -1
-1;
#X connect 0 0 16 0;
#X connect 1 0 17 0;
#X connect 2 0 18 0;
#X connect 3 0 19 0;
#X connect 4 0 20 0;
#X connect 5 0 21 0;
#X connect 6 0 22 0;
#X connect 7 0 23 0;
#X connect 24 0 26 0;
#X connect 25 0 24 0;
#X connect 26 0 16 0;
#X connect 26 0 17 0;
#X connect 26 0 18 0;
#X connect 26 0 19 0;
#X connect 26 0 20 0;
#X connect 26 0 21 0;
#X connect 26 0 22 0;
#X connect 26 0 23 0;
#X restore 298 143 pd s__c__o__p__e__s;
#X obj 108 423 writesf~ 2;
#X msg 175 367 start;
#X msg 207 392 stop;
#X obj 175 344 select 1 0;
#X obj 21 318 bng 20 250 50 0 empty empty OPEN 0 -6 0 8 -260818 -1
-1;
#X obj 20 356 savepanel;
#X obj 176 318 tgl 20 0 empty empty REC 0 -6 0 8 -24198 -1 -1 0 1;
#X msg 20 378 open -aiff \$1;
#X connect 0 0 1 0;
#X connect 0 0 10 0;
#X connect 0 0 11 0;
#X connect 2 0 1 1;
#X connect 2 0 10 1;
#X connect 2 0 11 1;
#X connect 3 0 1 2;
#X connect 3 0 10 2;
#X connect 4 0 1 3;
#X connect 4 0 10 3;
#X connect 5 0 1 4;
#X connect 5 0 10 4;
#X connect 6 0 1 5;
#X connect 6 0 10 5;
#X connect 7 0 1 6;
#X connect 7 0 10 6;
#X connect 8 0 1 7;
#X connect 8 0 10 7;
#X connect 12 0 11 0;
#X connect 13 0 11 0;
#X connect 14 0 12 0;
#X connect 14 1 13 0;
#X connect 15 0 16 0;
#X connect 16 0 18 0;
#X connect 17 0 14 0;
#X connect 18 0 11 0;
#X restore 29 509 pd multi out;
#N canvas 235 236 584 495 channel 0;
#X obj 39 242 phasor~;
#X obj 49 290 *~;
#X obj 110 245 line~;
#X obj 39 218 line~;
#X text 188 22 packet rate;
#X text 110 19 datarank;
#X text 37 18 channel;
#X obj 27 413 throw~ chan-1;
#X obj 68 388 throw~ chan-2;
#X obj 40 353 lp2~ 80 0.7 200;
#X obj 118 316 * 1;
#X obj 37 160 t f f;
#X obj 38 128 + 30;
#X obj 214 278 line;
#X obj 221 215 t f f;
#X msg 249 248 1000;
#X msg 38 194 \$1 500;
#X obj 43 77 unpack f f f;
#X obj 42 50 inlet;
#X obj 213 149 r \$0-stop;
#X msg 212 173 0;
#X obj 111 145 t b f;
#X msg 147 211 \$1 500;
#X obj 111 165 delay 500;
#X msg 111 189 0 5000;
#X obj 38 104 * 2;
#X obj 112 120 * 0.005;
#X obj 127 415 throw~ chan-3;
#X obj 168 390 throw~ chan-4;
#X obj 229 415 throw~ chan-5;
#X obj 270 391 throw~ chan-6;
#X connect 0 0 1 0;
#X connect 1 0 9 0;
#X connect 2 0 1 1;
#X connect 3 0 0 0;
#X connect 9 0 7 0;
#X connect 9 0 8 0;
#X connect 9 0 30 0;
#X connect 9 0 28 0;
#X connect 9 0 29 0;
#X connect 9 0 27 0;
#X connect 10 0 9 1;
#X connect 11 0 16 0;
#X connect 11 1 10 0;
#X connect 12 0 11 0;
#X connect 13 0 10 1;
#X connect 14 0 13 0;
#X connect 14 1 15 0;
#X connect 15 0 13 1;
#X connect 16 0 3 0;
#X connect 17 0 25 0;
#X connect 17 1 26 0;
#X connect 17 2 14 0;
#X connect 18 0 17 0;
#X connect 19 0 20 0;
#X connect 20 0 22 0;
#X connect 21 0 23 0;
#X connect 21 1 22 0;
#X connect 22 0 2 0;
#X connect 23 0 24 0;
#X connect 24 0 2 0;
#X connect 25 0 12 0;
#X connect 26 0 21 0;
#X restore 285 493 pd channel wave;
#X obj 76 232 r do_packet;
#X obj 65 447 bng 15 250 50 0 empty empty empty 0 -6 0 8 -262144 -1
-1;
#X text 83 448 overload;
#N canvas 43 22 975 661 soundplayer 0;
#X obj 511 86 table \$0-env 1024;
#X obj 401 12 \$0;
#X msg 400 33 \; \$1-env cosinesum 1024 0.5 -0.5 \;;
#X obj 186 280 soundfiler;
#X obj 186 307 s \$0-sz;
#X obj 81 535 table \$0-sample 5;
#X msg 41 417 set \$1;
#X msg 32 285 stop;
#X obj 42 397 symbol \$0-sample;
#X obj 81 554 table \$0-sample-r 5;
#X msg 187 258 read -resize \$1 \$2 \$3;
#X obj 172 -12 inlet;
#X msg 272 393 set \$1;
#X obj 272 374 symbol \$0-sample-r;
#X obj 200 411 r \$0-lb;
#X obj 187 239 pack s s s;
#X obj 166 115 t b s b b;
#X obj 217 136 symbol \$0-sample;
#X obj 252 157 symbol \$0-sample-r;
#X obj 271 345 r \$0-lb;
#X obj 41 370 r \$0-lb;
#X floatatom 252 308 5 0 0 0 - - -;
#X obj 111 327 t a a;
#X obj 401 -15 r \$0-lb;
#X obj 32 264 r \$0-stop;
#X obj 68 287 bng 15 250 50 0 empty empty empty 0 -6 0 8 -262144 -1
-1;
#N canvas 565 171 458 566 playsample 0;
#X obj 38 45 inlet;
#X obj 191 51 inlet;
#X text 189 23 mix;
#X text 28 3 set tablename gain duration;
#X obj 55 477 throw~ chan-1;
#X obj 112 453 throw~ chan-2;
#X obj 164 429 throw~ chan-3;
#X obj 207 407 throw~ chan-4;
#X obj 258 387 throw~ chan-5;
#X obj 307 367 throw~ chan-6;
#X obj 57 331 *~;
#X obj 104 330 *~;
#X obj 156 331 *~;
#X obj 197 330 *~;
#X obj 248 331 *~;
#X obj 298 330 *~;
#X obj 196 195 route 0 1 2 3 4 5;
#X obj 201 144 r \$0-lsp;
#X obj 197 172 vbap 0 0;
#X obj 40 139 tabplay~;
#X obj 182 241 f;
#X obj 209 241 f;
#X obj 236 241 f;
#X obj 263 241 f;
#X obj 290 241 f;
#X obj 316 241 f;
#X obj 190 76 unpack f f f;
#X obj 187 122 t b f;
#X obj 104 105 line~;
#X obj 40 201 *~;
#X obj 91 199 outlet;
#X obj 38 68 route list;
#X connect 0 0 31 0;
#X connect 1 0 26 0;
#X connect 10 0 4 0;
#X connect 11 0 5 0;
#X connect 12 0 6 0;
#X connect 13 0 7 0;
#X connect 14 0 8 0;
#X connect 15 0 9 0;
#X connect 16 0 20 0;
#X connect 16 1 21 0;
#X connect 16 2 22 0;
#X connect 16 3 23 0;
#X connect 16 4 24 0;
#X connect 16 5 25 0;
#X connect 17 0 18 0;
#X connect 18 0 16 0;
#X connect 19 0 29 0;
#X connect 19 1 30 0;
#X connect 20 0 10 1;
#X connect 21 0 11 1;
#X connect 22 0 12 1;
#X connect 23 0 13 1;
#X connect 24 0 14 1;
#X connect 25 0 15 1;
#X connect 26 0 27 0;
#X connect 26 1 18 2;
#X connect 26 2 18 3;
#X connect 27 0 18 0;
#X connect 27 1 18 1;
#X connect 28 0 29 1;
#X connect 29 0 15 0;
#X connect 29 0 14 0;
#X connect 29 0 13 0;
#X connect 29 0 12 0;
#X connect 29 0 11 0;
#X connect 29 0 10 0;
#X connect 31 0 28 0;
#X connect 31 1 19 0;
#X restore 115 452 pd playsample;
#X msg 200 431 -45 0 20;
#X obj 350 414 r \$0-lb;
#N canvas 565 171 450 558 playsample 0;
#X obj 38 45 inlet;
#X obj 191 51 inlet;
#X text 189 23 mix;
#X text 28 3 set tablename gain duration;
#X obj 55 477 throw~ chan-1;
#X obj 112 453 throw~ chan-2;
#X obj 164 429 throw~ chan-3;
#X obj 207 407 throw~ chan-4;
#X obj 258 387 throw~ chan-5;
#X obj 307 367 throw~ chan-6;
#X obj 57 331 *~;
#X obj 104 330 *~;
#X obj 156 331 *~;
#X obj 197 330 *~;
#X obj 248 331 *~;
#X obj 298 330 *~;
#X obj 196 195 route 0 1 2 3 4 5;
#X obj 201 144 r \$0-lsp;
#X obj 197 172 vbap 0 0;
#X obj 40 139 tabplay~;
#X obj 182 241 f;
#X obj 209 241 f;
#X obj 236 241 f;
#X obj 263 241 f;
#X obj 290 241 f;
#X obj 316 241 f;
#X obj 190 76 unpack f f f;
#X obj 187 122 t b f;
#X obj 38 68 route list;
#X obj 87 104 line~;
#X obj 40 201 *~;
#X obj 90 160 t b b;
#X obj 91 199 outlet;
#X connect 0 0 28 0;
#X connect 1 0 26 0;
#X connect 10 0 4 0;
#X connect 11 0 5 0;
#X connect 12 0 6 0;
#X connect 13 0 7 0;
#X connect 14 0 8 0;
#X connect 15 0 9 0;
#X connect 16 0 20 0;
#X connect 16 1 21 0;
#X connect 16 2 22 0;
#X connect 16 3 23 0;
#X connect 16 4 24 0;
#X connect 16 5 25 0;
#X connect 17 0 18 0;
#X connect 18 0 16 0;
#X connect 19 0 30 0;
#X connect 19 1 31 0;
#X connect 20 0 10 1;
#X connect 21 0 11 1;
#X connect 22 0 12 1;
#X connect 23 0 13 1;
#X connect 24 0 14 1;
#X connect 25 0 15 1;
#X connect 26 0 27 0;
#X connect 26 1 18 2;
#X connect 26 2 18 3;
#X connect 27 0 18 0;
#X connect 27 1 18 1;
#X connect 28 0 29 0;
#X connect 28 1 19 0;
#X connect 29 0 30 1;
#X connect 30 0 15 0;
#X connect 30 0 14 0;
#X connect 30 0 13 0;
#X connect 30 0 12 0;
#X connect 30 0 11 0;
#X connect 30 0 10 0;
#X connect 31 0 32 0;
#X connect 31 1 19 0;
#X restore 265 455 pd playsample;
#X msg 350 434 -45 0 20;
#X obj 215 452 b;
#X text 80 516 sampletable 1;
#X obj 534 535 table \$0-sample2 5;
#X obj 534 554 table \$0-sample2-r 5;
#X obj 124 257 t f b;
#X msg 105 288 \$1 2000;
#X obj 173 61 demux 1;
#X obj 674 280 soundfiler;
#X obj 674 307 s \$0-sz;
#X msg 529 417 set \$1;
#X msg 520 285 stop;
#X msg 675 258 read -resize \$1 \$2 \$3;
#X msg 760 393 set \$1;
#X obj 688 411 r \$0-lb;
#X obj 675 239 pack s s s;
#X obj 654 135 t b s b b;
#X obj 759 345 r \$0-lb;
#X obj 529 370 r \$0-lb;
#X floatatom 740 308 5 0 0 0 - - -;
#X obj 599 327 t a a;
#X obj 520 264 r \$0-stop;
#X obj 556 287 bng 15 250 50 0 empty empty empty 0 -6 0 8 -262144 -1
-1;
#N canvas 565 171 458 566 playsample 0;
#X obj 38 45 inlet;
#X obj 191 51 inlet;
#X text 189 23 mix;
#X text 28 3 set tablename gain duration;
#X obj 55 477 throw~ chan-1;
#X obj 112 453 throw~ chan-2;
#X obj 164 429 throw~ chan-3;
#X obj 207 407 throw~ chan-4;
#X obj 258 387 throw~ chan-5;
#X obj 307 367 throw~ chan-6;
#X obj 57 331 *~;
#X obj 104 330 *~;
#X obj 156 331 *~;
#X obj 197 330 *~;
#X obj 248 331 *~;
#X obj 298 330 *~;
#X obj 196 195 route 0 1 2 3 4 5;
#X obj 201 144 r \$0-lsp;
#X obj 197 172 vbap 0 0;
#X obj 40 139 tabplay~;
#X obj 182 241 f;
#X obj 209 241 f;
#X obj 236 241 f;
#X obj 263 241 f;
#X obj 290 241 f;
#X obj 316 241 f;
#X obj 190 76 unpack f f f;
#X obj 187 122 t b f;
#X obj 104 105 line~;
#X obj 40 201 *~;
#X obj 91 199 outlet;
#X obj 38 68 route list;
#X connect 0 0 31 0;
#X connect 1 0 26 0;
#X connect 10 0 4 0;
#X connect 11 0 5 0;
#X connect 12 0 6 0;
#X connect 13 0 7 0;
#X connect 14 0 8 0;
#X connect 15 0 9 0;
#X connect 16 0 20 0;
#X connect 16 1 21 0;
#X connect 16 2 22 0;
#X connect 16 3 23 0;
#X connect 16 4 24 0;
#X connect 16 5 25 0;
#X connect 17 0 18 0;
#X connect 18 0 16 0;
#X connect 19 0 29 0;
#X connect 19 1 30 0;
#X connect 20 0 10 1;
#X connect 21 0 11 1;
#X connect 22 0 12 1;
#X connect 23 0 13 1;
#X connect 24 0 14 1;
#X connect 25 0 15 1;
#X connect 26 0 27 0;
#X connect 26 1 18 2;
#X connect 26 2 18 3;
#X connect 27 0 18 0;
#X connect 27 1 18 1;
#X connect 28 0 29 1;
#X connect 29 0 15 0;
#X connect 29 0 14 0;
#X connect 29 0 13 0;
#X connect 29 0 12 0;
#X connect 29 0 11 0;
#X connect 29 0 10 0;
#X connect 31 0 28 0;
#X connect 31 1 19 0;
#X restore 603 452 pd playsample;
#X msg 688 431 -45 0 20;
#X obj 838 414 r \$0-lb;
#N canvas 565 171 450 558 playsample 0;
#X obj 38 45 inlet;
#X obj 191 51 inlet;
#X text 189 23 mix;
#X text 28 3 set tablename gain duration;
#X obj 55 477 throw~ chan-1;
#X obj 112 453 throw~ chan-2;
#X obj 164 429 throw~ chan-3;
#X obj 207 407 throw~ chan-4;
#X obj 258 387 throw~ chan-5;
#X obj 307 367 throw~ chan-6;
#X obj 57 331 *~;
#X obj 104 330 *~;
#X obj 156 331 *~;
#X obj 197 330 *~;
#X obj 248 331 *~;
#X obj 298 330 *~;
#X obj 196 195 route 0 1 2 3 4 5;
#X obj 201 144 r \$0-lsp;
#X obj 197 172 vbap 0 0;
#X obj 40 139 tabplay~;
#X obj 182 241 f;
#X obj 209 241 f;
#X obj 236 241 f;
#X obj 263 241 f;
#X obj 290 241 f;
#X obj 316 241 f;
#X obj 190 76 unpack f f f;
#X obj 187 122 t b f;
#X obj 38 68 route list;
#X obj 87 104 line~;
#X obj 40 201 *~;
#X obj 90 160 t b b;
#X obj 91 199 outlet;
#X connect 0 0 28 0;
#X connect 1 0 26 0;
#X connect 10 0 4 0;
#X connect 11 0 5 0;
#X connect 12 0 6 0;
#X connect 13 0 7 0;
#X connect 14 0 8 0;
#X connect 15 0 9 0;
#X connect 16 0 20 0;
#X connect 16 1 21 0;
#X connect 16 2 22 0;
#X connect 16 3 23 0;
#X connect 16 4 24 0;
#X connect 16 5 25 0;
#X connect 17 0 18 0;
#X connect 18 0 16 0;
#X connect 19 0 30 0;
#X connect 19 1 31 0;
#X connect 20 0 10 1;
#X connect 21 0 11 1;
#X connect 22 0 12 1;
#X connect 23 0 13 1;
#X connect 24 0 14 1;
#X connect 25 0 15 1;
#X connect 26 0 27 0;
#X connect 26 1 18 2;
#X connect 26 2 18 3;
#X connect 27 0 18 0;
#X connect 27 1 18 1;
#X connect 28 0 29 0;
#X connect 28 1 19 0;
#X connect 29 0 30 1;
#X connect 30 0 15 0;
#X connect 30 0 14 0;
#X connect 30 0 13 0;
#X connect 30 0 12 0;
#X connect 30 0 11 0;
#X connect 30 0 10 0;
#X connect 31 0 32 0;
#X connect 31 1 19 0;
#X restore 753 455 pd playsample;
#X msg 838 434 -45 0 20;
#X obj 703 452 b;
#X obj 612 257 t f b;
#X msg 593 288 \$1 2000;
#X text 694 93 sampleplayer 2;
#X text 188 94 sampleplayer 1;
#X msg 113 215 0;
#X msg 589 217 0;
#X text 509 66 grain envelope;
#X text 535 516 sampletable 2;
#X obj 705 156 symbol \$0-sample2;
#X obj 740 177 symbol \$0-sample2-r;
#X obj 760 374 symbol \$0-sample2-r;
#X obj 530 397 symbol \$0-sample2;
#X obj 172 9 t a b;
#X obj 238 179 t s s;
#X obj 718 201 t s s;
#X obj 267 199 s \$0-activesample;
#X obj 752 228 s \$0-activesample;
#X obj 213 36 tgl 15 0 empty empty empty 0 -6 0 8 -262144 -1 -1 0 1
;
#X msg 145 216 0.6;
#X msg 623 216 0.6;
#X connect 1 0 2 0;
#X connect 3 0 4 0;
#X connect 3 0 21 0;
#X connect 6 0 26 0;
#X connect 7 0 22 0;
#X connect 8 0 6 0;
#X connect 10 0 3 0;
#X connect 11 0 71 0;
#X connect 12 0 29 0;
#X connect 13 0 12 0;
#X connect 14 0 27 0;
#X connect 15 0 10 0;
#X connect 16 0 77 0;
#X connect 16 1 15 0;
#X connect 16 2 17 0;
#X connect 16 3 18 0;
#X connect 17 0 72 0;
#X connect 18 0 15 2;
#X connect 19 0 13 0;
#X connect 20 0 8 0;
#X connect 22 0 26 0;
#X connect 22 1 29 0;
#X connect 23 0 1 0;
#X connect 24 0 7 0;
#X connect 25 0 22 0;
#X connect 26 0 31 0;
#X connect 27 0 26 1;
#X connect 28 0 30 0;
#X connect 30 0 29 1;
#X connect 31 0 22 0;
#X connect 35 0 36 0;
#X connect 35 1 22 0;
#X connect 36 0 22 0;
#X connect 37 0 16 0;
#X connect 37 0 64 0;
#X connect 37 1 46 0;
#X connect 37 1 63 0;
#X connect 38 0 39 0;
#X connect 38 0 49 0;
#X connect 40 0 53 0;
#X connect 41 0 50 0;
#X connect 42 0 38 0;
#X connect 43 0 56 0;
#X connect 44 0 54 0;
#X connect 45 0 42 0;
#X connect 46 0 78 0;
#X connect 46 1 45 0;
#X connect 46 2 67 0;
#X connect 46 3 68 0;
#X connect 47 0 69 0;
#X connect 48 0 70 0;
#X connect 50 0 53 0;
#X connect 50 1 56 0;
#X connect 51 0 41 0;
#X connect 52 0 50 0;
#X connect 53 0 58 0;
#X connect 54 0 53 1;
#X connect 55 0 57 0;
#X connect 57 0 56 1;
#X connect 58 0 50 0;
#X connect 59 0 60 0;
#X connect 59 1 50 0;
#X connect 60 0 50 0;
#X connect 63 0 36 0;
#X connect 64 0 60 0;
#X connect 67 0 73 0;
#X connect 68 0 45 2;
#X connect 69 0 43 0;
#X connect 70 0 40 0;
#X connect 71 0 37 0;
#X connect 71 1 76 0;
#X connect 72 0 15 1;
#X connect 72 1 74 0;
#X connect 73 0 45 1;
#X connect 73 1 75 0;
#X connect 76 0 37 1;
#X connect 77 0 35 0;
#X connect 78 0 59 0;
#X restore 513 334 pd soundplayer;
#X text 510 246 soundplayer;
#X obj 626 156 define_loudspeakers 2 -89 89;
#X obj 627 183 s \$0-lsp;
#X obj 511 268 bng 15 250 50 0 empty empty empty 0 -6 0 8 -262144 -1
-1;
#X obj 512 289 openpanel;
#X obj 584 289 r \$0-opensound;
#X text 514 395 logplayer;
#N canvas 334 297 647 458 logplayer 0;
#X obj 39 50 inlet;
#X obj 106 342 shell;
#X msg 40 105 /usr/bin/killall k2oplay;
#X obj 40 127 shell;
#X obj 107 393 print k2o;
#X obj 41 155 print killall;
#X obj 134 370 bng 15 250 50 0 empty empty empty 0 -6 0 8 -262144 -1
-1;
#X msg 106 267 list /Users/lo/Development/Projects/k2o/k2o-data/pd-lo/data/shot01.txt
;
#X msg 127 245 set list \$1;
#X obj 99 200 spigot;
#X obj 39 77 t b s b;
#X msg 145 155 0;
#X msg 180 156 1;
#X obj 118 51 r \$0-stop;
#X obj 117 73 t b b;
#X msg 105 320 /usr/local/bin/k2oplay -l -d3 \$1 osc.udp://127.0.0.1:12345
;
#X obj 98 226 delay 10;
#X connect 0 0 10 0;
#X connect 1 0 4 0;
#X connect 1 1 6 0;
#X connect 2 0 3 0;
#X connect 3 0 5 0;
#X connect 3 1 9 0;
#X connect 7 0 15 0;
#X connect 8 0 7 0;
#X connect 9 0 16 0;
#X connect 10 0 2 0;
#X connect 10 1 8 0;
#X connect 10 2 12 0;
#X connect 11 0 9 1;
#X connect 12 0 9 1;
#X connect 13 0 14 0;
#X connect 14 0 2 0;
#X connect 14 1 11 0;
#X connect 15 0 1 0;
#X connect 16 0 7 0;
#X restore 516 466 pd logplayer;
#X obj 517 412 bng 15 250 50 0 empty empty empty 0 -6 0 8 -262144 -1
-1;
#X obj 518 433 openpanel;
#X obj 590 433 r \$0-openlog;
#X obj 147 289 symbol \$0-env;
#X obj 66 386 pack s f p s;
#X obj 75 258 t b p b;
#X obj 92 289 r \$0-sz;
#X obj 593 83 t b b b b b;
#X obj 666 109 s \$0-stop;
#X obj 611 203 s lsp;
#X obj 105 334 r \$0-activesample;
#X obj 66 362 symbol;
#X obj 39 421 bng 15 250 50 0 empty empty empty 0 -6 0 8 -262144 -1
-1;
#X obj 65 423 nqpoly4 32 nqgrain gv chan;
#X obj 297 236 r do_net;
#X obj 319 317 bng 15 250 50 0 empty empty empty 0 -6 0 8 -262144 -1
-1;
#X obj 271 408 bng 15 250 50 0 empty empty empty 0 -6 0 8 -262144 -1
-1;
#X msg 742 87 \; pd dsp 1;
#X obj 741 64 r \$0-lb;
#X obj 679 60 bng 15 250 50 0 empty empty empty 0 -6 0 8 -262144 -1
-1;
#X obj 282 452 r \$0-chanwave;
#X obj 271 375 nqpoly4 16 nqnetwave gv chan;
#X connect 4 0 41 0;
#X connect 5 0 41 0;
#X connect 7 0 6 0;
#X connect 9 0 8 0;
#X connect 11 0 0 1;
#X connect 12 0 0 0;
#X connect 16 0 15 0;
#X connect 17 0 15 1;
#X connect 22 0 39 0;
#X connect 27 0 28 0;
#X connect 27 0 43 0;
#X connect 29 0 30 0;
#X connect 30 0 25 0;
#X connect 31 0 25 0;
#X connect 34 0 35 0;
#X connect 35 0 33 0;
#X connect 36 0 33 0;
#X connect 37 0 38 3;
#X connect 38 0 46 0;
#X connect 38 0 47 0;
#X connect 39 0 45 0;
#X connect 39 1 38 2;
#X connect 39 2 37 0;
#X connect 40 0 38 1;
#X connect 41 0 10 0;
#X connect 41 1 9 0;
#X connect 41 2 7 0;
#X connect 41 3 27 0;
#X connect 41 4 42 0;
#X connect 44 0 45 1;
#X connect 45 0 38 0;
#X connect 47 0 23 0;
#X connect 48 0 49 0;
#X connect 48 0 55 0;
#X connect 52 0 51 0;
#X connect 53 0 42 0;
#X connect 54 0 21 0;
#X connect 55 0 50 0;
