#N canvas 369 176 457 364 10;
#X obj 47 274 mp3cast~;
#X msg 212 255 connect localhost 8000;
#X msg 255 114 passwd source;
#X msg 262 135 icecast2;
#X msg 268 157 mountpoint soup;
#X msg 278 180 name soup-live;
#X msg 287 203 mpeg 44100 128 1 4;
#X obj 41 17 inlet~;
#X obj 117 18 inlet~;
#X obj 268 17 inlet;
#X text 314 19 (re-)loadbang;
#X msg 283 74 disconnect;
#X obj 235 45 t b b b;
#X obj 47 297 outlet;
#X connect 0 0 13 0;
#X connect 1 0 0 0;
#X connect 2 0 0 0;
#X connect 3 0 0 0;
#X connect 4 0 0 0;
#X connect 5 0 0 0;
#X connect 6 0 0 0;
#X connect 7 0 0 0;
#X connect 8 0 0 1;
#X connect 9 0 12 0;
#X connect 12 0 1 0;
#X connect 12 1 2 0;
#X connect 12 1 3 0;
#X connect 12 1 4 0;
#X connect 12 1 5 0;
#X connect 12 1 6 0;
#X connect 12 2 11 0;
